%TF.GenerationSoftware,Altium Limited,Altium Designer,24.5.2 (23)*%
G04 Layer_Color=255*
%FSLAX45Y45*%
%MOMM*%
%TF.SameCoordinates,5BA462C2-C504-45FF-B61C-4F2A3F915A71*%
%TF.FilePolarity,Positive*%
%TF.FileFunction,Pads,Bot*%
%TF.Part,Single*%
G01*
G75*
%TA.AperFunction,ViaPad*%
%ADD41C,3.50000*%
%TA.AperFunction,ComponentPad*%
%ADD42C,2.00000*%
%TA.AperFunction,TestPad*%
%ADD43O,1.00000X2.10000*%
%ADD44C,0.65000*%
%ADD45O,1.00000X1.80000*%
D41*
X4950000Y11100000D02*
D03*
Y7300000D02*
D03*
X8850000Y11100000D02*
D03*
Y7300000D02*
D03*
D42*
X4953000Y9334500D02*
D03*
Y9080500D02*
D03*
Y8826500D02*
D03*
Y8572500D02*
D03*
Y8064500D02*
D03*
Y8318500D02*
D03*
Y10668000D02*
D03*
Y10414000D02*
D03*
Y9906000D02*
D03*
Y10160000D02*
D03*
X8826500Y9334500D02*
D03*
Y9080500D02*
D03*
Y8826500D02*
D03*
Y8572500D02*
D03*
Y8064500D02*
D03*
Y8318500D02*
D03*
Y10668000D02*
D03*
Y10414000D02*
D03*
Y9906000D02*
D03*
Y10160000D02*
D03*
X7604000Y7750000D02*
D03*
X7350000D02*
D03*
X7858000D02*
D03*
X8112000D02*
D03*
X6450000D02*
D03*
X6196000D02*
D03*
X5688000D02*
D03*
X5942000D02*
D03*
D43*
X7185500Y10862251D02*
D03*
X8049500D02*
D03*
D44*
X7906500Y10912250D02*
D03*
X7328500D02*
D03*
D45*
X8049500Y11280250D02*
D03*
X7185500D02*
D03*
%TF.MD5,be07a58a9dfcc0f5980a57dd1636910e*%
M02*
