%TF.GenerationSoftware,Altium Limited,Altium Designer,24.5.2 (23)*%
G04 Layer_Color=8388736*
%FSLAX45Y45*%
%MOMM*%
%TF.SameCoordinates,5BA462C2-C504-45FF-B61C-4F2A3F915A71*%
%TF.FilePolarity,Negative*%
%TF.FileFunction,Soldermask,Top*%
%TF.Part,Single*%
G01*
G75*
%TA.AperFunction,SMDPad,CuDef*%
G04:AMPARAMS|DCode=58|XSize=0.8032mm|YSize=0.9032mm|CornerRadius=0.1766mm|HoleSize=0mm|Usage=FLASHONLY|Rotation=75.000|XOffset=0mm|YOffset=0mm|HoleType=Round|Shape=RoundedRectangle|*
%AMROUNDEDRECTD58*
21,1,0.80320,0.55000,0,0,75.0*
21,1,0.45000,0.90320,0,0,75.0*
1,1,0.35320,0.32387,0.14616*
1,1,0.35320,0.20740,-0.28851*
1,1,0.35320,-0.32387,-0.14616*
1,1,0.35320,-0.20740,0.28851*
%
%ADD58ROUNDEDRECTD58*%
%TA.AperFunction,ConnectorPad*%
%ADD59R,1.25320X0.85320*%
%TA.AperFunction,SMDPad,CuDef*%
%ADD60R,2.90320X2.80320*%
%ADD61R,1.00320X0.55320*%
%ADD62R,0.55320X1.05320*%
G04:AMPARAMS|DCode=63|XSize=0.8032mm|YSize=0.9032mm|CornerRadius=0.1766mm|HoleSize=0mm|Usage=FLASHONLY|Rotation=180.000|XOffset=0mm|YOffset=0mm|HoleType=Round|Shape=RoundedRectangle|*
%AMROUNDEDRECTD63*
21,1,0.80320,0.55000,0,0,180.0*
21,1,0.45000,0.90320,0,0,180.0*
1,1,0.35320,-0.22500,0.27500*
1,1,0.35320,0.22500,0.27500*
1,1,0.35320,0.22500,-0.27500*
1,1,0.35320,-0.22500,-0.27500*
%
%ADD63ROUNDEDRECTD63*%
G04:AMPARAMS|DCode=64|XSize=0.8032mm|YSize=0.9032mm|CornerRadius=0.1766mm|HoleSize=0mm|Usage=FLASHONLY|Rotation=90.000|XOffset=0mm|YOffset=0mm|HoleType=Round|Shape=RoundedRectangle|*
%AMROUNDEDRECTD64*
21,1,0.80320,0.55000,0,0,90.0*
21,1,0.45000,0.90320,0,0,90.0*
1,1,0.35320,0.27500,0.22500*
1,1,0.35320,0.27500,-0.22500*
1,1,0.35320,-0.27500,-0.22500*
1,1,0.35320,-0.27500,0.22500*
%
%ADD64ROUNDEDRECTD64*%
G04:AMPARAMS|DCode=65|XSize=1.0032mm|YSize=1.2032mm|CornerRadius=0.2016mm|HoleSize=0mm|Usage=FLASHONLY|Rotation=180.000|XOffset=0mm|YOffset=0mm|HoleType=Round|Shape=RoundedRectangle|*
%AMROUNDEDRECTD65*
21,1,1.00320,0.80000,0,0,180.0*
21,1,0.60000,1.20320,0,0,180.0*
1,1,0.40320,-0.30000,0.40000*
1,1,0.40320,0.30000,0.40000*
1,1,0.40320,0.30000,-0.40000*
1,1,0.40320,-0.30000,-0.40000*
%
%ADD65ROUNDEDRECTD65*%
%ADD66O,0.45320X1.00320*%
%ADD67O,1.00320X0.45320*%
%ADD68R,5.80320X5.80320*%
G04:AMPARAMS|DCode=69|XSize=0.8032mm|YSize=0.9032mm|CornerRadius=0.1766mm|HoleSize=0mm|Usage=FLASHONLY|Rotation=315.000|XOffset=0mm|YOffset=0mm|HoleType=Round|Shape=RoundedRectangle|*
%AMROUNDEDRECTD69*
21,1,0.80320,0.55000,0,0,315.0*
21,1,0.45000,0.90320,0,0,315.0*
1,1,0.35320,-0.03536,-0.35355*
1,1,0.35320,-0.35355,-0.03536*
1,1,0.35320,0.03536,0.35355*
1,1,0.35320,0.35355,0.03536*
%
%ADD69ROUNDEDRECTD69*%
%TA.AperFunction,TestPad*%
G04:AMPARAMS|DCode=70|XSize=0.4mm|YSize=1.25mm|CornerRadius=0.0875mm|HoleSize=0mm|Usage=FLASHONLY|Rotation=180.000|XOffset=0mm|YOffset=0mm|HoleType=Round|Shape=RoundedRectangle|*
%AMROUNDEDRECTD70*
21,1,0.40000,1.07500,0,0,180.0*
21,1,0.22500,1.25000,0,0,180.0*
1,1,0.17500,-0.11250,0.53750*
1,1,0.17500,0.11250,0.53750*
1,1,0.17500,0.11250,-0.53750*
1,1,0.17500,-0.11250,-0.53750*
%
%ADD70ROUNDEDRECTD70*%
G04:AMPARAMS|DCode=71|XSize=0.7mm|YSize=1.25mm|CornerRadius=0.125mm|HoleSize=0mm|Usage=FLASHONLY|Rotation=180.000|XOffset=0mm|YOffset=0mm|HoleType=Round|Shape=RoundedRectangle|*
%AMROUNDEDRECTD71*
21,1,0.70000,1.00000,0,0,180.0*
21,1,0.45000,1.25000,0,0,180.0*
1,1,0.25000,-0.22500,0.50000*
1,1,0.25000,0.22500,0.50000*
1,1,0.25000,0.22500,-0.50000*
1,1,0.25000,-0.22500,-0.50000*
%
%ADD71ROUNDEDRECTD71*%
%TA.AperFunction,ConnectorPad*%
%ADD72R,0.85320X1.25320*%
%TA.AperFunction,SMDPad,CuDef*%
G04:AMPARAMS|DCode=73|XSize=0.8032mm|YSize=0.9032mm|CornerRadius=0.1766mm|HoleSize=0mm|Usage=FLASHONLY|Rotation=45.000|XOffset=0mm|YOffset=0mm|HoleType=Round|Shape=RoundedRectangle|*
%AMROUNDEDRECTD73*
21,1,0.80320,0.55000,0,0,45.0*
21,1,0.45000,0.90320,0,0,45.0*
1,1,0.35320,0.35355,-0.03536*
1,1,0.35320,0.03536,-0.35355*
1,1,0.35320,-0.35355,0.03536*
1,1,0.35320,-0.03536,0.35355*
%
%ADD73ROUNDEDRECTD73*%
G04:AMPARAMS|DCode=74|XSize=1.2032mm|YSize=2.0032mm|CornerRadius=0.1516mm|HoleSize=0mm|Usage=FLASHONLY|Rotation=135.000|XOffset=0mm|YOffset=0mm|HoleType=Round|Shape=RoundedRectangle|*
%AMROUNDEDRECTD74*
21,1,1.20320,1.70000,0,0,135.0*
21,1,0.90000,2.00320,0,0,135.0*
1,1,0.30320,0.28284,0.91924*
1,1,0.30320,0.91924,0.28284*
1,1,0.30320,-0.28284,-0.91924*
1,1,0.30320,-0.91924,-0.28284*
%
%ADD74ROUNDEDRECTD74*%
G04:AMPARAMS|DCode=75|XSize=1.5032mm|YSize=1.3032mm|CornerRadius=0.1566mm|HoleSize=0mm|Usage=FLASHONLY|Rotation=255.000|XOffset=0mm|YOffset=0mm|HoleType=Round|Shape=RoundedRectangle|*
%AMROUNDEDRECTD75*
21,1,1.50320,0.99000,0,0,255.0*
21,1,1.19000,1.30320,0,0,255.0*
1,1,0.31320,-0.63213,-0.44661*
1,1,0.31320,-0.32414,0.70284*
1,1,0.31320,0.63213,0.44661*
1,1,0.31320,0.32414,-0.70284*
%
%ADD75ROUNDEDRECTD75*%
G04:AMPARAMS|DCode=76|XSize=1.0032mm|YSize=1.2032mm|CornerRadius=0.2016mm|HoleSize=0mm|Usage=FLASHONLY|Rotation=270.000|XOffset=0mm|YOffset=0mm|HoleType=Round|Shape=RoundedRectangle|*
%AMROUNDEDRECTD76*
21,1,1.00320,0.80000,0,0,270.0*
21,1,0.60000,1.20320,0,0,270.0*
1,1,0.40320,-0.40000,-0.30000*
1,1,0.40320,-0.40000,0.30000*
1,1,0.40320,0.40000,0.30000*
1,1,0.40320,0.40000,-0.30000*
%
%ADD76ROUNDEDRECTD76*%
%ADD77R,0.85320X1.45320*%
G04:AMPARAMS|DCode=78|XSize=0.8032mm|YSize=0.9032mm|CornerRadius=0.1766mm|HoleSize=0mm|Usage=FLASHONLY|Rotation=345.000|XOffset=0mm|YOffset=0mm|HoleType=Round|Shape=RoundedRectangle|*
%AMROUNDEDRECTD78*
21,1,0.80320,0.55000,0,0,345.0*
21,1,0.45000,0.90320,0,0,345.0*
1,1,0.35320,0.14616,-0.32387*
1,1,0.35320,-0.28851,-0.20740*
1,1,0.35320,-0.14616,0.32387*
1,1,0.35320,0.28851,0.20740*
%
%ADD78ROUNDEDRECTD78*%
%TA.AperFunction,ViaPad*%
%ADD79C,3.70320*%
%TA.AperFunction,ComponentPad*%
%ADD80C,2.20320*%
%TA.AperFunction,TestPad*%
%ADD81O,1.20320X2.30320*%
%ADD82C,0.75000*%
%ADD83O,1.20320X2.00320*%
%TA.AperFunction,ViaPad*%
%ADD84C,0.60320*%
%ADD85C,0.80320*%
D58*
X7544559Y9019204D02*
D03*
X7570441Y9115797D02*
D03*
X7454959Y8662904D02*
D03*
X7480841Y8759497D02*
D03*
D59*
X8007500Y7117500D02*
D03*
X7592500D02*
D03*
X8007500Y7332499D02*
D03*
X7592500D02*
D03*
X7107500Y7117500D02*
D03*
X6692500D02*
D03*
X7107500Y7332499D02*
D03*
X6692500D02*
D03*
X6207500Y7117500D02*
D03*
X5792500D02*
D03*
X6207500Y7332499D02*
D03*
X5792500D02*
D03*
D60*
X5742500Y8805000D02*
D03*
D61*
X5942500Y8680000D02*
D03*
Y8730000D02*
D03*
Y8780000D02*
D03*
Y8830000D02*
D03*
Y8880000D02*
D03*
Y8930000D02*
D03*
X5542500Y8680000D02*
D03*
Y8730000D02*
D03*
Y8780000D02*
D03*
Y8830000D02*
D03*
Y8880000D02*
D03*
Y8930000D02*
D03*
D62*
X5867500Y9002500D02*
D03*
X5817500D02*
D03*
X5767500D02*
D03*
X5717500D02*
D03*
X5667500D02*
D03*
X5617500D02*
D03*
X5867500Y8607500D02*
D03*
X5817500D02*
D03*
X5767500D02*
D03*
X5717500D02*
D03*
X5667500D02*
D03*
X5617500D02*
D03*
D63*
X5590000Y9335000D02*
D03*
X5490000D02*
D03*
X5700000D02*
D03*
X5800000D02*
D03*
X5477500Y8457500D02*
D03*
X5577500D02*
D03*
X5882501Y8397500D02*
D03*
X5782501D02*
D03*
X7955000Y10640000D02*
D03*
X7855000D02*
D03*
X6845000Y10072500D02*
D03*
X6945000D02*
D03*
X7897500Y9942500D02*
D03*
X7997500D02*
D03*
X6837500Y10782500D02*
D03*
X6937500D02*
D03*
X8245000Y11147500D02*
D03*
X8345000D02*
D03*
X8245000Y11032500D02*
D03*
X8345000D02*
D03*
D64*
X6065000Y8865001D02*
D03*
Y8765001D02*
D03*
X5995000Y10752500D02*
D03*
Y10652500D02*
D03*
X6902500Y7879999D02*
D03*
Y7979999D02*
D03*
Y7730000D02*
D03*
Y7629999D02*
D03*
X8200000Y7050000D02*
D03*
Y7150000D02*
D03*
X5650000Y7325000D02*
D03*
Y7225000D02*
D03*
X6400000Y7050000D02*
D03*
Y7150000D02*
D03*
X6550000Y7325000D02*
D03*
Y7225000D02*
D03*
X7300000Y7050000D02*
D03*
Y7150000D02*
D03*
X7450000Y7325000D02*
D03*
Y7225000D02*
D03*
X7175800Y9029500D02*
D03*
Y9129500D02*
D03*
X7125000Y10072500D02*
D03*
Y10172500D02*
D03*
X6972600Y9270800D02*
D03*
Y9370800D02*
D03*
X7130000Y10485000D02*
D03*
Y10585000D02*
D03*
X6903750Y11096250D02*
D03*
Y11196250D02*
D03*
X6738750D02*
D03*
Y11096250D02*
D03*
D65*
X5812500Y9172500D02*
D03*
X5962500D02*
D03*
X8132500Y10477501D02*
D03*
X7982500D02*
D03*
X7950000Y9742500D02*
D03*
X8100000D02*
D03*
X7982500Y10310001D02*
D03*
X8132500D02*
D03*
D66*
X7167500Y9247500D02*
D03*
X7217500D02*
D03*
X7267500D02*
D03*
X7317500D02*
D03*
X7367500D02*
D03*
X7417500D02*
D03*
X7467500D02*
D03*
X7517500D02*
D03*
X7567500D02*
D03*
X7617500D02*
D03*
X7667500D02*
D03*
X7717500D02*
D03*
Y9927500D02*
D03*
X7667500D02*
D03*
X7617500D02*
D03*
X7567500D02*
D03*
X7517500D02*
D03*
X7467500D02*
D03*
X7417500D02*
D03*
X7367500D02*
D03*
X7317500D02*
D03*
X7267500D02*
D03*
X7217500D02*
D03*
X7167500D02*
D03*
D67*
X7782500Y9312500D02*
D03*
Y9362500D02*
D03*
Y9412500D02*
D03*
Y9462500D02*
D03*
Y9512500D02*
D03*
Y9562500D02*
D03*
Y9612500D02*
D03*
Y9662500D02*
D03*
Y9712500D02*
D03*
Y9762500D02*
D03*
Y9812500D02*
D03*
Y9862500D02*
D03*
X7102500D02*
D03*
Y9812500D02*
D03*
Y9762500D02*
D03*
Y9712500D02*
D03*
Y9662500D02*
D03*
Y9612500D02*
D03*
Y9562500D02*
D03*
Y9512500D02*
D03*
Y9462500D02*
D03*
Y9412500D02*
D03*
Y9362500D02*
D03*
Y9312500D02*
D03*
D68*
X7442500Y9587500D02*
D03*
D69*
X8062856Y8537855D02*
D03*
X7992146Y8608567D02*
D03*
X7242045Y8771956D02*
D03*
X7312756Y8701245D02*
D03*
X7089645Y8924356D02*
D03*
X7160356Y8853645D02*
D03*
D70*
X7642500Y10804751D02*
D03*
X7592500D02*
D03*
X7542500D02*
D03*
X7692500D02*
D03*
X7742500D02*
D03*
X7792500D02*
D03*
X7492500D02*
D03*
X7442500D02*
D03*
D71*
X7857500D02*
D03*
X7937500D02*
D03*
X7377500D02*
D03*
X7297500D02*
D03*
D72*
X6207500Y11307500D02*
D03*
Y10892500D02*
D03*
X5992500Y11307500D02*
D03*
Y10892500D02*
D03*
X5707500Y11307500D02*
D03*
Y10892500D02*
D03*
X5492500Y11307500D02*
D03*
Y10892500D02*
D03*
D73*
X7153145Y8498045D02*
D03*
X7223856Y8568756D02*
D03*
D74*
X6947712Y8837689D02*
D03*
X7124488Y8660912D02*
D03*
D75*
X7805327Y8594494D02*
D03*
X7621801Y8643670D02*
D03*
X7745799Y8372331D02*
D03*
X7562273Y8421506D02*
D03*
D76*
X6832900Y9270000D02*
D03*
Y9420000D02*
D03*
X7852500Y10467501D02*
D03*
Y10317501D02*
D03*
D77*
X6978601Y10229000D02*
D03*
X6790601D02*
D03*
Y10479000D02*
D03*
X6884601D02*
D03*
X6978601D02*
D03*
D78*
X7546604Y8863842D02*
D03*
X7643196Y8837960D02*
D03*
X7846396Y8774459D02*
D03*
X7749804Y8800341D02*
D03*
D79*
X4950000Y11100000D02*
D03*
Y7300000D02*
D03*
X8850000Y11100000D02*
D03*
Y7300000D02*
D03*
D80*
X4953000Y9334500D02*
D03*
Y9080500D02*
D03*
Y8826500D02*
D03*
Y8572500D02*
D03*
Y8064500D02*
D03*
Y8318500D02*
D03*
Y10668000D02*
D03*
Y10414000D02*
D03*
Y9906000D02*
D03*
Y10160000D02*
D03*
X8826500Y9334500D02*
D03*
Y9080500D02*
D03*
Y8826500D02*
D03*
Y8572500D02*
D03*
Y8064500D02*
D03*
Y8318500D02*
D03*
Y10668000D02*
D03*
Y10414000D02*
D03*
Y9906000D02*
D03*
Y10160000D02*
D03*
X7604000Y7750000D02*
D03*
X7350000D02*
D03*
X7858000D02*
D03*
X8112000D02*
D03*
X6450000D02*
D03*
X6196000D02*
D03*
X5688000D02*
D03*
X5942000D02*
D03*
D81*
X7185500Y10862251D02*
D03*
X8049500D02*
D03*
D82*
X7906500Y10912250D02*
D03*
X7328500D02*
D03*
D83*
X8049500Y11280250D02*
D03*
X7185500D02*
D03*
D84*
X9000005Y10600006D02*
D03*
Y10200006D02*
D03*
Y9800005D02*
D03*
Y9400005D02*
D03*
Y9000005D02*
D03*
Y8600005D02*
D03*
Y8200004D02*
D03*
Y7800004D02*
D03*
X8900005Y9600005D02*
D03*
X8800005Y7800004D02*
D03*
X8900005Y7600004D02*
D03*
X8800005Y7000004D02*
D03*
X8600005Y11000006D02*
D03*
X8700005Y10800006D02*
D03*
X8600005Y10600006D02*
D03*
X8700005Y9600005D02*
D03*
Y9200005D02*
D03*
Y7600004D02*
D03*
X8600005Y7000004D02*
D03*
X8500005Y11200006D02*
D03*
Y10800006D02*
D03*
X8400005Y10600006D02*
D03*
X8500005Y7200004D02*
D03*
X8400005Y7000004D02*
D03*
X8300004Y10800006D02*
D03*
X7600004Y11000006D02*
D03*
X7700004Y7600004D02*
D03*
X7500004D02*
D03*
X7300004Y11200006D02*
D03*
X7000004Y7800004D02*
D03*
X7100004Y7600004D02*
D03*
X6800004Y11000006D02*
D03*
Y7800004D02*
D03*
X6700004Y10800006D02*
D03*
Y7600004D02*
D03*
X6500004Y11200006D02*
D03*
X6400003Y11000006D02*
D03*
X6300003Y11200006D02*
D03*
X6200003Y8600005D02*
D03*
X6300003Y7600004D02*
D03*
X6100003Y11200006D02*
D03*
Y7600004D02*
D03*
X5900003Y11200006D02*
D03*
X5800003Y11000006D02*
D03*
X5600003D02*
D03*
Y10600006D02*
D03*
X5700003Y10000005D02*
D03*
X5400003Y11000006D02*
D03*
Y10600006D02*
D03*
Y7800004D02*
D03*
X5300003Y11200006D02*
D03*
X5200003Y11000006D02*
D03*
X5300003Y10800006D02*
D03*
X5200003Y10600006D02*
D03*
Y8200004D02*
D03*
Y7800004D02*
D03*
X5300003Y7600004D02*
D03*
X5200003Y7400004D02*
D03*
Y7000004D02*
D03*
X5100003Y10800006D02*
D03*
Y10000005D02*
D03*
Y9600005D02*
D03*
Y9200005D02*
D03*
X5000003Y7800004D02*
D03*
X5100003Y7600004D02*
D03*
X5000003Y7000004D02*
D03*
X4800003Y9800005D02*
D03*
X4900003Y9600005D02*
D03*
X4800003Y9000005D02*
D03*
Y8200004D02*
D03*
Y7800004D02*
D03*
X4900003Y7600004D02*
D03*
X7637500Y9081284D02*
D03*
X5625000Y7082500D02*
D03*
X7425000D02*
D03*
X6525000D02*
D03*
X5972500Y8397500D02*
D03*
X5435000Y9812500D02*
D03*
X5342500Y9710000D02*
D03*
X5540000Y9905000D02*
D03*
X5817500Y9477500D02*
D03*
X5600000Y9570000D02*
D03*
X5887500Y9567500D02*
D03*
X6417500Y9437500D02*
D03*
X6677500Y10062500D02*
D03*
X6272500Y9910000D02*
D03*
X6562500Y10055000D02*
D03*
X5782500Y8295000D02*
D03*
X6537500Y8745000D02*
D03*
X6542500Y9242500D02*
D03*
X6398839Y10557500D02*
D03*
X7247500Y10105000D02*
D03*
X6560000Y10557500D02*
D03*
X6105000Y10747500D02*
D03*
X7702500Y10087500D02*
D03*
X7727500Y10187500D02*
D03*
X7630000Y10260000D02*
D03*
X7552500Y10315000D02*
D03*
X7432500Y10170000D02*
D03*
X7437500Y10265000D02*
D03*
X7210000Y10027500D02*
D03*
D85*
X7947500Y8720000D02*
D03*
X7454959Y8536553D02*
D03*
X6876710Y8588291D02*
D03*
X8095000Y9870000D02*
D03*
X8345000Y10922500D02*
D03*
X8113750Y10613750D02*
D03*
X7222500Y10670000D02*
D03*
X6905000Y11002500D02*
D03*
X5860000Y10652500D02*
D03*
X5492500Y10770000D02*
D03*
X8310000Y7267500D02*
D03*
X7300000Y7300000D02*
D03*
X6400000D02*
D03*
X6905000Y7507500D02*
D03*
X5687500Y8860000D02*
D03*
X5797500D02*
D03*
Y8750000D02*
D03*
X5687500D02*
D03*
X6935000Y9942500D02*
D03*
X5385000Y8670000D02*
D03*
X6052500Y9067500D02*
D03*
X6420000Y8430000D02*
D03*
X6290000D02*
D03*
X7225000Y8292500D02*
D03*
X7352500D02*
D03*
X7970000D02*
D03*
X5707500Y10737500D02*
D03*
X6662500Y9370000D02*
D03*
X7127500Y10305000D02*
D03*
X8220000Y9497500D02*
D03*
X8027500Y9625000D02*
D03*
X7832500Y8995000D02*
D03*
X8127500Y9560000D02*
D03*
X7282500Y10412500D02*
D03*
X7687500D02*
D03*
X7857500Y10030000D02*
D03*
X6692500Y9172500D02*
D03*
X6885000Y10645000D02*
D03*
X7710000Y10640000D02*
D03*
X7377500Y10700000D02*
D03*
X7222500Y9367500D02*
D03*
Y9477500D02*
D03*
Y9587500D02*
D03*
Y9697500D02*
D03*
Y9807500D02*
D03*
X7332500Y9367500D02*
D03*
Y9477500D02*
D03*
Y9587500D02*
D03*
Y9697500D02*
D03*
Y9807500D02*
D03*
X7442500Y9367500D02*
D03*
Y9477500D02*
D03*
Y9587500D02*
D03*
Y9697500D02*
D03*
Y9807500D02*
D03*
X7552500Y9367500D02*
D03*
Y9477500D02*
D03*
Y9587500D02*
D03*
Y9697500D02*
D03*
Y9807500D02*
D03*
X7662500Y9367500D02*
D03*
Y9477500D02*
D03*
Y9587500D02*
D03*
Y9697500D02*
D03*
Y9807500D02*
D03*
%TF.MD5,223ad4cfa2c12f9d65d3a67872d2b251*%
M02*
