%TF.GenerationSoftware,Altium Limited,Altium Designer,24.5.2 (23)*%
G04 Layer_Color=8421504*
%FSLAX45Y45*%
%MOMM*%
%TF.SameCoordinates,5BA462C2-C504-45FF-B61C-4F2A3F915A71*%
%TF.FilePolarity,Positive*%
%TF.FileFunction,Paste,Top*%
%TF.Part,Single*%
G01*
G75*
%TA.AperFunction,SMDPad,CuDef*%
G04:AMPARAMS|DCode=11|XSize=0.6mm|YSize=0.7mm|CornerRadius=0.075mm|HoleSize=0mm|Usage=FLASHONLY|Rotation=75.000|XOffset=0mm|YOffset=0mm|HoleType=Round|Shape=RoundedRectangle|*
%AMROUNDEDRECTD11*
21,1,0.60000,0.55000,0,0,75.0*
21,1,0.45000,0.70000,0,0,75.0*
1,1,0.15000,0.32387,0.14616*
1,1,0.15000,0.20740,-0.28851*
1,1,0.15000,-0.32387,-0.14616*
1,1,0.15000,-0.20740,0.28851*
%
%ADD11ROUNDEDRECTD11*%
%TA.AperFunction,ConnectorPad*%
%ADD12R,1.05000X0.65000*%
%TA.AperFunction,SMDPad,CuDef*%
%ADD13R,2.70000X2.60000*%
%ADD14R,0.80000X0.35000*%
%ADD15R,0.35000X0.85000*%
G04:AMPARAMS|DCode=16|XSize=0.6mm|YSize=0.7mm|CornerRadius=0.075mm|HoleSize=0mm|Usage=FLASHONLY|Rotation=180.000|XOffset=0mm|YOffset=0mm|HoleType=Round|Shape=RoundedRectangle|*
%AMROUNDEDRECTD16*
21,1,0.60000,0.55000,0,0,180.0*
21,1,0.45000,0.70000,0,0,180.0*
1,1,0.15000,-0.22500,0.27500*
1,1,0.15000,0.22500,0.27500*
1,1,0.15000,0.22500,-0.27500*
1,1,0.15000,-0.22500,-0.27500*
%
%ADD16ROUNDEDRECTD16*%
G04:AMPARAMS|DCode=17|XSize=0.6mm|YSize=0.7mm|CornerRadius=0.075mm|HoleSize=0mm|Usage=FLASHONLY|Rotation=90.000|XOffset=0mm|YOffset=0mm|HoleType=Round|Shape=RoundedRectangle|*
%AMROUNDEDRECTD17*
21,1,0.60000,0.55000,0,0,90.0*
21,1,0.45000,0.70000,0,0,90.0*
1,1,0.15000,0.27500,0.22500*
1,1,0.15000,0.27500,-0.22500*
1,1,0.15000,-0.27500,-0.22500*
1,1,0.15000,-0.27500,0.22500*
%
%ADD17ROUNDEDRECTD17*%
G04:AMPARAMS|DCode=18|XSize=0.8mm|YSize=1mm|CornerRadius=0.1mm|HoleSize=0mm|Usage=FLASHONLY|Rotation=180.000|XOffset=0mm|YOffset=0mm|HoleType=Round|Shape=RoundedRectangle|*
%AMROUNDEDRECTD18*
21,1,0.80000,0.80000,0,0,180.0*
21,1,0.60000,1.00000,0,0,180.0*
1,1,0.20000,-0.30000,0.40000*
1,1,0.20000,0.30000,0.40000*
1,1,0.20000,0.30000,-0.40000*
1,1,0.20000,-0.30000,-0.40000*
%
%ADD18ROUNDEDRECTD18*%
%ADD19O,0.25000X0.80000*%
%ADD20O,0.80000X0.25000*%
%ADD21R,5.60000X5.60000*%
G04:AMPARAMS|DCode=22|XSize=0.6mm|YSize=0.7mm|CornerRadius=0.075mm|HoleSize=0mm|Usage=FLASHONLY|Rotation=315.000|XOffset=0mm|YOffset=0mm|HoleType=Round|Shape=RoundedRectangle|*
%AMROUNDEDRECTD22*
21,1,0.60000,0.55000,0,0,315.0*
21,1,0.45000,0.70000,0,0,315.0*
1,1,0.15000,-0.03536,-0.35355*
1,1,0.15000,-0.35355,-0.03536*
1,1,0.15000,0.03536,0.35355*
1,1,0.15000,0.35355,0.03536*
%
%ADD22ROUNDEDRECTD22*%
%TA.AperFunction,TestPad*%
G04:AMPARAMS|DCode=23|XSize=0.3mm|YSize=1.15mm|CornerRadius=0.0375mm|HoleSize=0mm|Usage=FLASHONLY|Rotation=180.000|XOffset=0mm|YOffset=0mm|HoleType=Round|Shape=RoundedRectangle|*
%AMROUNDEDRECTD23*
21,1,0.30000,1.07500,0,0,180.0*
21,1,0.22500,1.15000,0,0,180.0*
1,1,0.07500,-0.11250,0.53750*
1,1,0.07500,0.11250,0.53750*
1,1,0.07500,0.11250,-0.53750*
1,1,0.07500,-0.11250,-0.53750*
%
%ADD23ROUNDEDRECTD23*%
G04:AMPARAMS|DCode=24|XSize=0.6mm|YSize=1.15mm|CornerRadius=0.075mm|HoleSize=0mm|Usage=FLASHONLY|Rotation=180.000|XOffset=0mm|YOffset=0mm|HoleType=Round|Shape=RoundedRectangle|*
%AMROUNDEDRECTD24*
21,1,0.60000,1.00000,0,0,180.0*
21,1,0.45000,1.15000,0,0,180.0*
1,1,0.15000,-0.22500,0.50000*
1,1,0.15000,0.22500,0.50000*
1,1,0.15000,0.22500,-0.50000*
1,1,0.15000,-0.22500,-0.50000*
%
%ADD24ROUNDEDRECTD24*%
%TA.AperFunction,ConnectorPad*%
%ADD25R,0.65000X1.05000*%
%TA.AperFunction,SMDPad,CuDef*%
G04:AMPARAMS|DCode=26|XSize=0.6mm|YSize=0.7mm|CornerRadius=0.075mm|HoleSize=0mm|Usage=FLASHONLY|Rotation=45.000|XOffset=0mm|YOffset=0mm|HoleType=Round|Shape=RoundedRectangle|*
%AMROUNDEDRECTD26*
21,1,0.60000,0.55000,0,0,45.0*
21,1,0.45000,0.70000,0,0,45.0*
1,1,0.15000,0.35355,-0.03536*
1,1,0.15000,0.03536,-0.35355*
1,1,0.15000,-0.35355,0.03536*
1,1,0.15000,-0.03536,0.35355*
%
%ADD26ROUNDEDRECTD26*%
G04:AMPARAMS|DCode=27|XSize=1mm|YSize=1.8mm|CornerRadius=0.05mm|HoleSize=0mm|Usage=FLASHONLY|Rotation=135.000|XOffset=0mm|YOffset=0mm|HoleType=Round|Shape=RoundedRectangle|*
%AMROUNDEDRECTD27*
21,1,1.00000,1.70000,0,0,135.0*
21,1,0.90000,1.80000,0,0,135.0*
1,1,0.10000,0.28284,0.91924*
1,1,0.10000,0.91924,0.28284*
1,1,0.10000,-0.28284,-0.91924*
1,1,0.10000,-0.91924,-0.28284*
%
%ADD27ROUNDEDRECTD27*%
G04:AMPARAMS|DCode=28|XSize=1.3mm|YSize=1.1mm|CornerRadius=0.055mm|HoleSize=0mm|Usage=FLASHONLY|Rotation=255.000|XOffset=0mm|YOffset=0mm|HoleType=Round|Shape=RoundedRectangle|*
%AMROUNDEDRECTD28*
21,1,1.30000,0.99000,0,0,255.0*
21,1,1.19000,1.10000,0,0,255.0*
1,1,0.11000,-0.63213,-0.44661*
1,1,0.11000,-0.32414,0.70284*
1,1,0.11000,0.63213,0.44661*
1,1,0.11000,0.32414,-0.70284*
%
%ADD28ROUNDEDRECTD28*%
G04:AMPARAMS|DCode=29|XSize=0.8mm|YSize=1mm|CornerRadius=0.1mm|HoleSize=0mm|Usage=FLASHONLY|Rotation=270.000|XOffset=0mm|YOffset=0mm|HoleType=Round|Shape=RoundedRectangle|*
%AMROUNDEDRECTD29*
21,1,0.80000,0.80000,0,0,270.0*
21,1,0.60000,1.00000,0,0,270.0*
1,1,0.20000,-0.40000,-0.30000*
1,1,0.20000,-0.40000,0.30000*
1,1,0.20000,0.40000,0.30000*
1,1,0.20000,0.40000,-0.30000*
%
%ADD29ROUNDEDRECTD29*%
%ADD30R,0.65000X1.25000*%
G04:AMPARAMS|DCode=31|XSize=0.6mm|YSize=0.7mm|CornerRadius=0.075mm|HoleSize=0mm|Usage=FLASHONLY|Rotation=345.000|XOffset=0mm|YOffset=0mm|HoleType=Round|Shape=RoundedRectangle|*
%AMROUNDEDRECTD31*
21,1,0.60000,0.55000,0,0,345.0*
21,1,0.45000,0.70000,0,0,345.0*
1,1,0.15000,0.14616,-0.32387*
1,1,0.15000,-0.28851,-0.20740*
1,1,0.15000,-0.14616,0.32387*
1,1,0.15000,0.28851,0.20740*
%
%ADD31ROUNDEDRECTD31*%
D11*
X7544559Y9019204D02*
D03*
X7570441Y9115797D02*
D03*
X7454959Y8662904D02*
D03*
X7480841Y8759497D02*
D03*
D12*
X8007500Y7117500D02*
D03*
X7592500D02*
D03*
X8007500Y7332499D02*
D03*
X7592500D02*
D03*
X7107500Y7117500D02*
D03*
X6692500D02*
D03*
X7107500Y7332499D02*
D03*
X6692500D02*
D03*
X6207500Y7117500D02*
D03*
X5792500D02*
D03*
X6207500Y7332499D02*
D03*
X5792500D02*
D03*
D13*
X5742500Y8805000D02*
D03*
D14*
X5942500Y8680000D02*
D03*
Y8730000D02*
D03*
Y8780000D02*
D03*
Y8830000D02*
D03*
Y8880000D02*
D03*
Y8930000D02*
D03*
X5542500Y8680000D02*
D03*
Y8730000D02*
D03*
Y8780000D02*
D03*
Y8830000D02*
D03*
Y8880000D02*
D03*
Y8930000D02*
D03*
D15*
X5867500Y9002500D02*
D03*
X5817500D02*
D03*
X5767500D02*
D03*
X5717500D02*
D03*
X5667500D02*
D03*
X5617500D02*
D03*
X5867500Y8607500D02*
D03*
X5817500D02*
D03*
X5767500D02*
D03*
X5717500D02*
D03*
X5667500D02*
D03*
X5617500D02*
D03*
D16*
X5590000Y9335000D02*
D03*
X5490000D02*
D03*
X5700000D02*
D03*
X5800000D02*
D03*
X5477500Y8457500D02*
D03*
X5577500D02*
D03*
X5882501Y8397500D02*
D03*
X5782501D02*
D03*
X7955000Y10640000D02*
D03*
X7855000D02*
D03*
X6845000Y10072500D02*
D03*
X6945000D02*
D03*
X7897500Y9942500D02*
D03*
X7997500D02*
D03*
X6837500Y10782500D02*
D03*
X6937500D02*
D03*
X8245000Y11147500D02*
D03*
X8345000D02*
D03*
X8245000Y11032500D02*
D03*
X8345000D02*
D03*
D17*
X6065000Y8865001D02*
D03*
Y8765001D02*
D03*
X5995000Y10752500D02*
D03*
Y10652500D02*
D03*
X6902500Y7879999D02*
D03*
Y7979999D02*
D03*
Y7730000D02*
D03*
Y7629999D02*
D03*
X8200000Y7050000D02*
D03*
Y7150000D02*
D03*
X5650000Y7325000D02*
D03*
Y7225000D02*
D03*
X6400000Y7050000D02*
D03*
Y7150000D02*
D03*
X6550000Y7325000D02*
D03*
Y7225000D02*
D03*
X7300000Y7050000D02*
D03*
Y7150000D02*
D03*
X7450000Y7325000D02*
D03*
Y7225000D02*
D03*
X7175800Y9029500D02*
D03*
Y9129500D02*
D03*
X7125000Y10072500D02*
D03*
Y10172500D02*
D03*
X6972600Y9270800D02*
D03*
Y9370800D02*
D03*
X7130000Y10485000D02*
D03*
Y10585000D02*
D03*
X6903750Y11096250D02*
D03*
Y11196250D02*
D03*
X6738750D02*
D03*
Y11096250D02*
D03*
D18*
X5812500Y9172500D02*
D03*
X5962500D02*
D03*
X8132500Y10477501D02*
D03*
X7982500D02*
D03*
X7950000Y9742500D02*
D03*
X8100000D02*
D03*
X7982500Y10310001D02*
D03*
X8132500D02*
D03*
D19*
X7167500Y9247500D02*
D03*
X7217500D02*
D03*
X7267500D02*
D03*
X7317500D02*
D03*
X7367500D02*
D03*
X7417500D02*
D03*
X7467500D02*
D03*
X7517500D02*
D03*
X7567500D02*
D03*
X7617500D02*
D03*
X7667500D02*
D03*
X7717500D02*
D03*
Y9927500D02*
D03*
X7667500D02*
D03*
X7617500D02*
D03*
X7567500D02*
D03*
X7517500D02*
D03*
X7467500D02*
D03*
X7417500D02*
D03*
X7367500D02*
D03*
X7317500D02*
D03*
X7267500D02*
D03*
X7217500D02*
D03*
X7167500D02*
D03*
D20*
X7782500Y9312500D02*
D03*
Y9362500D02*
D03*
Y9412500D02*
D03*
Y9462500D02*
D03*
Y9512500D02*
D03*
Y9562500D02*
D03*
Y9612500D02*
D03*
Y9662500D02*
D03*
Y9712500D02*
D03*
Y9762500D02*
D03*
Y9812500D02*
D03*
Y9862500D02*
D03*
X7102500D02*
D03*
Y9812500D02*
D03*
Y9762500D02*
D03*
Y9712500D02*
D03*
Y9662500D02*
D03*
Y9612500D02*
D03*
Y9562500D02*
D03*
Y9512500D02*
D03*
Y9462500D02*
D03*
Y9412500D02*
D03*
Y9362500D02*
D03*
Y9312500D02*
D03*
D21*
X7442500Y9587500D02*
D03*
D22*
X8062856Y8537855D02*
D03*
X7992146Y8608567D02*
D03*
X7242045Y8771956D02*
D03*
X7312756Y8701245D02*
D03*
X7089645Y8924356D02*
D03*
X7160356Y8853645D02*
D03*
D23*
X7642500Y10804751D02*
D03*
X7592500D02*
D03*
X7542500D02*
D03*
X7692500D02*
D03*
X7742500D02*
D03*
X7792500D02*
D03*
X7492500D02*
D03*
X7442500D02*
D03*
D24*
X7857500D02*
D03*
X7937500D02*
D03*
X7377500D02*
D03*
X7297500D02*
D03*
D25*
X6207500Y11307500D02*
D03*
Y10892500D02*
D03*
X5992500Y11307500D02*
D03*
Y10892500D02*
D03*
X5707500Y11307500D02*
D03*
Y10892500D02*
D03*
X5492500Y11307500D02*
D03*
Y10892500D02*
D03*
D26*
X7153145Y8498045D02*
D03*
X7223856Y8568756D02*
D03*
D27*
X6947712Y8837689D02*
D03*
X7124488Y8660912D02*
D03*
D28*
X7805327Y8594494D02*
D03*
X7621801Y8643670D02*
D03*
X7745799Y8372331D02*
D03*
X7562273Y8421506D02*
D03*
D29*
X6832900Y9270000D02*
D03*
Y9420000D02*
D03*
X7852500Y10467501D02*
D03*
Y10317501D02*
D03*
D30*
X6978601Y10229000D02*
D03*
X6790601D02*
D03*
Y10479000D02*
D03*
X6884601D02*
D03*
X6978601D02*
D03*
D31*
X7546604Y8863842D02*
D03*
X7643196Y8837960D02*
D03*
X7846396Y8774459D02*
D03*
X7749804Y8800341D02*
D03*
%TF.MD5,41468c81198ff6c81052c59f53ea9fe0*%
M02*
