%TF.GenerationSoftware,Altium Limited,Altium Designer,24.5.2 (23)*%
G04 Layer_Color=16711935*
%FSLAX45Y45*%
%MOMM*%
%TF.SameCoordinates,5BA462C2-C504-45FF-B61C-4F2A3F915A71*%
%TF.FilePolarity,Negative*%
%TF.FileFunction,Soldermask,Bot*%
%TF.Part,Single*%
G01*
G75*
%TA.AperFunction,ViaPad*%
%ADD79C,3.70320*%
%TA.AperFunction,ComponentPad*%
%ADD80C,2.20320*%
%TA.AperFunction,TestPad*%
%ADD81O,1.20320X2.30320*%
%ADD82C,0.75000*%
%ADD83O,1.20320X2.00320*%
%TA.AperFunction,ViaPad*%
%ADD84C,0.60320*%
%ADD85C,0.80320*%
D79*
X4950000Y11100000D02*
D03*
Y7300000D02*
D03*
X8850000Y11100000D02*
D03*
Y7300000D02*
D03*
D80*
X4953000Y9334500D02*
D03*
Y9080500D02*
D03*
Y8826500D02*
D03*
Y8572500D02*
D03*
Y8064500D02*
D03*
Y8318500D02*
D03*
Y10668000D02*
D03*
Y10414000D02*
D03*
Y9906000D02*
D03*
Y10160000D02*
D03*
X8826500Y9334500D02*
D03*
Y9080500D02*
D03*
Y8826500D02*
D03*
Y8572500D02*
D03*
Y8064500D02*
D03*
Y8318500D02*
D03*
Y10668000D02*
D03*
Y10414000D02*
D03*
Y9906000D02*
D03*
Y10160000D02*
D03*
X7604000Y7750000D02*
D03*
X7350000D02*
D03*
X7858000D02*
D03*
X8112000D02*
D03*
X6450000D02*
D03*
X6196000D02*
D03*
X5688000D02*
D03*
X5942000D02*
D03*
D81*
X7185500Y10862251D02*
D03*
X8049500D02*
D03*
D82*
X7906500Y10912250D02*
D03*
X7328500D02*
D03*
D83*
X8049500Y11280250D02*
D03*
X7185500D02*
D03*
D84*
X9000005Y10600006D02*
D03*
Y10200006D02*
D03*
Y9800005D02*
D03*
Y9400005D02*
D03*
Y9000005D02*
D03*
Y8600005D02*
D03*
Y8200004D02*
D03*
Y7800004D02*
D03*
X8900005Y9600005D02*
D03*
X8800005Y7800004D02*
D03*
X8900005Y7600004D02*
D03*
X8800005Y7000004D02*
D03*
X8600005Y11000006D02*
D03*
X8700005Y10800006D02*
D03*
X8600005Y10600006D02*
D03*
X8700005Y9600005D02*
D03*
Y9200005D02*
D03*
Y7600004D02*
D03*
X8600005Y7000004D02*
D03*
X8500005Y11200006D02*
D03*
Y10800006D02*
D03*
X8400005Y10600006D02*
D03*
X8500005Y7200004D02*
D03*
X8400005Y7000004D02*
D03*
X8300004Y10800006D02*
D03*
X7600004Y11000006D02*
D03*
X7700004Y7600004D02*
D03*
X7500004D02*
D03*
X7300004Y11200006D02*
D03*
X7000004Y7800004D02*
D03*
X7100004Y7600004D02*
D03*
X6800004Y11000006D02*
D03*
Y7800004D02*
D03*
X6700004Y10800006D02*
D03*
Y7600004D02*
D03*
X6500004Y11200006D02*
D03*
X6400003Y11000006D02*
D03*
X6300003Y11200006D02*
D03*
X6200003Y8600005D02*
D03*
X6300003Y7600004D02*
D03*
X6100003Y11200006D02*
D03*
Y7600004D02*
D03*
X5900003Y11200006D02*
D03*
X5800003Y11000006D02*
D03*
X5600003D02*
D03*
Y10600006D02*
D03*
X5700003Y10000005D02*
D03*
X5400003Y11000006D02*
D03*
Y10600006D02*
D03*
Y7800004D02*
D03*
X5300003Y11200006D02*
D03*
X5200003Y11000006D02*
D03*
X5300003Y10800006D02*
D03*
X5200003Y10600006D02*
D03*
Y8200004D02*
D03*
Y7800004D02*
D03*
X5300003Y7600004D02*
D03*
X5200003Y7400004D02*
D03*
Y7000004D02*
D03*
X5100003Y10800006D02*
D03*
Y10000005D02*
D03*
Y9600005D02*
D03*
Y9200005D02*
D03*
X5000003Y7800004D02*
D03*
X5100003Y7600004D02*
D03*
X5000003Y7000004D02*
D03*
X4800003Y9800005D02*
D03*
X4900003Y9600005D02*
D03*
X4800003Y9000005D02*
D03*
Y8200004D02*
D03*
Y7800004D02*
D03*
X4900003Y7600004D02*
D03*
X7637500Y9081284D02*
D03*
X5625000Y7082500D02*
D03*
X7425000D02*
D03*
X6525000D02*
D03*
X5972500Y8397500D02*
D03*
X5435000Y9812500D02*
D03*
X5342500Y9710000D02*
D03*
X5540000Y9905000D02*
D03*
X5817500Y9477500D02*
D03*
X5600000Y9570000D02*
D03*
X5887500Y9567500D02*
D03*
X6417500Y9437500D02*
D03*
X6677500Y10062500D02*
D03*
X6272500Y9910000D02*
D03*
X6562500Y10055000D02*
D03*
X5782500Y8295000D02*
D03*
X6537500Y8745000D02*
D03*
X6542500Y9242500D02*
D03*
X6398839Y10557500D02*
D03*
X7247500Y10105000D02*
D03*
X6560000Y10557500D02*
D03*
X6105000Y10747500D02*
D03*
X7702500Y10087500D02*
D03*
X7727500Y10187500D02*
D03*
X7630000Y10260000D02*
D03*
X7552500Y10315000D02*
D03*
X7432500Y10170000D02*
D03*
X7437500Y10265000D02*
D03*
X7210000Y10027500D02*
D03*
D85*
X7947500Y8720000D02*
D03*
X7454959Y8536553D02*
D03*
X6876710Y8588291D02*
D03*
X8095000Y9870000D02*
D03*
X8345000Y10922500D02*
D03*
X8113750Y10613750D02*
D03*
X7222500Y10670000D02*
D03*
X6905000Y11002500D02*
D03*
X5860000Y10652500D02*
D03*
X5492500Y10770000D02*
D03*
X8310000Y7267500D02*
D03*
X7300000Y7300000D02*
D03*
X6400000D02*
D03*
X6905000Y7507500D02*
D03*
X5687500Y8860000D02*
D03*
X5797500D02*
D03*
Y8750000D02*
D03*
X5687500D02*
D03*
X6935000Y9942500D02*
D03*
X5385000Y8670000D02*
D03*
X6052500Y9067500D02*
D03*
X6420000Y8430000D02*
D03*
X6290000D02*
D03*
X7225000Y8292500D02*
D03*
X7352500D02*
D03*
X7970000D02*
D03*
X5707500Y10737500D02*
D03*
X6662500Y9370000D02*
D03*
X7127500Y10305000D02*
D03*
X8220000Y9497500D02*
D03*
X8027500Y9625000D02*
D03*
X7832500Y8995000D02*
D03*
X8127500Y9560000D02*
D03*
X7282500Y10412500D02*
D03*
X7687500D02*
D03*
X7857500Y10030000D02*
D03*
X6692500Y9172500D02*
D03*
X6885000Y10645000D02*
D03*
X7710000Y10640000D02*
D03*
X7377500Y10700000D02*
D03*
X7222500Y9367500D02*
D03*
Y9477500D02*
D03*
Y9587500D02*
D03*
Y9697500D02*
D03*
Y9807500D02*
D03*
X7332500Y9367500D02*
D03*
Y9477500D02*
D03*
Y9587500D02*
D03*
Y9697500D02*
D03*
Y9807500D02*
D03*
X7442500Y9367500D02*
D03*
Y9477500D02*
D03*
Y9587500D02*
D03*
Y9697500D02*
D03*
Y9807500D02*
D03*
X7552500Y9367500D02*
D03*
Y9477500D02*
D03*
Y9587500D02*
D03*
Y9697500D02*
D03*
Y9807500D02*
D03*
X7662500Y9367500D02*
D03*
Y9477500D02*
D03*
Y9587500D02*
D03*
Y9697500D02*
D03*
Y9807500D02*
D03*
%TF.MD5,919ae249dea6d5a62a00c6c5a27db03a*%
M02*
