%TF.GenerationSoftware,Altium Limited,Altium Designer,24.5.2 (23)*%
G04 Layer_Physical_Order=1*
G04 Layer_Color=255*
%FSLAX45Y45*%
%MOMM*%
%TF.SameCoordinates,5BA462C2-C504-45FF-B61C-4F2A3F915A71*%
%TF.FilePolarity,Positive*%
%TF.FileFunction,Copper,L1,Top,Signal*%
%TF.Part,Single*%
G01*
G75*
%TA.AperFunction,Conductor*%
%ADD10C,0.20000*%
%TA.AperFunction,SMDPad,CuDef*%
G04:AMPARAMS|DCode=11|XSize=0.6mm|YSize=0.7mm|CornerRadius=0.075mm|HoleSize=0mm|Usage=FLASHONLY|Rotation=75.000|XOffset=0mm|YOffset=0mm|HoleType=Round|Shape=RoundedRectangle|*
%AMROUNDEDRECTD11*
21,1,0.60000,0.55000,0,0,75.0*
21,1,0.45000,0.70000,0,0,75.0*
1,1,0.15000,0.32387,0.14616*
1,1,0.15000,0.20740,-0.28851*
1,1,0.15000,-0.32387,-0.14616*
1,1,0.15000,-0.20740,0.28851*
%
%ADD11ROUNDEDRECTD11*%
%TA.AperFunction,ConnectorPad*%
%ADD12R,1.05000X0.65000*%
%TA.AperFunction,SMDPad,CuDef*%
%ADD13R,2.70000X2.60000*%
%ADD14R,0.80000X0.35000*%
%ADD15R,0.35000X0.85000*%
G04:AMPARAMS|DCode=16|XSize=0.6mm|YSize=0.7mm|CornerRadius=0.075mm|HoleSize=0mm|Usage=FLASHONLY|Rotation=180.000|XOffset=0mm|YOffset=0mm|HoleType=Round|Shape=RoundedRectangle|*
%AMROUNDEDRECTD16*
21,1,0.60000,0.55000,0,0,180.0*
21,1,0.45000,0.70000,0,0,180.0*
1,1,0.15000,-0.22500,0.27500*
1,1,0.15000,0.22500,0.27500*
1,1,0.15000,0.22500,-0.27500*
1,1,0.15000,-0.22500,-0.27500*
%
%ADD16ROUNDEDRECTD16*%
G04:AMPARAMS|DCode=17|XSize=0.6mm|YSize=0.7mm|CornerRadius=0.075mm|HoleSize=0mm|Usage=FLASHONLY|Rotation=90.000|XOffset=0mm|YOffset=0mm|HoleType=Round|Shape=RoundedRectangle|*
%AMROUNDEDRECTD17*
21,1,0.60000,0.55000,0,0,90.0*
21,1,0.45000,0.70000,0,0,90.0*
1,1,0.15000,0.27500,0.22500*
1,1,0.15000,0.27500,-0.22500*
1,1,0.15000,-0.27500,-0.22500*
1,1,0.15000,-0.27500,0.22500*
%
%ADD17ROUNDEDRECTD17*%
G04:AMPARAMS|DCode=18|XSize=0.8mm|YSize=1mm|CornerRadius=0.1mm|HoleSize=0mm|Usage=FLASHONLY|Rotation=180.000|XOffset=0mm|YOffset=0mm|HoleType=Round|Shape=RoundedRectangle|*
%AMROUNDEDRECTD18*
21,1,0.80000,0.80000,0,0,180.0*
21,1,0.60000,1.00000,0,0,180.0*
1,1,0.20000,-0.30000,0.40000*
1,1,0.20000,0.30000,0.40000*
1,1,0.20000,0.30000,-0.40000*
1,1,0.20000,-0.30000,-0.40000*
%
%ADD18ROUNDEDRECTD18*%
%ADD19O,0.25000X0.80000*%
%ADD20O,0.80000X0.25000*%
%ADD21R,5.60000X5.60000*%
G04:AMPARAMS|DCode=22|XSize=0.6mm|YSize=0.7mm|CornerRadius=0.075mm|HoleSize=0mm|Usage=FLASHONLY|Rotation=315.000|XOffset=0mm|YOffset=0mm|HoleType=Round|Shape=RoundedRectangle|*
%AMROUNDEDRECTD22*
21,1,0.60000,0.55000,0,0,315.0*
21,1,0.45000,0.70000,0,0,315.0*
1,1,0.15000,-0.03536,-0.35355*
1,1,0.15000,-0.35355,-0.03536*
1,1,0.15000,0.03536,0.35355*
1,1,0.15000,0.35355,0.03536*
%
%ADD22ROUNDEDRECTD22*%
%TA.AperFunction,TestPad*%
G04:AMPARAMS|DCode=23|XSize=0.3mm|YSize=1.15mm|CornerRadius=0.0375mm|HoleSize=0mm|Usage=FLASHONLY|Rotation=180.000|XOffset=0mm|YOffset=0mm|HoleType=Round|Shape=RoundedRectangle|*
%AMROUNDEDRECTD23*
21,1,0.30000,1.07500,0,0,180.0*
21,1,0.22500,1.15000,0,0,180.0*
1,1,0.07500,-0.11250,0.53750*
1,1,0.07500,0.11250,0.53750*
1,1,0.07500,0.11250,-0.53750*
1,1,0.07500,-0.11250,-0.53750*
%
%ADD23ROUNDEDRECTD23*%
G04:AMPARAMS|DCode=24|XSize=0.6mm|YSize=1.15mm|CornerRadius=0.075mm|HoleSize=0mm|Usage=FLASHONLY|Rotation=180.000|XOffset=0mm|YOffset=0mm|HoleType=Round|Shape=RoundedRectangle|*
%AMROUNDEDRECTD24*
21,1,0.60000,1.00000,0,0,180.0*
21,1,0.45000,1.15000,0,0,180.0*
1,1,0.15000,-0.22500,0.50000*
1,1,0.15000,0.22500,0.50000*
1,1,0.15000,0.22500,-0.50000*
1,1,0.15000,-0.22500,-0.50000*
%
%ADD24ROUNDEDRECTD24*%
%TA.AperFunction,ConnectorPad*%
%ADD25R,0.65000X1.05000*%
%TA.AperFunction,SMDPad,CuDef*%
G04:AMPARAMS|DCode=26|XSize=0.6mm|YSize=0.7mm|CornerRadius=0.075mm|HoleSize=0mm|Usage=FLASHONLY|Rotation=45.000|XOffset=0mm|YOffset=0mm|HoleType=Round|Shape=RoundedRectangle|*
%AMROUNDEDRECTD26*
21,1,0.60000,0.55000,0,0,45.0*
21,1,0.45000,0.70000,0,0,45.0*
1,1,0.15000,0.35355,-0.03536*
1,1,0.15000,0.03536,-0.35355*
1,1,0.15000,-0.35355,0.03536*
1,1,0.15000,-0.03536,0.35355*
%
%ADD26ROUNDEDRECTD26*%
G04:AMPARAMS|DCode=27|XSize=1mm|YSize=1.8mm|CornerRadius=0.05mm|HoleSize=0mm|Usage=FLASHONLY|Rotation=135.000|XOffset=0mm|YOffset=0mm|HoleType=Round|Shape=RoundedRectangle|*
%AMROUNDEDRECTD27*
21,1,1.00000,1.70000,0,0,135.0*
21,1,0.90000,1.80000,0,0,135.0*
1,1,0.10000,0.28284,0.91924*
1,1,0.10000,0.91924,0.28284*
1,1,0.10000,-0.28284,-0.91924*
1,1,0.10000,-0.91924,-0.28284*
%
%ADD27ROUNDEDRECTD27*%
G04:AMPARAMS|DCode=28|XSize=1.3mm|YSize=1.1mm|CornerRadius=0.055mm|HoleSize=0mm|Usage=FLASHONLY|Rotation=255.000|XOffset=0mm|YOffset=0mm|HoleType=Round|Shape=RoundedRectangle|*
%AMROUNDEDRECTD28*
21,1,1.30000,0.99000,0,0,255.0*
21,1,1.19000,1.10000,0,0,255.0*
1,1,0.11000,-0.63213,-0.44661*
1,1,0.11000,-0.32414,0.70284*
1,1,0.11000,0.63213,0.44661*
1,1,0.11000,0.32414,-0.70284*
%
%ADD28ROUNDEDRECTD28*%
G04:AMPARAMS|DCode=29|XSize=0.8mm|YSize=1mm|CornerRadius=0.1mm|HoleSize=0mm|Usage=FLASHONLY|Rotation=270.000|XOffset=0mm|YOffset=0mm|HoleType=Round|Shape=RoundedRectangle|*
%AMROUNDEDRECTD29*
21,1,0.80000,0.80000,0,0,270.0*
21,1,0.60000,1.00000,0,0,270.0*
1,1,0.20000,-0.40000,-0.30000*
1,1,0.20000,-0.40000,0.30000*
1,1,0.20000,0.40000,0.30000*
1,1,0.20000,0.40000,-0.30000*
%
%ADD29ROUNDEDRECTD29*%
%ADD30R,0.65000X1.25000*%
G04:AMPARAMS|DCode=31|XSize=0.6mm|YSize=0.7mm|CornerRadius=0.075mm|HoleSize=0mm|Usage=FLASHONLY|Rotation=345.000|XOffset=0mm|YOffset=0mm|HoleType=Round|Shape=RoundedRectangle|*
%AMROUNDEDRECTD31*
21,1,0.60000,0.55000,0,0,345.0*
21,1,0.45000,0.70000,0,0,345.0*
1,1,0.15000,0.14616,-0.32387*
1,1,0.15000,-0.28851,-0.20740*
1,1,0.15000,-0.14616,0.32387*
1,1,0.15000,0.28851,0.20740*
%
%ADD31ROUNDEDRECTD31*%
%TA.AperFunction,Conductor*%
%ADD32C,1.00000*%
%ADD33C,0.45000*%
%ADD34C,0.50000*%
%ADD35C,0.25000*%
%ADD36C,0.80000*%
%ADD37C,0.60000*%
%ADD38C,0.30000*%
%ADD39C,0.35000*%
%ADD40C,0.28000*%
%TA.AperFunction,ViaPad*%
%ADD41C,3.50000*%
%TA.AperFunction,ComponentPad*%
%ADD42C,2.00000*%
%TA.AperFunction,TestPad*%
%ADD43O,1.00000X2.10000*%
%ADD44C,0.65000*%
%ADD45O,1.00000X1.80000*%
%TA.AperFunction,ViaPad*%
%ADD46C,0.40000*%
%ADD47C,0.60000*%
G36*
X8649999Y11399999D02*
X8650000Y11399999D01*
X8650000Y11399999D01*
X8682771Y11399999D01*
X8747754Y11391444D01*
X8811064Y11374481D01*
X8871619Y11349398D01*
X8928381Y11316627D01*
X8980381Y11276726D01*
X9026727Y11230380D01*
X9066627Y11178381D01*
X9099399Y11121618D01*
X9124481Y11061064D01*
X9141445Y10997754D01*
X9150000Y10932771D01*
X9149999Y10899999D01*
X9150000Y7399999D01*
X9149999Y7399999D01*
X9150000Y7367227D01*
X9141445Y7302245D01*
X9124481Y7238934D01*
X9099398Y7178380D01*
X9066627Y7121618D01*
X9026726Y7069619D01*
X8980380Y7023272D01*
X8928381Y6983372D01*
X8871619Y6950600D01*
X8811064Y6925518D01*
X8747754Y6908554D01*
X8682771Y6899999D01*
X8649999Y6899999D01*
X8142166D01*
X8136607Y6910039D01*
X8134886Y6919999D01*
X8214348Y6999461D01*
X8227500D01*
X8238230Y7001595D01*
X8247326Y7007673D01*
X8253404Y7016770D01*
X8255539Y7027500D01*
Y7072499D01*
X8253404Y7083229D01*
X8247326Y7092326D01*
Y7107674D01*
X8253404Y7116770D01*
X8255539Y7127500D01*
Y7153676D01*
X8319363Y7217500D01*
X8319946D01*
X8338323Y7225112D01*
X8352388Y7239177D01*
X8360000Y7257554D01*
Y7277446D01*
X8352388Y7295823D01*
X8338323Y7309888D01*
X8319946Y7317500D01*
X8300054D01*
X8281677Y7309888D01*
X8267612Y7295823D01*
X8260000Y7277446D01*
Y7257554D01*
X8261668Y7253529D01*
X8220613Y7212474D01*
X8216243Y7211021D01*
X8193845Y7213016D01*
X8080000Y7326861D01*
Y7384999D01*
X7935000D01*
Y7365636D01*
X7665000D01*
Y7384999D01*
X7520000D01*
Y7361886D01*
X7500961D01*
X7497326Y7367326D01*
X7488230Y7373404D01*
X7477500Y7375538D01*
X7422500D01*
X7411770Y7373404D01*
X7402674Y7367326D01*
X7396596Y7358230D01*
X7394461Y7347500D01*
Y7302500D01*
X7396596Y7291770D01*
X7402674Y7282674D01*
Y7267326D01*
X7396596Y7258230D01*
X7394461Y7247500D01*
Y7234999D01*
X7450000D01*
X7505538D01*
Y7247500D01*
X7503404Y7258230D01*
X7497946Y7266398D01*
X7498380Y7268069D01*
X7503459Y7271648D01*
X7520000Y7279999D01*
X7665000D01*
Y7299363D01*
X7935000D01*
Y7279999D01*
X8033138D01*
X8144363Y7168774D01*
Y7167500D01*
X8144461Y7167007D01*
Y7127500D01*
X8146596Y7116770D01*
X8152674Y7107673D01*
Y7092326D01*
X8146596Y7083229D01*
X8144461Y7072499D01*
Y7059347D01*
X8080995Y6995881D01*
X7362937D01*
X7352810Y7015881D01*
X7353404Y7016770D01*
X7355539Y7027500D01*
Y7072499D01*
X7353404Y7083229D01*
X7347326Y7092326D01*
Y7107674D01*
X7353404Y7116770D01*
X7355539Y7127500D01*
Y7172499D01*
X7353404Y7183229D01*
X7347326Y7192326D01*
X7338230Y7198404D01*
X7333136Y7199417D01*
Y7262426D01*
X7342388Y7271677D01*
X7350000Y7290054D01*
Y7309946D01*
X7342388Y7328323D01*
X7328323Y7342388D01*
X7309946Y7350000D01*
X7290054D01*
X7271677Y7342388D01*
X7257612Y7328323D01*
X7250000Y7309946D01*
Y7290054D01*
X7253471Y7281675D01*
X7236515Y7270346D01*
X7180000Y7326861D01*
Y7384999D01*
X7035000D01*
Y7365636D01*
X6765000D01*
Y7384999D01*
X6620000D01*
Y7361886D01*
X6600961D01*
X6597326Y7367326D01*
X6588230Y7373404D01*
X6577500Y7375538D01*
X6522500D01*
X6511770Y7373404D01*
X6502674Y7367326D01*
X6496596Y7358230D01*
X6494461Y7347500D01*
Y7302500D01*
X6496596Y7291770D01*
X6502674Y7282674D01*
Y7267326D01*
X6496596Y7258230D01*
X6494461Y7247500D01*
Y7235000D01*
X6549999D01*
X6605538D01*
Y7247500D01*
X6603404Y7258230D01*
X6597946Y7266398D01*
X6598380Y7268069D01*
X6603459Y7271648D01*
X6620000Y7279999D01*
X6765000D01*
Y7299363D01*
X7035000D01*
Y7279999D01*
X7133138D01*
X7244363Y7168774D01*
Y7167500D01*
X7244461Y7167007D01*
Y7127500D01*
X7246596Y7116770D01*
X7252674Y7107673D01*
Y7092326D01*
X7246596Y7083229D01*
X7244461Y7072499D01*
Y7059347D01*
X7180995Y6995881D01*
X6462937D01*
X6452810Y7015881D01*
X6453404Y7016770D01*
X6455539Y7027500D01*
Y7072499D01*
X6453404Y7083229D01*
X6447326Y7092326D01*
Y7107674D01*
X6453404Y7116770D01*
X6455539Y7127500D01*
Y7172499D01*
X6453404Y7183229D01*
X6447326Y7192326D01*
X6438230Y7198404D01*
X6433136Y7199417D01*
Y7262426D01*
X6442388Y7271677D01*
X6450000Y7290054D01*
Y7309946D01*
X6442388Y7328323D01*
X6428323Y7342388D01*
X6409946Y7350000D01*
X6390054D01*
X6371677Y7342388D01*
X6357612Y7328323D01*
X6350000Y7309946D01*
Y7290054D01*
X6353471Y7281675D01*
X6336516Y7270346D01*
X6280000Y7326861D01*
Y7384999D01*
X6135000D01*
Y7365636D01*
X5865000D01*
Y7384999D01*
X5720000D01*
Y7361886D01*
X5700961D01*
X5697326Y7367326D01*
X5688230Y7373404D01*
X5677500Y7375538D01*
X5622500D01*
X5611770Y7373404D01*
X5602674Y7367326D01*
X5596596Y7358230D01*
X5594461Y7347500D01*
Y7302500D01*
X5596596Y7291770D01*
X5602674Y7282674D01*
Y7267326D01*
X5596596Y7258230D01*
X5594461Y7247500D01*
Y7234999D01*
X5650000D01*
X5705539D01*
Y7247500D01*
X5703404Y7258230D01*
X5697947Y7266398D01*
X5698381Y7268069D01*
X5703459Y7271647D01*
X5720000Y7279999D01*
X5865000D01*
Y7299363D01*
X6135000D01*
Y7279999D01*
X6233138D01*
X6344363Y7168774D01*
Y7167500D01*
X6344461Y7167007D01*
Y7127500D01*
X6346596Y7116770D01*
X6352674Y7107673D01*
Y7092326D01*
X6346596Y7083229D01*
X6344461Y7072499D01*
Y7064348D01*
X6275995Y6995881D01*
X5570527D01*
X5567425Y6999924D01*
X5552802Y7011144D01*
X5535774Y7018198D01*
X5526510Y7019417D01*
X5468104Y7077823D01*
Y7430255D01*
X5668768Y7630920D01*
X5672202Y7630000D01*
X5703798D01*
X5734318Y7638178D01*
X5761682Y7653976D01*
X5784024Y7676318D01*
X5799822Y7703682D01*
X5804647Y7721689D01*
X5825353D01*
X5830178Y7703682D01*
X5845976Y7676318D01*
X5868318Y7653976D01*
X5895681Y7638178D01*
X5926202Y7630000D01*
X5957798D01*
X5988318Y7638178D01*
X6015682Y7653976D01*
X6038024Y7676318D01*
X6053822Y7703682D01*
X6058647Y7721689D01*
X6079353D01*
X6084178Y7703682D01*
X6099976Y7676318D01*
X6122318Y7653976D01*
X6149681Y7638178D01*
X6180202Y7630000D01*
X6211798D01*
X6242318Y7638178D01*
X6269682Y7653976D01*
X6292024Y7676318D01*
X6307822Y7703682D01*
X6312647Y7721689D01*
X6333353D01*
X6338178Y7703682D01*
X6353976Y7676318D01*
X6376318Y7653976D01*
X6403681Y7638178D01*
X6434202Y7630000D01*
X6440000D01*
Y7750000D01*
Y7870000D01*
X6434202D01*
X6403681Y7861822D01*
X6376318Y7846024D01*
X6353976Y7823682D01*
X6338178Y7796319D01*
X6333353Y7778311D01*
X6312647D01*
X6307822Y7796319D01*
X6292024Y7823682D01*
X6269682Y7846024D01*
X6242318Y7861822D01*
X6230637Y7864953D01*
Y7886275D01*
X6443431Y8099069D01*
X6450614Y8109819D01*
X6453137Y8122500D01*
Y8392426D01*
X6462388Y8401677D01*
X6470000Y8420054D01*
Y8439946D01*
X6462388Y8458323D01*
X6448323Y8472388D01*
X6429946Y8480000D01*
X6410054D01*
X6391677Y8472388D01*
X6377612Y8458323D01*
X6370000Y8439946D01*
Y8420054D01*
X6377612Y8401677D01*
X6386864Y8392426D01*
Y8136226D01*
X6174069Y7923431D01*
X6166886Y7912681D01*
X6164363Y7900000D01*
Y7865756D01*
X6149681Y7861822D01*
X6122318Y7846024D01*
X6099976Y7823682D01*
X6084178Y7796319D01*
X6079353Y7778311D01*
X6058647D01*
X6053822Y7796319D01*
X6038024Y7823682D01*
X6027176Y7834530D01*
X6026079Y7861717D01*
X6313431Y8149069D01*
X6320614Y8159819D01*
X6323137Y8172500D01*
Y8392426D01*
X6332388Y8401677D01*
X6340000Y8420054D01*
Y8439946D01*
X6332388Y8458323D01*
X6318323Y8472388D01*
X6299946Y8480000D01*
X6280054D01*
X6261677Y8472388D01*
X6247612Y8458323D01*
X6240000Y8439946D01*
Y8420054D01*
X6247612Y8401677D01*
X6256864Y8392426D01*
Y8186226D01*
X5952053Y7881416D01*
X5944870Y7870665D01*
X5944738Y7870000D01*
X5926202D01*
X5895681Y7861822D01*
X5868318Y7846024D01*
X5845976Y7823682D01*
X5830178Y7796319D01*
X5825353Y7778311D01*
X5804647D01*
X5799822Y7796319D01*
X5784024Y7823682D01*
X5761682Y7846024D01*
X5734318Y7861822D01*
X5726214Y7863994D01*
Y7912461D01*
X5721558Y7935872D01*
X5708296Y7955719D01*
X5557164Y8106851D01*
X5563747Y8128553D01*
X5566290Y8129058D01*
X5583606Y8111743D01*
X5603452Y8098481D01*
X5626863Y8093825D01*
X5975000D01*
X5998411Y8098481D01*
X6018258Y8111743D01*
X6108258Y8201743D01*
X6121519Y8221589D01*
X6126176Y8245000D01*
Y8676962D01*
X6190637D01*
X6214048Y8681618D01*
X6233895Y8694880D01*
X6283258Y8744243D01*
X6296519Y8764089D01*
X6301176Y8787500D01*
Y9205000D01*
X6296519Y9228411D01*
X6283258Y9248258D01*
X6153258Y9378258D01*
X6133411Y9391519D01*
X6110000Y9396176D01*
X5800000D01*
X5776589Y9391519D01*
X5774114Y9389865D01*
X5766771Y9388404D01*
X5757674Y9382326D01*
X5747853D01*
X5730588Y9397464D01*
Y9494830D01*
X5839016Y9603258D01*
X5853590Y9590158D01*
X5847500Y9575457D01*
Y9559543D01*
X5853590Y9544842D01*
X5864842Y9533590D01*
X5879543Y9527500D01*
X5878125Y9508088D01*
X5843481D01*
X5840158Y9511410D01*
X5825456Y9517500D01*
X5809543D01*
X5794842Y9511410D01*
X5783590Y9500158D01*
X5777500Y9485457D01*
Y9469543D01*
X5783590Y9454842D01*
X5794842Y9443590D01*
X5809543Y9437500D01*
X5825456D01*
X5840158Y9443590D01*
X5843481Y9446912D01*
X6016661D01*
X6016662Y9446912D01*
X6028367Y9449241D01*
X6038291Y9455871D01*
X6046832Y9464412D01*
X6209830D01*
X6335871Y9338371D01*
X6345795Y9331741D01*
X6357500Y9329412D01*
X6357501Y9329412D01*
X6494999D01*
X6495000Y9329412D01*
X6506706Y9331741D01*
X6516629Y9338371D01*
X6576984Y9398726D01*
X6593264Y9388900D01*
X6594224Y9387682D01*
X6591896Y9370000D01*
X6594302Y9351727D01*
X6601355Y9334698D01*
X6612576Y9320076D01*
X6627198Y9308855D01*
X6644226Y9301802D01*
X6662500Y9299396D01*
X6680774Y9301802D01*
X6697802Y9308855D01*
X6710352Y9318486D01*
X6723567Y9303416D01*
X6642575Y9222425D01*
X6631355Y9207802D01*
X6624302Y9190774D01*
X6621896Y9172500D01*
Y9119245D01*
X6615075Y9112424D01*
X6603855Y9097802D01*
X6596802Y9080774D01*
X6594396Y9062500D01*
Y8785105D01*
X6574396Y8776486D01*
X6570588Y8780085D01*
Y9214019D01*
X6576410Y9219842D01*
X6582500Y9234543D01*
Y9250456D01*
X6576410Y9265158D01*
X6565158Y9276410D01*
X6550457Y9282500D01*
X6534543D01*
X6519842Y9276410D01*
X6508590Y9265158D01*
X6502500Y9250456D01*
Y9234543D01*
X6508590Y9219842D01*
X6509412Y9219019D01*
Y8773481D01*
X6503590Y8767658D01*
X6497500Y8752957D01*
Y8737043D01*
X6503590Y8722342D01*
X6514842Y8711090D01*
X6529543Y8705000D01*
X6545457D01*
X6560158Y8711090D01*
X6571410Y8722342D01*
X6574396Y8729550D01*
X6594396Y8725572D01*
Y8545000D01*
X6596802Y8526727D01*
X6603855Y8509698D01*
X6615075Y8495076D01*
X7260262Y7849889D01*
Y7829968D01*
X7253976Y7823682D01*
X7238178Y7796319D01*
X7230000Y7765799D01*
Y7734202D01*
X7238178Y7703682D01*
X7253976Y7676318D01*
X7276318Y7653976D01*
X7303681Y7638178D01*
X7334201Y7630000D01*
X7365798D01*
X7396318Y7638178D01*
X7423682Y7653976D01*
X7446024Y7676318D01*
X7461822Y7703682D01*
X7466647Y7721689D01*
X7487353D01*
X7492178Y7703682D01*
X7507976Y7676318D01*
X7530318Y7653976D01*
X7557681Y7638178D01*
X7588201Y7630000D01*
X7619798D01*
X7650318Y7638178D01*
X7677682Y7653976D01*
X7700024Y7676318D01*
X7715822Y7703682D01*
X7720647Y7721689D01*
X7741353D01*
X7746178Y7703682D01*
X7761976Y7676318D01*
X7784318Y7653976D01*
X7811681Y7638178D01*
X7842201Y7630000D01*
X7873798D01*
X7904318Y7638178D01*
X7931682Y7653976D01*
X7954024Y7676318D01*
X7969822Y7703682D01*
X7974647Y7721689D01*
X7995353D01*
X8000178Y7703682D01*
X8015976Y7676318D01*
X8038318Y7653976D01*
X8065681Y7638178D01*
X8096201Y7630000D01*
X8102000D01*
Y7750000D01*
Y7870000D01*
X8096201D01*
X8065681Y7861822D01*
X8038318Y7846024D01*
X8015976Y7823682D01*
X8000178Y7796319D01*
X7995353Y7778311D01*
X7974647D01*
X7969822Y7796319D01*
X7954024Y7823682D01*
X7931682Y7846024D01*
X7904318Y7861822D01*
X7891136Y7865355D01*
Y7966774D01*
X7993431Y8069069D01*
X8000614Y8079819D01*
X8003137Y8092500D01*
Y8254926D01*
X8012388Y8264177D01*
X8020000Y8282554D01*
Y8302446D01*
X8012388Y8320823D01*
X7998323Y8334888D01*
X7979946Y8342500D01*
X7960054D01*
X7951803Y8339082D01*
X7930794Y8349488D01*
X7930286Y8350170D01*
X7928649Y8360391D01*
X8046350Y8478093D01*
X8048590Y8476596D01*
X8059320Y8474461D01*
X8070050Y8476596D01*
X8079146Y8482674D01*
X8118037Y8521565D01*
X8124115Y8530661D01*
X8126250Y8541391D01*
X8124115Y8552121D01*
X8133773Y8565516D01*
X8140404Y8575439D01*
X8142733Y8587144D01*
X8142732Y8587146D01*
Y8720354D01*
X8142733Y8720356D01*
X8140404Y8732061D01*
X8133773Y8741985D01*
X8133773Y8741985D01*
X7961629Y8914129D01*
X7951705Y8920759D01*
X7940000Y8923088D01*
X7939999Y8923088D01*
X7736663D01*
X7718370Y8928169D01*
X7718287Y8929118D01*
X7736485Y8949119D01*
X7812612D01*
X7822500Y8945023D01*
Y8995000D01*
X7832500D01*
Y9005000D01*
X7882477D01*
X7874888Y9023323D01*
X7861347Y9036864D01*
X7861454Y9039730D01*
X7866067Y9056864D01*
X7896275D01*
X8420655Y8532483D01*
Y8437208D01*
X8423177Y8424527D01*
X8430361Y8413777D01*
X8721501Y8122637D01*
X8714678Y8110818D01*
X8706500Y8080298D01*
Y8048702D01*
X8714678Y8018182D01*
X8730476Y7990818D01*
X8752818Y7968476D01*
X8780182Y7952678D01*
X8810702Y7944500D01*
X8842298D01*
X8872818Y7952678D01*
X8900182Y7968476D01*
X8922524Y7990818D01*
X8938322Y8018182D01*
X8946500Y8048702D01*
Y8080298D01*
X8938322Y8110818D01*
X8922524Y8138182D01*
X8900182Y8160524D01*
X8872818Y8176322D01*
X8854811Y8181147D01*
Y8201853D01*
X8872818Y8206678D01*
X8900182Y8222476D01*
X8922524Y8244818D01*
X8938322Y8272182D01*
X8946500Y8302702D01*
Y8334298D01*
X8938322Y8364818D01*
X8922524Y8392182D01*
X8900182Y8414524D01*
X8872818Y8430322D01*
X8854811Y8435147D01*
Y8455853D01*
X8872818Y8460678D01*
X8900182Y8476476D01*
X8922524Y8498818D01*
X8938322Y8526182D01*
X8946500Y8556702D01*
Y8588298D01*
X8938322Y8618818D01*
X8922524Y8646182D01*
X8900182Y8668524D01*
X8872818Y8684322D01*
X8854811Y8689147D01*
Y8709853D01*
X8872818Y8714678D01*
X8900182Y8730476D01*
X8922524Y8752818D01*
X8938322Y8780182D01*
X8946500Y8810702D01*
Y8842298D01*
X8938322Y8872818D01*
X8922524Y8900182D01*
X8900182Y8922524D01*
X8872818Y8938322D01*
X8854811Y8943147D01*
Y8963853D01*
X8872818Y8968678D01*
X8900182Y8984476D01*
X8922524Y9006818D01*
X8938322Y9034182D01*
X8946500Y9064702D01*
Y9096298D01*
X8938322Y9126818D01*
X8922524Y9154182D01*
X8900182Y9176524D01*
X8872818Y9192322D01*
X8854811Y9197147D01*
Y9217853D01*
X8872818Y9222678D01*
X8900182Y9238476D01*
X8922524Y9260818D01*
X8938322Y9288182D01*
X8946500Y9318702D01*
Y9350298D01*
X8938322Y9380818D01*
X8922524Y9408182D01*
X8900182Y9430524D01*
X8872818Y9446322D01*
X8842298Y9454500D01*
X8810702D01*
X8780182Y9446322D01*
X8752818Y9430524D01*
X8745851Y9423557D01*
X8733477Y9435931D01*
X8722727Y9443114D01*
X8710046Y9445637D01*
X8267132D01*
X8258848Y9465637D01*
X8262388Y9469177D01*
X8270000Y9487554D01*
Y9507446D01*
X8262388Y9525823D01*
X8248323Y9539888D01*
X8229946Y9547500D01*
X8210054D01*
X8195612Y9541518D01*
X8185620Y9546227D01*
X8184592Y9546937D01*
X8177500Y9553995D01*
Y9569946D01*
X8169888Y9588323D01*
X8155823Y9602388D01*
X8137445Y9610000D01*
X8117554D01*
X8099177Y9602388D01*
X8090171Y9593382D01*
X8073216Y9604711D01*
X8077500Y9615054D01*
Y9634946D01*
X8069888Y9653323D01*
X8079583Y9671912D01*
X8090000D01*
Y9742500D01*
X8100000D01*
Y9752500D01*
X8160587D01*
Y9782500D01*
X8158259Y9794205D01*
X8151629Y9804129D01*
X8150979Y9804563D01*
Y9906820D01*
X8147099Y9926329D01*
X8136048Y9942868D01*
X8100900Y9978015D01*
X8084362Y9989066D01*
X8064853Y9992947D01*
X8035156D01*
X8030730Y9995904D01*
X8020000Y9998039D01*
X8007500D01*
Y9942500D01*
X7987500D01*
Y9998039D01*
X7975000D01*
X7954393Y10011528D01*
X7954019Y10013411D01*
X7943367Y10029352D01*
X8012839Y10098825D01*
X8723255D01*
X8730476Y10086318D01*
X8752818Y10063976D01*
X8780182Y10048178D01*
X8798189Y10043353D01*
Y10022647D01*
X8780182Y10017822D01*
X8752818Y10002024D01*
X8730476Y9979682D01*
X8714678Y9952318D01*
X8706500Y9921798D01*
Y9916000D01*
X8826500D01*
X8946500D01*
Y9921798D01*
X8938322Y9952318D01*
X8922524Y9979682D01*
X8900182Y10002024D01*
X8872818Y10017822D01*
X8854811Y10022647D01*
Y10043353D01*
X8872818Y10048178D01*
X8900182Y10063976D01*
X8922524Y10086318D01*
X8938322Y10113682D01*
X8946500Y10144202D01*
Y10175798D01*
X8938322Y10206318D01*
X8922524Y10233682D01*
X8900182Y10256024D01*
X8872818Y10271822D01*
X8854811Y10276647D01*
Y10297353D01*
X8872818Y10302178D01*
X8900182Y10317976D01*
X8922524Y10340318D01*
X8938322Y10367682D01*
X8946500Y10398202D01*
Y10429798D01*
X8938322Y10460318D01*
X8922524Y10487682D01*
X8900182Y10510024D01*
X8872818Y10525822D01*
X8854811Y10530647D01*
Y10551353D01*
X8872818Y10556178D01*
X8900182Y10571976D01*
X8922524Y10594318D01*
X8938322Y10621682D01*
X8946500Y10652202D01*
Y10658000D01*
X8826500D01*
X8706500D01*
Y10652202D01*
X8714678Y10621682D01*
X8730476Y10594318D01*
X8752818Y10571976D01*
X8780182Y10556178D01*
X8798189Y10551353D01*
Y10530647D01*
X8780182Y10525822D01*
X8752818Y10510024D01*
X8730476Y10487682D01*
X8714678Y10460318D01*
X8706500Y10429798D01*
Y10398202D01*
X8714678Y10367682D01*
X8730476Y10340318D01*
X8752818Y10317976D01*
X8780182Y10302178D01*
X8798189Y10297353D01*
Y10276647D01*
X8780182Y10271822D01*
X8752818Y10256024D01*
X8730476Y10233682D01*
X8723255Y10221175D01*
X8173329D01*
X8171359Y10241175D01*
X8174205Y10241742D01*
X8184128Y10248372D01*
X8190759Y10258295D01*
X8193087Y10270001D01*
Y10307046D01*
X8193675Y10310001D01*
Y10477501D01*
X8193087Y10480456D01*
Y10517501D01*
X8190759Y10529206D01*
X8185882Y10536506D01*
Y10587500D01*
X8182389Y10605058D01*
X8172443Y10619943D01*
X8160257Y10632130D01*
X8156138Y10642073D01*
X8142073Y10656138D01*
X8132130Y10660257D01*
X8119943Y10672443D01*
X8105058Y10682389D01*
X8087500Y10685882D01*
X7998292D01*
X7997326Y10687326D01*
X7995881Y10688292D01*
Y10734951D01*
X8009076Y10742987D01*
X8015881Y10745408D01*
X8031226Y10739052D01*
X8039500Y10737963D01*
Y10862251D01*
X8049500D01*
Y10872251D01*
X8120104D01*
Y10917251D01*
X8117698Y10935524D01*
X8110644Y10952553D01*
X8099424Y10967175D01*
X8084802Y10978395D01*
X8082465Y10979363D01*
X8086443Y10999363D01*
X8195583D01*
X8196596Y10994270D01*
X8202674Y10985174D01*
X8211770Y10979096D01*
X8222500Y10976961D01*
X8267500D01*
X8278230Y10979096D01*
X8279119Y10979689D01*
X8299119Y10969563D01*
Y10942389D01*
X8295023Y10932500D01*
X8394977D01*
X8390882Y10942389D01*
Y10990494D01*
X8393404Y10994270D01*
X8395539Y11005000D01*
Y11022500D01*
X8345000D01*
Y11042500D01*
X8395539D01*
Y11060000D01*
X8393404Y11070730D01*
X8390882Y11074505D01*
Y11105494D01*
X8393404Y11109270D01*
X8395539Y11120000D01*
Y11137500D01*
X8345000D01*
Y11147500D01*
X8335000D01*
Y11203039D01*
X8322500D01*
X8311770Y11200904D01*
X8302674Y11194826D01*
X8287326D01*
X8278230Y11200904D01*
X8267500Y11203039D01*
X8222500D01*
X8211770Y11200904D01*
X8202674Y11194826D01*
X8196596Y11185730D01*
X8195583Y11180637D01*
X8117199D01*
X8107336Y11200636D01*
X8110644Y11204949D01*
X8117698Y11221977D01*
X8120104Y11240251D01*
Y11270251D01*
X8049500D01*
X7978896D01*
Y11240251D01*
X7981302Y11221977D01*
X7988355Y11204949D01*
X7991664Y11200636D01*
X7981801Y11180637D01*
X7520000D01*
X7507319Y11178114D01*
X7496569Y11170931D01*
X7421569Y11095931D01*
X7414386Y11085181D01*
X7411863Y11072500D01*
Y10900821D01*
X7407529Y10894233D01*
X7399478Y10894205D01*
X7396898Y10895266D01*
X7381000Y10913118D01*
Y10922693D01*
X7373007Y10941989D01*
X7358239Y10956758D01*
X7338943Y10964750D01*
X7318057D01*
X7298761Y10956758D01*
X7283993Y10941989D01*
X7276000Y10922693D01*
Y10917502D01*
X7256104Y10917251D01*
X7253698Y10935524D01*
X7246645Y10952553D01*
X7235424Y10967175D01*
X7220802Y10978395D01*
X7203774Y10985449D01*
X7195500Y10986538D01*
Y10862251D01*
X7185500D01*
Y10852251D01*
X7114896D01*
Y10807250D01*
X7117302Y10788977D01*
X7124355Y10771948D01*
X7135576Y10757326D01*
X7150198Y10746106D01*
X7167226Y10739052D01*
X7179364Y10737455D01*
X7191807Y10724628D01*
X7195402Y10717778D01*
X7194177Y10712388D01*
X7180112Y10698323D01*
X7177761Y10692647D01*
X7120653Y10635539D01*
X7102500D01*
X7091770Y10633404D01*
X7082674Y10627326D01*
X7076596Y10618230D01*
X7074461Y10607500D01*
Y10595000D01*
X7130000D01*
Y10575000D01*
X7074461D01*
Y10562500D01*
X7068801Y10555604D01*
X7031101D01*
Y10561500D01*
X7009188D01*
Y10745783D01*
X7009189Y10745784D01*
X7006860Y10757489D01*
X7000230Y10767413D01*
X7000229Y10767413D01*
X6988514Y10779129D01*
X6988039Y10779446D01*
Y10810000D01*
X6985904Y10820730D01*
X6979827Y10829826D01*
X6970730Y10835904D01*
X6960000Y10838039D01*
X6915000D01*
X6904270Y10835904D01*
X6895174Y10829826D01*
X6879826D01*
X6870730Y10835904D01*
X6860000Y10838039D01*
X6815000D01*
X6804270Y10835904D01*
X6795174Y10829826D01*
X6789096Y10820730D01*
X6786962Y10810000D01*
Y10783321D01*
X6780687Y10779129D01*
X6780687Y10779128D01*
X6768972Y10767413D01*
X6762341Y10757489D01*
X6760013Y10745784D01*
X6760013Y10745783D01*
Y10561500D01*
X6738101D01*
Y10396500D01*
X6838719D01*
Y10360505D01*
X6828377Y10350163D01*
X6820187Y10348534D01*
X6805302Y10338588D01*
X6778214Y10311500D01*
X6738101D01*
Y10276531D01*
X6728088Y10266270D01*
X6708088Y10272377D01*
Y10620000D01*
X6705759Y10631705D01*
X6699129Y10641629D01*
X6699128Y10641629D01*
X6656629Y10684129D01*
X6646705Y10690759D01*
X6635000Y10693088D01*
X6634999Y10693088D01*
X6505000D01*
X6493295Y10690759D01*
X6483371Y10684129D01*
X6396742Y10597500D01*
X6390883D01*
X6376181Y10591410D01*
X6364929Y10580158D01*
X6361175Y10571096D01*
X6341175Y10575075D01*
Y10612160D01*
X6776832Y11047816D01*
X6776980Y11047846D01*
X6786076Y11053924D01*
X6792154Y11063020D01*
X6793615Y11070364D01*
X6795269Y11072839D01*
X6799925Y11096250D01*
X6795269Y11119661D01*
X6793615Y11122135D01*
X6792154Y11129480D01*
X6791560Y11130368D01*
X6801687Y11150368D01*
X6840813D01*
X6850940Y11130368D01*
X6850346Y11129480D01*
X6848211Y11118750D01*
Y11106250D01*
X6903750D01*
X6959289D01*
Y11118750D01*
X6957154Y11129480D01*
X6951076Y11138576D01*
Y11153924D01*
X6957154Y11163020D01*
X6959289Y11173750D01*
Y11218750D01*
X6957154Y11229480D01*
X6951076Y11238576D01*
X6941980Y11244654D01*
X6931250Y11246789D01*
X6876250D01*
X6865520Y11244654D01*
X6861744Y11242131D01*
X6780756D01*
X6776980Y11244654D01*
X6766250Y11246789D01*
X6711250D01*
X6700520Y11244654D01*
X6691424Y11238576D01*
X6685346Y11229480D01*
X6683211Y11218750D01*
Y11173750D01*
X6685346Y11163020D01*
X6691424Y11153924D01*
Y11138576D01*
X6685346Y11129480D01*
X6685316Y11129331D01*
X6359653Y10803668D01*
X6341175Y10811322D01*
Y10825637D01*
X6336519Y10849048D01*
X6323257Y10868895D01*
X6268895Y10923258D01*
X6260000Y10929201D01*
Y10965000D01*
X6240636D01*
Y11235000D01*
X6260000D01*
Y11380000D01*
X6155000D01*
Y11235000D01*
X6174363D01*
Y10965000D01*
X6155000D01*
Y10921926D01*
X6150981Y10915911D01*
X6146325Y10892500D01*
X6150981Y10869089D01*
X6155000Y10863075D01*
Y10820000D01*
X6199122D01*
X6218824Y10800298D01*
Y10637500D01*
Y10265339D01*
X6174661Y10221175D01*
X5056245D01*
X5049024Y10233682D01*
X5026682Y10256024D01*
X4999318Y10271822D01*
X4981311Y10276647D01*
Y10297353D01*
X4999318Y10302178D01*
X5026682Y10317976D01*
X5049024Y10340318D01*
X5064822Y10367682D01*
X5073000Y10398202D01*
Y10429798D01*
X5064822Y10460318D01*
X5049024Y10487682D01*
X5026682Y10510024D01*
X4999318Y10525822D01*
X4981311Y10530647D01*
Y10551353D01*
X4999318Y10556178D01*
X5026682Y10571976D01*
X5049024Y10594318D01*
X5064822Y10621682D01*
X5073000Y10652202D01*
Y10658000D01*
X4953000D01*
X4833000D01*
Y10652202D01*
X4841178Y10621682D01*
X4856976Y10594318D01*
X4879318Y10571976D01*
X4906682Y10556178D01*
X4924689Y10551353D01*
Y10530647D01*
X4906682Y10525822D01*
X4879318Y10510024D01*
X4856976Y10487682D01*
X4841178Y10460318D01*
X4833000Y10429798D01*
Y10398202D01*
X4841178Y10367682D01*
X4856976Y10340318D01*
X4879318Y10317976D01*
X4906682Y10302178D01*
X4924689Y10297353D01*
Y10276647D01*
X4906682Y10271822D01*
X4879318Y10256024D01*
X4856976Y10233682D01*
X4841178Y10206318D01*
X4833000Y10175798D01*
Y10144202D01*
X4841178Y10113682D01*
X4856976Y10086318D01*
X4879318Y10063976D01*
X4906682Y10048178D01*
X4924689Y10043353D01*
Y10022647D01*
X4906682Y10017822D01*
X4879318Y10002024D01*
X4856976Y9979682D01*
X4841178Y9952318D01*
X4833000Y9921798D01*
Y9916000D01*
X4953000D01*
X5073000D01*
Y9921798D01*
X5064822Y9952318D01*
X5049024Y9979682D01*
X5026682Y10002024D01*
X4999318Y10017822D01*
X4981311Y10022647D01*
Y10043353D01*
X4999318Y10048178D01*
X5026682Y10063976D01*
X5049024Y10086318D01*
X5056245Y10098825D01*
X5402679D01*
X5410332Y10080347D01*
X5211743Y9881757D01*
X5198481Y9861911D01*
X5193825Y9838500D01*
Y9100000D01*
Y8322500D01*
X5198481Y8299089D01*
X5211743Y8279243D01*
X5332380Y8158606D01*
X5603864Y7887122D01*
Y7835570D01*
X5591976Y7823682D01*
X5576178Y7796319D01*
X5568000Y7765799D01*
Y7734202D01*
X5568920Y7730769D01*
X5347576Y7509425D01*
X5336355Y7494802D01*
X5329302Y7477774D01*
X5326896Y7459500D01*
Y7048578D01*
X5329302Y7030305D01*
X5336355Y7013276D01*
X5347576Y6998654D01*
X5426230Y6919999D01*
X5417946Y6899999D01*
X5150000D01*
X5117228Y6899999D01*
X5052245Y6908554D01*
X4988935Y6925518D01*
X4928381Y6950601D01*
X4871619Y6983372D01*
X4819620Y7023272D01*
X4773273Y7069619D01*
X4733373Y7121618D01*
X4700601Y7178380D01*
X4675519Y7238934D01*
X4658555Y7302244D01*
X4650000Y7367227D01*
X4650000Y7399999D01*
Y10899999D01*
X4650001Y10899999D01*
X4650000Y10899999D01*
X4650000Y10932770D01*
X4658555Y10997753D01*
X4675519Y11061063D01*
X4700601Y11121618D01*
X4733373Y11178380D01*
X4773273Y11230380D01*
X4819619Y11276726D01*
X4871618Y11316626D01*
X4928381Y11349398D01*
X4988935Y11374480D01*
X5052245Y11391444D01*
X5117228Y11399999D01*
X5150000Y11399999D01*
X7142850Y11399999D01*
X7148336Y11386109D01*
X7148379Y11379999D01*
X7135576Y11370175D01*
X7124355Y11355552D01*
X7117302Y11338524D01*
X7114896Y11320250D01*
Y11290251D01*
X7185500D01*
X7256104D01*
Y11320250D01*
X7253698Y11338524D01*
X7246645Y11355552D01*
X7235424Y11370175D01*
X7222621Y11379999D01*
X7222664Y11386109D01*
X7228150Y11399999D01*
X8006850Y11400000D01*
X8012336Y11386109D01*
X8012379Y11380000D01*
X7999575Y11370175D01*
X7988355Y11355552D01*
X7981302Y11338524D01*
X7978896Y11320250D01*
Y11290251D01*
X8049500D01*
X8120104D01*
Y11320250D01*
X8117698Y11338524D01*
X8110644Y11355552D01*
X8099424Y11370175D01*
X8086620Y11380000D01*
X8086663Y11386109D01*
X8092149Y11400000D01*
X8100000D01*
X8649999Y11399999D01*
D02*
G37*
G36*
X8196596Y11109270D02*
X8201807Y11101470D01*
X8202674Y11100117D01*
Y11082699D01*
X8188783Y11065636D01*
X7802500D01*
X7789819Y11063114D01*
X7779069Y11055931D01*
X7721569Y10998431D01*
X7714386Y10987681D01*
X7711863Y10975000D01*
Y10889374D01*
X7703750Y10882716D01*
X7681250D01*
X7674718Y10881417D01*
X7673527Y10887403D01*
X7666012Y10898650D01*
X7643899Y10920763D01*
X7632653Y10928278D01*
X7619386Y10930916D01*
X7565614D01*
X7552347Y10928278D01*
X7541101Y10920763D01*
X7518987Y10898649D01*
X7511473Y10887403D01*
X7510282Y10881417D01*
X7503750Y10882716D01*
X7481250D01*
X7478136Y10885271D01*
Y11058774D01*
X7533726Y11114363D01*
X8195583D01*
X8196596Y11109270D01*
D02*
G37*
G36*
X7471983Y10728629D02*
X7481250Y10726785D01*
X7503750D01*
X7507834Y10723433D01*
Y10556859D01*
X7372136Y10421161D01*
X7351020Y10428329D01*
X7350698Y10430773D01*
X7343645Y10447802D01*
X7332425Y10462424D01*
X7259925Y10534924D01*
X7245302Y10546145D01*
X7228274Y10553198D01*
X7210000Y10555604D01*
X7197493D01*
X7190490Y10575604D01*
X7236613Y10621726D01*
X7250823Y10627612D01*
X7264888Y10641677D01*
X7269006Y10651620D01*
X7307500Y10690114D01*
X7314080Y10690094D01*
X7325870Y10686499D01*
X7329698Y10684027D01*
X7330401Y10680491D01*
X7333191Y10676316D01*
X7335112Y10671677D01*
X7338663Y10668126D01*
X7341452Y10663952D01*
Y10663952D01*
X7345627Y10661162D01*
X7349177Y10657612D01*
X7353816Y10655691D01*
X7357991Y10652901D01*
X7362916Y10651922D01*
X7367554Y10650000D01*
X7372576D01*
X7377500Y10649021D01*
X7382424Y10650000D01*
X7387446D01*
X7392085Y10651922D01*
X7397009Y10652901D01*
X7401184Y10655690D01*
X7405823Y10657612D01*
X7409374Y10661163D01*
X7413548Y10663952D01*
X7416337Y10668126D01*
X7419888Y10671677D01*
X7421810Y10676316D01*
X7424599Y10680491D01*
X7425578Y10685415D01*
X7427500Y10690054D01*
Y10695076D01*
X7428479Y10700000D01*
Y10724511D01*
X7431250Y10726785D01*
X7453750D01*
X7463017Y10728629D01*
X7467500Y10731624D01*
X7471983Y10728629D01*
D02*
G37*
G36*
X7650499Y10648416D02*
X7648825Y10640000D01*
X7653481Y10616589D01*
X7666743Y10596743D01*
X7686589Y10583481D01*
X7710000Y10578825D01*
X7784396D01*
Y10509438D01*
X7784241Y10509206D01*
X7781912Y10497500D01*
Y10467624D01*
X7781896Y10467501D01*
X7781912Y10467377D01*
Y10446221D01*
X7761912Y10437936D01*
X7737424Y10462424D01*
X7722802Y10473645D01*
X7705774Y10480698D01*
X7687500Y10483104D01*
X7669226Y10480698D01*
X7652198Y10473645D01*
X7637576Y10462424D01*
X7626355Y10447802D01*
X7619302Y10430773D01*
X7616896Y10412500D01*
X7619302Y10394226D01*
X7626355Y10377198D01*
X7637576Y10362575D01*
X7732575Y10267576D01*
X7747197Y10256356D01*
X7764226Y10249303D01*
X7782499Y10246897D01*
X7933079D01*
X7940794Y10241742D01*
X7952500Y10239413D01*
X7976670D01*
X7978640Y10219413D01*
X7964089Y10216519D01*
X7944242Y10203257D01*
X7830637Y10089652D01*
X7810637Y10097936D01*
Y10137500D01*
X7808114Y10150181D01*
X7800931Y10160931D01*
X7767500Y10194362D01*
Y10195457D01*
X7761410Y10210158D01*
X7750158Y10221410D01*
X7735456Y10227500D01*
X7719543D01*
X7704842Y10221410D01*
X7693590Y10210158D01*
X7687500Y10195457D01*
Y10179544D01*
X7693590Y10164842D01*
X7704842Y10153590D01*
X7707292Y10152575D01*
X7709084Y10147500D01*
X7694936Y10127500D01*
X7694543D01*
X7683137Y10122775D01*
X7670559Y10127845D01*
X7663137Y10132989D01*
Y10236568D01*
X7663910Y10237342D01*
X7670000Y10252044D01*
Y10267957D01*
X7663910Y10282658D01*
X7652658Y10293910D01*
X7637957Y10300000D01*
X7622043D01*
X7608991Y10294593D01*
X7603076Y10297686D01*
X7596150Y10303814D01*
X7592500Y10307353D01*
Y10322956D01*
X7586410Y10337658D01*
X7575158Y10348910D01*
X7560457Y10355000D01*
X7544543D01*
X7529842Y10348910D01*
X7518590Y10337658D01*
X7512500Y10322956D01*
Y10307043D01*
X7518590Y10292342D01*
X7519363Y10291568D01*
Y10258283D01*
X7499363Y10249999D01*
X7477500Y10271862D01*
Y10272957D01*
X7471410Y10287658D01*
X7460158Y10298910D01*
X7450805Y10302785D01*
X7444962Y10318709D01*
X7444735Y10325000D01*
X7587722Y10467987D01*
X7587723Y10467987D01*
X7617012Y10497277D01*
X7624527Y10508523D01*
X7627166Y10521789D01*
Y10542498D01*
X7627166Y10542499D01*
Y10663025D01*
X7634544Y10664939D01*
X7650499Y10648416D01*
D02*
G37*
G36*
X7232576Y10362575D02*
X7247198Y10351355D01*
X7264227Y10344302D01*
X7269959Y10343547D01*
X7273074Y10340981D01*
X7283737Y10323521D01*
X7283812Y10322415D01*
X7282834Y10317500D01*
Y10153660D01*
X7280820Y10151316D01*
X7262834Y10141944D01*
X7255457Y10145000D01*
X7239544D01*
X7224842Y10138910D01*
X7213590Y10127658D01*
X7207500Y10112957D01*
Y10108507D01*
X7187500Y10104529D01*
X7186144Y10107802D01*
X7182314Y10112793D01*
X7172326Y10130174D01*
X7178404Y10139270D01*
X7180539Y10150000D01*
Y10162500D01*
X7125000D01*
Y10182500D01*
X7180539D01*
Y10195000D01*
X7178404Y10205730D01*
X7175980Y10209359D01*
Y10291384D01*
X7177500Y10295054D01*
Y10300075D01*
X7178480Y10305000D01*
X7177500Y10309925D01*
Y10314946D01*
X7175579Y10319584D01*
X7174599Y10324509D01*
X7171810Y10328683D01*
X7169888Y10333323D01*
X7166337Y10336874D01*
X7163548Y10341048D01*
X7159374Y10343837D01*
X7155823Y10347388D01*
X7151184Y10349310D01*
X7147009Y10352099D01*
X7144860Y10352526D01*
X7123443Y10373943D01*
X7108558Y10383889D01*
X7091000Y10387382D01*
X7052074D01*
X7035750Y10402588D01*
X7037055Y10414396D01*
X7180755D01*
X7232576Y10362575D01*
D02*
G37*
G36*
X6646912Y10607330D02*
Y10088481D01*
X6643590Y10085158D01*
X6637500Y10070457D01*
Y10054544D01*
X6643590Y10039842D01*
X6654842Y10028590D01*
X6669543Y10022500D01*
X6666706Y10003675D01*
X6593875D01*
X6589977Y10011464D01*
X6587744Y10023675D01*
X6596410Y10032342D01*
X6602500Y10047043D01*
Y10062957D01*
X6596410Y10077658D01*
X6594387Y10079682D01*
Y10535992D01*
X6600000Y10549544D01*
Y10565457D01*
X6593910Y10580158D01*
X6582658Y10591410D01*
X6567957Y10597500D01*
X6552044D01*
X6537342Y10591410D01*
X6526090Y10580158D01*
X6520000Y10565457D01*
Y10549544D01*
X6526090Y10534842D01*
X6528113Y10532818D01*
Y10076508D01*
X6522500Y10062957D01*
Y10047043D01*
X6528590Y10032342D01*
X6537256Y10023675D01*
X6535023Y10011464D01*
X6531125Y10003675D01*
X6442840D01*
X6286515Y10160000D01*
X6323257Y10196742D01*
X6336519Y10216589D01*
X6341175Y10240000D01*
Y10539926D01*
X6361175Y10543904D01*
X6364929Y10534842D01*
X6376181Y10523590D01*
X6390883Y10517500D01*
X6406796D01*
X6421497Y10523590D01*
X6432749Y10534842D01*
X6438839Y10549544D01*
Y10553081D01*
X6517670Y10631912D01*
X6622330D01*
X6646912Y10607330D01*
D02*
G37*
G36*
X6354398Y9919088D02*
X6347017Y9900123D01*
X6331087Y9898276D01*
X6312500Y9916862D01*
Y9917957D01*
X6306410Y9932658D01*
X6295158Y9943910D01*
X6280457Y9950000D01*
X6264543D01*
X6249842Y9943910D01*
X6238590Y9932658D01*
X6232500Y9917957D01*
Y9902043D01*
X6238590Y9887342D01*
X6249842Y9876090D01*
X6264543Y9870000D01*
X6275299Y9855523D01*
X6267558Y9837976D01*
X6212782D01*
X6124129Y9926629D01*
X6114206Y9933259D01*
X6102500Y9935588D01*
X6102499Y9935588D01*
X5565981D01*
X5562658Y9938910D01*
X5547957Y9945000D01*
X5532044D01*
X5517342Y9938910D01*
X5506090Y9927658D01*
X5500000Y9912957D01*
Y9897043D01*
X5506090Y9882342D01*
X5517342Y9871090D01*
X5532044Y9865000D01*
X5547957D01*
X5562658Y9871090D01*
X5565981Y9874412D01*
X6089830D01*
X6156606Y9807636D01*
X6148953Y9789158D01*
X6004099D01*
X5959129Y9834129D01*
X5949206Y9840759D01*
X5937500Y9843088D01*
X5937499Y9843088D01*
X5460981D01*
X5457658Y9846410D01*
X5442957Y9852500D01*
X5427044D01*
X5412342Y9846410D01*
X5401090Y9835158D01*
X5395000Y9820457D01*
Y9804544D01*
X5401090Y9789842D01*
X5412342Y9778590D01*
X5427044Y9772500D01*
X5442957D01*
X5457658Y9778590D01*
X5460981Y9781912D01*
X5924830D01*
X5949820Y9756922D01*
X5942167Y9738444D01*
X5370624D01*
X5365158Y9743910D01*
X5350457Y9750000D01*
X5334544D01*
X5316176Y9764039D01*
Y9813160D01*
X5601840Y10098825D01*
X6174661D01*
X6354398Y9919088D01*
D02*
G37*
G36*
X6494105Y9557363D02*
X6414242Y9477500D01*
X6409543D01*
X6394842Y9471410D01*
X6383590Y9460158D01*
X6377500Y9445457D01*
Y9429543D01*
X6380256Y9422891D01*
X6372356Y9403559D01*
X6369478Y9400669D01*
X6361502Y9399256D01*
X6244129Y9516629D01*
X6234205Y9523259D01*
X6222500Y9525588D01*
X6222499Y9525588D01*
X6034162D01*
X6022457Y9523259D01*
X6012533Y9516629D01*
X6012533Y9516628D01*
X6003992Y9508088D01*
X5896875D01*
X5895457Y9527500D01*
X5910158Y9533590D01*
X5921410Y9544842D01*
X5927500Y9559543D01*
Y9564242D01*
X5939098Y9575841D01*
X6486452D01*
X6494105Y9557363D01*
D02*
G37*
G36*
X5808034Y9658791D02*
X5678371Y9529129D01*
X5671741Y9519205D01*
X5669412Y9507500D01*
X5669413Y9507499D01*
Y9388930D01*
X5666770Y9388404D01*
X5657674Y9382326D01*
X5639176Y9389561D01*
X5630588Y9398111D01*
Y9544020D01*
X5633910Y9547342D01*
X5640000Y9562043D01*
Y9577956D01*
X5633910Y9592658D01*
X5622658Y9603910D01*
X5607957Y9610000D01*
X5592043D01*
X5577342Y9603910D01*
X5566090Y9592658D01*
X5560000Y9577956D01*
Y9562043D01*
X5566090Y9547342D01*
X5569413Y9544019D01*
Y9390539D01*
X5567500D01*
X5556770Y9388404D01*
X5547674Y9382326D01*
X5532326D01*
X5523230Y9388404D01*
X5515886Y9389865D01*
X5513411Y9391519D01*
X5490000Y9396176D01*
X5466589Y9391519D01*
X5464115Y9389865D01*
X5456770Y9388404D01*
X5447674Y9382326D01*
X5441596Y9373230D01*
X5441566Y9373081D01*
X5334653Y9266168D01*
X5316176Y9273822D01*
Y9655960D01*
X5334544Y9670000D01*
X5350457D01*
X5365158Y9676090D01*
X5366338Y9677269D01*
X5800380D01*
X5808034Y9658791D01*
D02*
G37*
G36*
X8710491Y9365193D02*
X8706500Y9350298D01*
Y9318702D01*
X8714678Y9288182D01*
X8730476Y9260818D01*
X8752818Y9238476D01*
X8780182Y9222678D01*
X8798189Y9217853D01*
Y9197147D01*
X8780182Y9192322D01*
X8752818Y9176524D01*
X8730476Y9154182D01*
X8716929Y9130718D01*
X8703168Y9126201D01*
X8693670Y9125692D01*
X8459999Y9359364D01*
X8468283Y9379364D01*
X8696321D01*
X8710491Y9365193D01*
D02*
G37*
G36*
X5556770Y9281596D02*
X5567500Y9279462D01*
X5586912D01*
Y9065000D01*
X5580000D01*
Y8967500D01*
X5552500D01*
Y8930000D01*
X5532500D01*
Y8967500D01*
X5482500D01*
X5465770Y8975394D01*
X5462784Y8977389D01*
X5445226Y8980882D01*
X5427668Y8977389D01*
X5412783Y8967444D01*
X5360283Y8914943D01*
X5356204Y8908840D01*
X5349698Y8906145D01*
X5336176Y8895769D01*
X5331210Y8896607D01*
X5316176Y8903147D01*
Y9074661D01*
X5523081Y9281566D01*
X5523230Y9281596D01*
X5532326Y9287674D01*
X5547674D01*
X5556770Y9281596D01*
D02*
G37*
G36*
X8668569Y9057069D02*
X8679319Y9049886D01*
X8692000Y9047363D01*
X8711146D01*
X8714678Y9034182D01*
X8730476Y9006818D01*
X8752818Y8984476D01*
X8780182Y8968678D01*
X8798189Y8963853D01*
Y8943147D01*
X8780182Y8938322D01*
X8752818Y8922524D01*
X8730476Y8900182D01*
X8723574Y8888228D01*
X8703745Y8885617D01*
X8297499Y9291864D01*
X8305783Y9311864D01*
X8413775D01*
X8668569Y9057069D01*
D02*
G37*
G36*
X5766771Y9281596D02*
X5774114Y9280135D01*
X5776589Y9278481D01*
X5800000Y9273825D01*
X6084661D01*
X6178825Y9179661D01*
Y8812840D01*
X6165298Y8799313D01*
X6149703D01*
X6140757Y8808258D01*
X6132145Y8814012D01*
X6128665Y8838816D01*
X6132425Y8842576D01*
X6143645Y8857198D01*
X6150698Y8874227D01*
X6153104Y8892500D01*
Y9052500D01*
X6150698Y9070774D01*
X6143645Y9087802D01*
X6132425Y9102425D01*
X6023088Y9211761D01*
Y9212500D01*
X6020759Y9224205D01*
X6014129Y9234129D01*
X6004205Y9240759D01*
X5992500Y9243088D01*
X5962624D01*
X5962500Y9243104D01*
X5962377Y9243088D01*
X5932500D01*
X5920795Y9240759D01*
X5910871Y9234129D01*
X5904241Y9224205D01*
X5901913Y9212500D01*
Y9208528D01*
X5901355Y9207802D01*
X5876579Y9199033D01*
X5873088Y9200526D01*
Y9212500D01*
X5870759Y9224205D01*
X5864129Y9234129D01*
X5854205Y9240759D01*
X5842500Y9243088D01*
X5830526D01*
X5815001Y9246176D01*
X5810001D01*
X5794475Y9243088D01*
X5782500D01*
X5770795Y9240759D01*
X5760871Y9234129D01*
X5754241Y9224205D01*
X5751913Y9212500D01*
Y9200522D01*
X5748825Y9185000D01*
X5751913Y9169479D01*
Y9132500D01*
X5753825Y9122885D01*
Y9110000D01*
X5758482Y9086589D01*
X5759544Y9085000D01*
X5748853Y9065000D01*
X5698088D01*
Y9279462D01*
X5722500D01*
X5733230Y9281596D01*
X5742327Y9287674D01*
X5757674D01*
X5766771Y9281596D01*
D02*
G37*
G36*
X7011569Y8746569D02*
X7022319Y8739386D01*
X7035000Y8736863D01*
X7072468D01*
X7079094Y8726670D01*
X7081267Y8717378D01*
X7014541Y8650651D01*
X7009015Y8642382D01*
X7007075Y8632628D01*
X7009015Y8622873D01*
X7014541Y8614604D01*
X7070469Y8558675D01*
X7062185Y8538675D01*
X7012840D01*
X6919967Y8631548D01*
X6838480Y8713036D01*
Y8764534D01*
X6856957Y8772187D01*
X6901404Y8727741D01*
X6909673Y8722216D01*
X6919427Y8720275D01*
X6929182Y8722216D01*
X6937451Y8727741D01*
X6983924Y8774214D01*
X7011569Y8746569D01*
D02*
G37*
G36*
X8680214Y8815424D02*
X8690964Y8808241D01*
X8703645Y8805718D01*
X8707835D01*
X8714678Y8780182D01*
X8730476Y8752818D01*
X8752818Y8730476D01*
X8780182Y8714678D01*
X8798189Y8709853D01*
Y8689147D01*
X8780182Y8684322D01*
X8752818Y8668524D01*
X8745578Y8661284D01*
X8182498Y9224364D01*
X8183231Y9230969D01*
X8189344Y9244364D01*
X8251275D01*
X8680214Y8815424D01*
D02*
G37*
G36*
X5482500Y8879104D02*
Y8842500D01*
Y8742500D01*
Y8642500D01*
X5580000D01*
Y8545000D01*
X5580000Y8545000D01*
X5575393Y8526909D01*
X5561524Y8513039D01*
X5555000D01*
X5544270Y8510904D01*
X5535174Y8504827D01*
X5519826D01*
X5510730Y8510904D01*
X5500000Y8513039D01*
X5487500D01*
Y8457500D01*
Y8401962D01*
X5500000D01*
X5518825Y8387282D01*
Y8263039D01*
X5400977D01*
X5316176Y8347840D01*
Y8436853D01*
X5331758Y8443632D01*
X5336176Y8443976D01*
X5377576Y8402576D01*
X5392198Y8391356D01*
X5409227Y8384302D01*
X5427500Y8381896D01*
X5445774Y8384302D01*
X5462802Y8391356D01*
X5467500Y8394960D01*
Y8457500D01*
Y8513039D01*
X5466811D01*
X5455604Y8524245D01*
Y8845000D01*
X5453198Y8863274D01*
X5448860Y8873748D01*
X5462500Y8887388D01*
X5482500Y8879104D01*
D02*
G37*
G36*
X7357286Y8816957D02*
X7420206Y8754037D01*
X7420206Y8754036D01*
X7421626Y8753088D01*
X7421371Y8752138D01*
X7420656Y8741221D01*
X7424172Y8730861D01*
X7414757Y8711264D01*
X7411975Y8708824D01*
X7407733Y8700223D01*
X7398440Y8686315D01*
X7393784Y8662904D01*
Y8536553D01*
X7398440Y8513142D01*
X7411701Y8493296D01*
X7483979Y8421018D01*
X7473946Y8383575D01*
X7473283Y8373452D01*
X7476544Y8363846D01*
X7483232Y8356219D01*
X7492331Y8351732D01*
X7530485Y8341508D01*
X7552614Y8424094D01*
X7562273Y8421506D01*
X7564861Y8431165D01*
X7637788Y8411625D01*
X7650203Y8457959D01*
X7654074Y8459774D01*
X7670770Y8461390D01*
X7684129Y8433882D01*
X7657472Y8334399D01*
X7656809Y8324276D01*
X7660070Y8314670D01*
X7666758Y8307043D01*
X7675857Y8302556D01*
X7771483Y8276933D01*
X7781606Y8276270D01*
X7791212Y8279531D01*
X7798839Y8286219D01*
X7803326Y8295318D01*
X7834125Y8410263D01*
X7834789Y8420385D01*
X7831528Y8429992D01*
X7824839Y8437619D01*
X7815741Y8442106D01*
X7738030Y8462928D01*
X7715708Y8508896D01*
X7715906Y8509373D01*
X7715154Y8511186D01*
X7715706Y8513246D01*
X7735386Y8524719D01*
X7773539Y8514496D01*
X7795668Y8597083D01*
X7805327Y8594495D01*
X7807915Y8604154D01*
X7880843Y8584613D01*
X7893654Y8632425D01*
X7894317Y8642548D01*
X7891056Y8652155D01*
X7888845Y8654676D01*
X7890174Y8662527D01*
X7911452Y8669316D01*
X7911722Y8669263D01*
X7930970Y8650015D01*
Y8615887D01*
X7930886Y8615761D01*
X7928752Y8605031D01*
X7930886Y8594301D01*
X7935046Y8588076D01*
X7935627Y8585156D01*
X7948888Y8565309D01*
X7968735Y8552048D01*
X7971655Y8551467D01*
X7977880Y8547307D01*
X7988610Y8545173D01*
X7999462Y8534320D01*
X8001596Y8523590D01*
X8003093Y8521350D01*
X7868371Y8386629D01*
X7861741Y8376705D01*
X7859412Y8365000D01*
X7859412Y8364999D01*
Y8315170D01*
X7797330Y8253088D01*
X7557670D01*
X7409129Y8401629D01*
X7399205Y8408259D01*
X7387500Y8410588D01*
X7387499Y8410588D01*
X7307501D01*
X7307500Y8410588D01*
X7295795Y8408259D01*
X7285871Y8401629D01*
X7285871Y8401628D01*
X7226742Y8342500D01*
X7215054D01*
X7196677Y8334888D01*
X7182612Y8320823D01*
X7175000Y8302446D01*
Y8282554D01*
X7182612Y8264177D01*
X7196677Y8250112D01*
X7215054Y8242500D01*
X7234946D01*
X7253323Y8250112D01*
X7267388Y8264177D01*
X7275000Y8282554D01*
Y8299097D01*
X7283955Y8306620D01*
X7284022Y8306651D01*
X7284682Y8306501D01*
X7302500Y8293764D01*
Y8282554D01*
X7310112Y8264177D01*
X7324177Y8250112D01*
X7324363Y8250035D01*
Y8225000D01*
X7326886Y8212319D01*
X7334069Y8201569D01*
X7570863Y7964775D01*
Y7865355D01*
X7557681Y7861822D01*
X7530318Y7846024D01*
X7507976Y7823682D01*
X7492178Y7796319D01*
X7487353Y7778311D01*
X7466647D01*
X7461822Y7796319D01*
X7446024Y7823682D01*
X7423682Y7846024D01*
X7401470Y7858848D01*
Y7879134D01*
X7399064Y7897408D01*
X7392011Y7914436D01*
X7380790Y7929059D01*
X6735604Y8574245D01*
Y8614597D01*
X6755604Y8622882D01*
X6833452Y8545033D01*
X6944243Y8434242D01*
X6964089Y8420981D01*
X6987500Y8416325D01*
X7125528D01*
X7148939Y8420981D01*
X7168786Y8434242D01*
X7172965Y8440497D01*
X7176507Y8442863D01*
X7185345Y8451702D01*
X7146074Y8490974D01*
X7160216Y8505116D01*
X7199488Y8465844D01*
X7208326Y8474683D01*
X7214404Y8483780D01*
X7216539Y8494509D01*
X7227391Y8505362D01*
X7238121Y8507496D01*
X7247217Y8513574D01*
X7279037Y8545394D01*
X7285115Y8554490D01*
X7287250Y8565220D01*
X7285115Y8575950D01*
X7282230Y8580268D01*
X7296155Y8594193D01*
X7303338Y8604944D01*
X7305861Y8617625D01*
Y8625020D01*
X7322591Y8641750D01*
X7329046Y8646063D01*
X7367937Y8684954D01*
X7374015Y8694050D01*
X7376150Y8704780D01*
X7374015Y8715510D01*
X7367937Y8724607D01*
X7336117Y8756426D01*
X7327021Y8762504D01*
X7316291Y8764639D01*
X7305439Y8775491D01*
X7303304Y8786221D01*
X7301808Y8788461D01*
X7330060Y8816713D01*
X7341076Y8824836D01*
X7357286Y8816957D01*
D02*
G37*
G36*
X8710376Y8602762D02*
X8706500Y8588298D01*
Y8556702D01*
X8714678Y8526182D01*
X8730476Y8498818D01*
X8752818Y8476476D01*
X8780182Y8460678D01*
X8798189Y8455853D01*
Y8435147D01*
X8780182Y8430322D01*
X8768363Y8423499D01*
X8040976Y9150886D01*
X8048630Y9169363D01*
X8143775D01*
X8710376Y8602762D01*
D02*
G37*
G36*
X5964544Y8357500D02*
X5980457D01*
X5983825Y8358895D01*
X6003825Y8346125D01*
Y8270340D01*
X5949661Y8216176D01*
X5652203D01*
X5641176Y8227203D01*
Y8277443D01*
X5661176Y8285728D01*
X5684347Y8262557D01*
X5699231Y8252611D01*
X5716790Y8249119D01*
X5848211D01*
X5865770Y8252611D01*
X5880654Y8262557D01*
X5909944Y8291847D01*
X5919890Y8306731D01*
X5923382Y8324290D01*
Y8349208D01*
X5924827Y8350174D01*
X5928891Y8356256D01*
X5946451Y8362403D01*
X5951980Y8362704D01*
X5964544Y8357500D01*
D02*
G37*
G36*
X8721501Y8376637D02*
X8714678Y8364818D01*
X8706500Y8334298D01*
Y8302702D01*
X8714678Y8272182D01*
X8730476Y8244818D01*
X8752818Y8222476D01*
X8780182Y8206678D01*
X8798189Y8201853D01*
Y8181147D01*
X8780182Y8176322D01*
X8768363Y8169499D01*
X8486928Y8450934D01*
Y8546208D01*
X8484406Y8558889D01*
X8477223Y8569639D01*
X7952498Y9094364D01*
X7960783Y9114364D01*
X7983774D01*
X8721501Y8376637D01*
D02*
G37*
G36*
X7523371Y8200871D02*
X7533295Y8194241D01*
X7545000Y8191912D01*
X7809999D01*
X7810000Y8191912D01*
X7821705Y8194241D01*
X7831629Y8200871D01*
X7902734Y8271976D01*
X7926163Y8267675D01*
X7927612Y8264177D01*
X7936863Y8254926D01*
Y8106226D01*
X7834569Y8003931D01*
X7827386Y7993181D01*
X7824863Y7980500D01*
Y7865355D01*
X7811681Y7861822D01*
X7784318Y7846024D01*
X7761976Y7823682D01*
X7746178Y7796319D01*
X7741353Y7778311D01*
X7720647D01*
X7715822Y7796319D01*
X7700024Y7823682D01*
X7677682Y7846024D01*
X7650318Y7861822D01*
X7637136Y7865355D01*
Y7978500D01*
X7634614Y7991181D01*
X7627431Y8001931D01*
X7390636Y8238726D01*
Y8259926D01*
X7394888Y8264177D01*
X7402500Y8282554D01*
Y8293458D01*
X7422500Y8301743D01*
X7523371Y8200871D01*
D02*
G37*
%LPC*%
G36*
X5545000Y11380000D02*
X5502500D01*
Y11317500D01*
X5545000D01*
Y11380000D01*
D02*
G37*
G36*
X5482500D02*
X5440000D01*
Y11317500D01*
X5482500D01*
Y11380000D01*
D02*
G37*
G36*
X7256104Y11270251D02*
X7195500D01*
Y11170963D01*
X7203774Y11172053D01*
X7220802Y11179106D01*
X7235424Y11190326D01*
X7246645Y11204949D01*
X7253698Y11221977D01*
X7256104Y11240251D01*
Y11270251D01*
D02*
G37*
G36*
X7175500D02*
X7114896D01*
Y11240251D01*
X7117302Y11221977D01*
X7124355Y11204949D01*
X7135576Y11190326D01*
X7150198Y11179106D01*
X7167226Y11172053D01*
X7175500Y11170963D01*
Y11270251D01*
D02*
G37*
G36*
X8367500Y11203039D02*
X8355000D01*
Y11157500D01*
X8395539D01*
Y11175000D01*
X8393404Y11185730D01*
X8387326Y11194826D01*
X8378230Y11200904D01*
X8367500Y11203039D01*
D02*
G37*
G36*
X8869206Y11295000D02*
X8860000D01*
Y11110000D01*
X9045000D01*
Y11119206D01*
X9037506Y11156879D01*
X9022807Y11192367D01*
X9001466Y11224305D01*
X8974305Y11251466D01*
X8942367Y11272807D01*
X8906880Y11287506D01*
X8869206Y11295000D01*
D02*
G37*
G36*
X8840000D02*
X8830794D01*
X8793121Y11287506D01*
X8757633Y11272807D01*
X8725695Y11251466D01*
X8698534Y11224305D01*
X8677193Y11192367D01*
X8662494Y11156879D01*
X8655000Y11119206D01*
Y11110000D01*
X8840000D01*
Y11295000D01*
D02*
G37*
G36*
X4969206D02*
X4960000D01*
Y11110000D01*
X5145000D01*
Y11119206D01*
X5137506Y11156879D01*
X5122807Y11192367D01*
X5101466Y11224305D01*
X5074305Y11251466D01*
X5042367Y11272807D01*
X5006879Y11287506D01*
X4969206Y11295000D01*
D02*
G37*
G36*
X4940000D02*
X4930794D01*
X4893121Y11287506D01*
X4857633Y11272807D01*
X4825695Y11251466D01*
X4798534Y11224305D01*
X4777193Y11192367D01*
X4762494Y11156879D01*
X4755000Y11119206D01*
Y11110000D01*
X4940000D01*
Y11295000D01*
D02*
G37*
G36*
X6959289Y11086250D02*
X6903750D01*
X6848211D01*
Y11073750D01*
X6850346Y11063020D01*
X6856424Y11053924D01*
X6857868Y11052958D01*
Y11019371D01*
X6855023Y11012500D01*
X6954977D01*
X6949632Y11025406D01*
Y11052958D01*
X6951076Y11053924D01*
X6957154Y11063020D01*
X6959289Y11073750D01*
Y11086250D01*
D02*
G37*
G36*
X6954977Y10992500D02*
X6915000D01*
Y10952523D01*
X6933323Y10960112D01*
X6947388Y10974177D01*
X6954977Y10992500D01*
D02*
G37*
G36*
X6895000D02*
X6855023D01*
X6862612Y10974177D01*
X6876677Y10960112D01*
X6895000Y10952523D01*
Y10992500D01*
D02*
G37*
G36*
X9045000Y11090000D02*
X8860000D01*
Y10905000D01*
X8869206D01*
X8906880Y10912494D01*
X8942367Y10927193D01*
X8974305Y10948534D01*
X9001466Y10975695D01*
X9022807Y11007633D01*
X9037506Y11043120D01*
X9045000Y11080794D01*
Y11090000D01*
D02*
G37*
G36*
X8840000D02*
X8655000D01*
Y11080794D01*
X8662494Y11043120D01*
X8677193Y11007633D01*
X8698534Y10975695D01*
X8725695Y10948534D01*
X8757633Y10927193D01*
X8793121Y10912494D01*
X8830794Y10905000D01*
X8840000D01*
Y11090000D01*
D02*
G37*
G36*
X5145000D02*
X4960000D01*
Y10905000D01*
X4969206D01*
X5006879Y10912494D01*
X5042367Y10927193D01*
X5074305Y10948534D01*
X5101466Y10975695D01*
X5122807Y11007633D01*
X5137506Y11043120D01*
X5145000Y11080794D01*
Y11090000D01*
D02*
G37*
G36*
X4940000D02*
X4755000D01*
Y11080794D01*
X4762494Y11043120D01*
X4777193Y11007633D01*
X4798534Y10975695D01*
X4825695Y10948534D01*
X4857633Y10927193D01*
X4893121Y10912494D01*
X4930794Y10905000D01*
X4940000D01*
Y11090000D01*
D02*
G37*
G36*
X8394977Y10912500D02*
X8355000D01*
Y10872523D01*
X8373323Y10880112D01*
X8387388Y10894177D01*
X8394977Y10912500D01*
D02*
G37*
G36*
X8335000D02*
X8295023D01*
X8302612Y10894177D01*
X8316677Y10880112D01*
X8335000Y10872523D01*
Y10912500D01*
D02*
G37*
G36*
X7175501Y10986538D02*
X7167226Y10985449D01*
X7150198Y10978395D01*
X7135576Y10967175D01*
X7124355Y10952553D01*
X7117302Y10935524D01*
X7114896Y10917251D01*
Y10872251D01*
X7175501D01*
Y10986538D01*
D02*
G37*
G36*
X8120104Y10852251D02*
X8059500D01*
Y10737963D01*
X8067773Y10739052D01*
X8084802Y10746106D01*
X8099424Y10757326D01*
X8110644Y10771948D01*
X8117698Y10788977D01*
X8120104Y10807250D01*
Y10852251D01*
D02*
G37*
G36*
X6045000Y11380000D02*
X5940000D01*
Y11235000D01*
X5959363D01*
Y10965000D01*
X5940000D01*
Y10820000D01*
X5943772D01*
X5955609Y10801458D01*
X5955417Y10800000D01*
X5947674Y10794827D01*
X5941596Y10785730D01*
X5939461Y10775000D01*
Y10730001D01*
X5923111Y10713676D01*
X5860000D01*
X5836589Y10709019D01*
X5816742Y10695758D01*
Y10695757D01*
X5803481Y10675911D01*
X5798825Y10652500D01*
X5803481Y10629089D01*
X5816742Y10609242D01*
X5836589Y10595981D01*
X5860000Y10591325D01*
X5860001Y10591325D01*
X5995000D01*
X6018411Y10595981D01*
X6029421Y10603338D01*
X6033230Y10604096D01*
X6042326Y10610174D01*
X6048404Y10619270D01*
X6049865Y10626614D01*
X6051519Y10629089D01*
X6056175Y10652500D01*
X6051519Y10675911D01*
X6049865Y10678386D01*
X6048404Y10685730D01*
X6042326Y10694826D01*
Y10697163D01*
X6057110Y10714363D01*
X6081568D01*
X6082342Y10713590D01*
X6097043Y10707500D01*
X6112957D01*
X6127658Y10713590D01*
X6138910Y10724842D01*
X6145000Y10739543D01*
Y10755457D01*
X6138910Y10770158D01*
X6127658Y10781410D01*
X6112957Y10787500D01*
X6097043D01*
X6082342Y10781410D01*
X6081568Y10780637D01*
X6049417D01*
X6048404Y10785730D01*
X6042326Y10794827D01*
X6034583Y10800000D01*
X6034391Y10801458D01*
X6045000Y10820000D01*
X6045000D01*
Y10965000D01*
X6025637D01*
Y11235000D01*
X6045000D01*
Y11380000D01*
D02*
G37*
G36*
X5545000Y11297500D02*
X5492500D01*
X5440000D01*
Y11235000D01*
X5459363D01*
Y10965000D01*
X5440000D01*
Y10939068D01*
X5431355Y10927802D01*
X5424302Y10910774D01*
X5421896Y10892500D01*
Y10770000D01*
X5424302Y10751727D01*
X5431355Y10734698D01*
X5442576Y10720076D01*
X5457198Y10708855D01*
X5474227Y10701802D01*
X5492500Y10699396D01*
X5510774Y10701802D01*
X5527802Y10708855D01*
X5542425Y10720076D01*
X5553645Y10734698D01*
X5560698Y10751727D01*
X5563104Y10770000D01*
Y10892500D01*
X5560698Y10910774D01*
X5553645Y10927802D01*
X5545000Y10939068D01*
Y10965000D01*
X5525637D01*
Y11235000D01*
X5545000D01*
Y11297500D01*
D02*
G37*
G36*
X5760000Y11380000D02*
X5655000D01*
Y11235000D01*
X5676912D01*
Y10965000D01*
X5655000D01*
Y10820000D01*
X5676912D01*
Y10777623D01*
X5665112Y10765823D01*
X5657500Y10747446D01*
Y10727554D01*
X5665112Y10709177D01*
X5679177Y10695112D01*
X5697554Y10687500D01*
X5717446D01*
X5735823Y10695112D01*
X5749888Y10709177D01*
X5757500Y10727554D01*
Y10747446D01*
X5749888Y10765823D01*
X5738088Y10777623D01*
Y10820000D01*
X5760000D01*
Y10965000D01*
X5738088D01*
Y11235000D01*
X5760000D01*
Y11380000D01*
D02*
G37*
G36*
X8842298Y10788000D02*
X8836500D01*
Y10678000D01*
X8946500D01*
Y10683798D01*
X8938322Y10714318D01*
X8922524Y10741682D01*
X8900182Y10764024D01*
X8872818Y10779822D01*
X8842298Y10788000D01*
D02*
G37*
G36*
X4968798D02*
X4963000D01*
Y10678000D01*
X5073000D01*
Y10683798D01*
X5064822Y10714318D01*
X5049024Y10741682D01*
X5026682Y10764024D01*
X4999318Y10779822D01*
X4968798Y10788000D01*
D02*
G37*
G36*
X8816500D02*
X8810702D01*
X8780182Y10779822D01*
X8752818Y10764024D01*
X8730476Y10741682D01*
X8714678Y10714318D01*
X8706500Y10683798D01*
Y10678000D01*
X8816500D01*
Y10788000D01*
D02*
G37*
G36*
X4943000D02*
X4937202D01*
X4906682Y10779822D01*
X4879318Y10764024D01*
X4856976Y10741682D01*
X4841178Y10714318D01*
X4833000Y10683798D01*
Y10678000D01*
X4943000D01*
Y10788000D01*
D02*
G37*
G36*
X8946500Y9896000D02*
X8836500D01*
Y9786000D01*
X8842298D01*
X8872818Y9794178D01*
X8900182Y9809976D01*
X8922524Y9832318D01*
X8938322Y9859682D01*
X8946500Y9890202D01*
Y9896000D01*
D02*
G37*
G36*
X8816500D02*
X8706500D01*
Y9890202D01*
X8714678Y9859682D01*
X8730476Y9832318D01*
X8752818Y9809976D01*
X8780182Y9794178D01*
X8810702Y9786000D01*
X8816500D01*
Y9896000D01*
D02*
G37*
G36*
X5073000D02*
X4963000D01*
Y9786000D01*
X4968798D01*
X4999318Y9794178D01*
X5026682Y9809976D01*
X5049024Y9832318D01*
X5064822Y9859682D01*
X5073000Y9890202D01*
Y9896000D01*
D02*
G37*
G36*
X4943000D02*
X4833000D01*
Y9890202D01*
X4841178Y9859682D01*
X4856976Y9832318D01*
X4879318Y9809976D01*
X4906682Y9794178D01*
X4937202Y9786000D01*
X4943000D01*
Y9896000D01*
D02*
G37*
G36*
X8160587Y9732500D02*
X8110000D01*
Y9671912D01*
X8130000D01*
X8141705Y9674241D01*
X8151629Y9680871D01*
X8158259Y9690795D01*
X8160587Y9702500D01*
Y9732500D01*
D02*
G37*
G36*
X7882477Y8985000D02*
X7842500D01*
Y8945023D01*
X7860823Y8952612D01*
X7874888Y8966677D01*
X7882477Y8985000D01*
D02*
G37*
G36*
X4968798Y9454500D02*
X4937202D01*
X4906682Y9446322D01*
X4879318Y9430524D01*
X4856976Y9408182D01*
X4841178Y9380818D01*
X4833000Y9350298D01*
Y9318702D01*
X4841178Y9288182D01*
X4856976Y9260818D01*
X4879318Y9238476D01*
X4906682Y9222678D01*
X4924689Y9217853D01*
Y9197147D01*
X4906682Y9192322D01*
X4879318Y9176524D01*
X4856976Y9154182D01*
X4841178Y9126818D01*
X4833000Y9096298D01*
Y9064702D01*
X4841178Y9034182D01*
X4856976Y9006818D01*
X4879318Y8984476D01*
X4906682Y8968678D01*
X4924689Y8963853D01*
Y8943147D01*
X4906682Y8938322D01*
X4879318Y8922524D01*
X4856976Y8900182D01*
X4841178Y8872818D01*
X4833000Y8842298D01*
Y8810702D01*
X4841178Y8780182D01*
X4856976Y8752818D01*
X4879318Y8730476D01*
X4906682Y8714678D01*
X4924689Y8709853D01*
Y8689147D01*
X4906682Y8684322D01*
X4879318Y8668524D01*
X4856976Y8646182D01*
X4841178Y8618818D01*
X4833000Y8588298D01*
Y8556702D01*
X4841178Y8526182D01*
X4856976Y8498818D01*
X4879318Y8476476D01*
X4906682Y8460678D01*
X4924689Y8455853D01*
Y8435147D01*
X4906682Y8430322D01*
X4879318Y8414524D01*
X4856976Y8392182D01*
X4841178Y8364818D01*
X4833000Y8334298D01*
Y8302702D01*
X4841178Y8272182D01*
X4856976Y8244818D01*
X4879318Y8222476D01*
X4906682Y8206678D01*
X4924689Y8201853D01*
Y8181147D01*
X4906682Y8176322D01*
X4879318Y8160524D01*
X4856976Y8138182D01*
X4841178Y8110818D01*
X4833000Y8080298D01*
Y8048702D01*
X4841178Y8018182D01*
X4856976Y7990818D01*
X4879318Y7968476D01*
X4906682Y7952678D01*
X4937202Y7944500D01*
X4968798D01*
X4999318Y7952678D01*
X5026682Y7968476D01*
X5049024Y7990818D01*
X5064822Y8018182D01*
X5073000Y8048702D01*
Y8080298D01*
X5064822Y8110818D01*
X5049024Y8138182D01*
X5026682Y8160524D01*
X4999318Y8176322D01*
X4981311Y8181147D01*
Y8201853D01*
X4999318Y8206678D01*
X5026682Y8222476D01*
X5049024Y8244818D01*
X5064822Y8272182D01*
X5073000Y8302702D01*
Y8334298D01*
X5064822Y8364818D01*
X5049024Y8392182D01*
X5026682Y8414524D01*
X4999318Y8430322D01*
X4981311Y8435147D01*
Y8455853D01*
X4999318Y8460678D01*
X5026682Y8476476D01*
X5049024Y8498818D01*
X5064822Y8526182D01*
X5073000Y8556702D01*
Y8588298D01*
X5064822Y8618818D01*
X5049024Y8646182D01*
X5026682Y8668524D01*
X4999318Y8684322D01*
X4981311Y8689147D01*
Y8709853D01*
X4999318Y8714678D01*
X5026682Y8730476D01*
X5049024Y8752818D01*
X5064822Y8780182D01*
X5073000Y8810702D01*
Y8842298D01*
X5064822Y8872818D01*
X5049024Y8900182D01*
X5026682Y8922524D01*
X4999318Y8938322D01*
X4981311Y8943147D01*
Y8963853D01*
X4999318Y8968678D01*
X5026682Y8984476D01*
X5049024Y9006818D01*
X5064822Y9034182D01*
X5073000Y9064702D01*
Y9096298D01*
X5064822Y9126818D01*
X5049024Y9154182D01*
X5026682Y9176524D01*
X4999318Y9192322D01*
X4981311Y9197147D01*
Y9217853D01*
X4999318Y9222678D01*
X5026682Y9238476D01*
X5049024Y9260818D01*
X5064822Y9288182D01*
X5073000Y9318702D01*
Y9350298D01*
X5064822Y9380818D01*
X5049024Y9408182D01*
X5026682Y9430524D01*
X4999318Y9446322D01*
X4968798Y9454500D01*
D02*
G37*
G36*
X8127798Y7870000D02*
X8122000D01*
Y7760000D01*
X8232000D01*
Y7765799D01*
X8223822Y7796319D01*
X8208024Y7823682D01*
X8185682Y7846024D01*
X8158318Y7861822D01*
X8127798Y7870000D01*
D02*
G37*
G36*
X8232000Y7740000D02*
X8122000D01*
Y7630000D01*
X8127798D01*
X8158318Y7638178D01*
X8185682Y7653976D01*
X8208024Y7676318D01*
X8223822Y7703682D01*
X8232000Y7734202D01*
Y7740000D01*
D02*
G37*
G36*
X6570000Y7740000D02*
X6460000D01*
Y7630000D01*
X6465798D01*
X6496318Y7638178D01*
X6523682Y7653976D01*
X6546024Y7676318D01*
X6561822Y7703682D01*
X6570000Y7734202D01*
Y7740000D01*
D02*
G37*
G36*
X6679999Y8050603D02*
X6661725Y8048197D01*
X6644697Y8041144D01*
X6630074Y8029924D01*
X6469231Y7869081D01*
X6465798Y7870000D01*
X6460000D01*
Y7760000D01*
X6570000D01*
Y7765799D01*
X6569080Y7769232D01*
X6718672Y7918824D01*
X6830611D01*
X6846961Y7902499D01*
Y7857499D01*
X6849096Y7846769D01*
X6855174Y7837673D01*
X6856618Y7836707D01*
Y7773291D01*
X6855174Y7772326D01*
X6849096Y7763229D01*
X6846961Y7752499D01*
Y7707500D01*
X6849096Y7696770D01*
X6855174Y7687673D01*
Y7672326D01*
X6849096Y7663229D01*
X6846961Y7652499D01*
Y7607500D01*
X6849096Y7596770D01*
X6855174Y7587673D01*
X6864270Y7581595D01*
X6870613Y7580333D01*
Y7543824D01*
X6862612Y7535823D01*
X6855000Y7517445D01*
Y7497554D01*
X6862612Y7479177D01*
X6876677Y7465112D01*
X6895054Y7457500D01*
X6914946D01*
X6933323Y7465112D01*
X6947388Y7479177D01*
X6955000Y7497554D01*
Y7517445D01*
X6947388Y7535823D01*
X6936887Y7546324D01*
Y7580831D01*
X6940730Y7581595D01*
X6949826Y7587673D01*
X6955904Y7596770D01*
X6958039Y7607500D01*
Y7652499D01*
X6955904Y7663229D01*
X6949826Y7672326D01*
Y7687673D01*
X6955904Y7696770D01*
X6958039Y7707500D01*
Y7752499D01*
X6955904Y7763229D01*
X6949826Y7772326D01*
X6948382Y7773291D01*
Y7836707D01*
X6949826Y7837673D01*
X6955904Y7846769D01*
X6958039Y7857499D01*
Y7902499D01*
X6955904Y7913229D01*
X6949826Y7922326D01*
Y7937673D01*
X6955904Y7946769D01*
X6957365Y7954113D01*
X6959019Y7956588D01*
X6963675Y7979999D01*
X6959019Y8003410D01*
X6957365Y8005885D01*
X6955904Y8013229D01*
X6949826Y8022326D01*
X6940730Y8028404D01*
X6936921Y8029161D01*
X6925911Y8036518D01*
X6902500Y8041175D01*
X6715227D01*
X6698272Y8048197D01*
X6679999Y8050603D01*
D02*
G37*
G36*
X8869206Y7495000D02*
X8860000D01*
Y7310000D01*
X9045000D01*
Y7319206D01*
X9037506Y7356879D01*
X9022807Y7392367D01*
X9001466Y7424305D01*
X8974305Y7451466D01*
X8942367Y7472806D01*
X8906880Y7487506D01*
X8869206Y7495000D01*
D02*
G37*
G36*
X8840000D02*
X8830794D01*
X8793121Y7487506D01*
X8757633Y7472806D01*
X8725695Y7451466D01*
X8698534Y7424305D01*
X8677193Y7392367D01*
X8662494Y7356879D01*
X8655000Y7319206D01*
Y7310000D01*
X8840000D01*
Y7495000D01*
D02*
G37*
G36*
X4969206D02*
X4960000D01*
Y7310000D01*
X5145000D01*
Y7319206D01*
X5137506Y7356879D01*
X5122807Y7392367D01*
X5101466Y7424305D01*
X5074305Y7451466D01*
X5042367Y7472806D01*
X5006879Y7487506D01*
X4969206Y7495000D01*
D02*
G37*
G36*
X4940000D02*
X4930794D01*
X4893121Y7487506D01*
X4857633Y7472806D01*
X4825695Y7451466D01*
X4798534Y7424305D01*
X4777193Y7392367D01*
X4762494Y7356879D01*
X4755000Y7319206D01*
Y7310000D01*
X4940000D01*
Y7495000D01*
D02*
G37*
G36*
X7997500Y7170000D02*
X7935000D01*
Y7150636D01*
X7665000D01*
Y7170000D01*
X7602500D01*
Y7117500D01*
Y7065000D01*
X7665000D01*
Y7084363D01*
X7935000D01*
Y7065000D01*
X7997500D01*
Y7117500D01*
Y7170000D01*
D02*
G37*
G36*
X7097500D02*
X7035000D01*
Y7150636D01*
X6765000D01*
Y7170000D01*
X6702500D01*
Y7117500D01*
Y7065000D01*
X6765000D01*
Y7084363D01*
X7035000D01*
Y7065000D01*
X7097500D01*
Y7117500D01*
Y7170000D01*
D02*
G37*
G36*
X6197500D02*
X6135000D01*
Y7150636D01*
X5865000D01*
Y7170000D01*
X5802500D01*
Y7117500D01*
Y7065000D01*
X5865000D01*
Y7084363D01*
X6135000D01*
Y7065000D01*
X6197500D01*
Y7117500D01*
Y7170000D01*
D02*
G37*
G36*
X8080000D02*
X8017500D01*
Y7127500D01*
X8080000D01*
Y7170000D01*
D02*
G37*
G36*
X7180000D02*
X7117500D01*
Y7127500D01*
X7180000D01*
Y7170000D01*
D02*
G37*
G36*
X6280000D02*
X6217500D01*
Y7127500D01*
X6280000D01*
Y7170000D01*
D02*
G37*
G36*
X9045000Y7290000D02*
X8860000D01*
Y7105000D01*
X8869206D01*
X8906880Y7112494D01*
X8942367Y7127193D01*
X8974305Y7148534D01*
X9001466Y7175695D01*
X9022807Y7207633D01*
X9037506Y7243120D01*
X9045000Y7280794D01*
Y7290000D01*
D02*
G37*
G36*
X8840000D02*
X8655000D01*
Y7280794D01*
X8662494Y7243120D01*
X8677193Y7207633D01*
X8698534Y7175695D01*
X8725695Y7148534D01*
X8757633Y7127193D01*
X8793121Y7112494D01*
X8830794Y7105000D01*
X8840000D01*
Y7290000D01*
D02*
G37*
G36*
X5145000D02*
X4960000D01*
Y7105000D01*
X4969206D01*
X5006879Y7112494D01*
X5042367Y7127193D01*
X5074305Y7148534D01*
X5101466Y7175695D01*
X5122807Y7207633D01*
X5137506Y7243120D01*
X5145000Y7280794D01*
Y7290000D01*
D02*
G37*
G36*
X4940000D02*
X4755000D01*
Y7280794D01*
X4762494Y7243120D01*
X4777193Y7207633D01*
X4798534Y7175695D01*
X4825695Y7148534D01*
X4857633Y7127193D01*
X4893121Y7112494D01*
X4930794Y7105000D01*
X4940000D01*
Y7290000D01*
D02*
G37*
G36*
X8080000Y7107500D02*
X8017500D01*
Y7065000D01*
X8080000D01*
Y7107500D01*
D02*
G37*
G36*
X7505882Y7215000D02*
X7450000D01*
X7394461D01*
Y7202500D01*
X7396596Y7191770D01*
X7402674Y7182673D01*
X7411770Y7176596D01*
X7414119Y7176128D01*
Y7136505D01*
X7392557Y7114943D01*
X7382611Y7100058D01*
X7379118Y7082500D01*
X7382611Y7064942D01*
X7392557Y7050057D01*
X7407442Y7040111D01*
X7425000Y7036618D01*
X7442558Y7040111D01*
X7457443Y7050057D01*
X7480711Y7073324D01*
X7489290Y7071618D01*
X7520000D01*
Y7065000D01*
X7582500D01*
Y7117500D01*
Y7170000D01*
X7520000D01*
X7505882Y7184152D01*
Y7215000D01*
D02*
G37*
G36*
X7180000Y7107500D02*
X7117500D01*
Y7065000D01*
X7180000D01*
Y7107500D01*
D02*
G37*
G36*
X6605882Y7215000D02*
X6549999D01*
X6494461D01*
Y7202500D01*
X6496596Y7191770D01*
X6502674Y7182673D01*
X6511770Y7176596D01*
X6514119Y7176128D01*
Y7136505D01*
X6492557Y7114943D01*
X6482611Y7100058D01*
X6479118Y7082500D01*
X6482611Y7064942D01*
X6492557Y7050057D01*
X6507442Y7040111D01*
X6525000Y7036618D01*
X6542558Y7040111D01*
X6557443Y7050057D01*
X6580711Y7073324D01*
X6589290Y7071618D01*
X6620000D01*
Y7065000D01*
X6682500D01*
Y7117500D01*
Y7170000D01*
X6620000D01*
X6605882Y7184152D01*
Y7215000D01*
D02*
G37*
G36*
X6280000Y7107500D02*
X6217500D01*
Y7065000D01*
X6280000D01*
Y7107500D01*
D02*
G37*
G36*
X5705881Y7215000D02*
X5650000D01*
X5594461D01*
Y7202500D01*
X5596596Y7191770D01*
X5602674Y7182673D01*
X5611770Y7176596D01*
X5614118Y7176128D01*
Y7136505D01*
X5592557Y7114943D01*
X5582611Y7100058D01*
X5579118Y7082500D01*
X5582611Y7064942D01*
X5592557Y7050057D01*
X5607441Y7040111D01*
X5625000Y7036618D01*
X5642558Y7040111D01*
X5657443Y7050057D01*
X5680711Y7073324D01*
X5689289Y7071618D01*
X5720000D01*
Y7065000D01*
X5782500D01*
Y7117500D01*
Y7170000D01*
X5720000D01*
X5705881Y7184152D01*
Y7215000D01*
D02*
G37*
G36*
X7812398Y8582247D02*
X7792857Y8509320D01*
X7831012Y8499096D01*
X7841134Y8498433D01*
X7850740Y8501694D01*
X7858368Y8508382D01*
X7862854Y8517481D01*
X7875666Y8565295D01*
X7812398Y8582247D01*
D02*
G37*
G36*
X7569344Y8409259D02*
X7549804Y8336332D01*
X7587957Y8326109D01*
X7598080Y8325445D01*
X7607686Y8328706D01*
X7615313Y8335395D01*
X7619800Y8344493D01*
X7632612Y8392306D01*
X7569344Y8409259D01*
D02*
G37*
%LPD*%
D10*
X7684389Y8514549D02*
G03*
X7685716Y8500636I19319J-5176D01*
G01*
X7710183Y8898697D02*
X7732494Y8892500D01*
X7484877Y8961284D02*
X7710183Y8898697D01*
X7732494Y8892500D02*
X7940000D01*
X7479808Y8962693D02*
X7484877Y8961284D01*
X7476088Y8966412D02*
X7479808Y8962693D01*
X7455554Y8986946D02*
X7476088Y8966412D01*
X7415554Y8934446D02*
Y9183741D01*
X7455554Y8986946D02*
Y9167173D01*
X7415554Y8934446D02*
X7470253Y8879747D01*
X7415554Y9183741D02*
X7417500Y9185686D01*
X7455554Y9167173D02*
X7467500Y9179118D01*
X7417500Y9185686D02*
Y9247500D01*
X7467500Y9179118D02*
Y9247500D01*
X7367500Y8850000D02*
Y9247500D01*
X8055000Y8530356D02*
Y8537855D01*
X6399420Y10556920D02*
X6505000Y10662500D01*
X7890000Y8365000D02*
X8055178Y8530178D01*
X8055000Y8537855D02*
X8062856D01*
X8112145Y8587144D01*
Y8720356D01*
X7890000Y8302500D02*
Y8365000D01*
X7810000Y8222500D02*
X7890000Y8302500D01*
X7545000Y8222500D02*
X7810000D01*
X7387500Y8380000D02*
X7545000Y8222500D01*
X7940000Y8892500D02*
X8112145Y8720356D01*
X7225000Y8297500D02*
X7307500Y8380000D01*
X7387500D01*
X5600000Y9550000D02*
Y9570000D01*
Y9550000D02*
X5600000Y9550000D01*
X5700000Y9335000D02*
Y9507500D01*
X5600000Y9345000D02*
Y9550000D01*
X5590000Y9335000D02*
X5600000Y9345000D01*
X5590000Y9330000D02*
Y9335000D01*
X5667500Y9297500D02*
X5700000Y9330000D01*
X5590000D02*
X5617500Y9302500D01*
X5700000Y9330000D02*
Y9335000D01*
X5972500Y8397500D02*
Y8560000D01*
X5930000Y8602500D02*
X5972500Y8560000D01*
X5820000Y8547501D02*
X5860000Y8507500D01*
X5717500Y8475000D02*
Y8607500D01*
X5872500Y8602500D02*
X5930000D01*
X5667500Y8532499D02*
Y8607500D01*
X5817500D02*
X5820000Y8605000D01*
Y8547501D02*
Y8605000D01*
X5867500Y8607500D02*
X5872500Y8602500D01*
X6020000Y8930000D02*
X6020000Y8930000D01*
X5942500Y8930000D02*
X6020000D01*
X6027500Y8680000D02*
X6030000Y8682500D01*
X5942500Y8680000D02*
X6027500D01*
X5450001Y8935000D02*
X5455001Y8930000D01*
X5542500D01*
X5667500Y9002500D02*
Y9297500D01*
X5617500Y9002500D02*
Y9302500D01*
X5435000Y9812500D02*
X5937500D01*
X5991429Y9758571D01*
X5342500Y9710000D02*
X5344643Y9707857D01*
X6979974D01*
X7025331Y9662500D01*
X5991429Y9758571D02*
X6996649D01*
X5540000Y9905000D02*
X6102500D01*
X6200112Y9807389D02*
X7012611D01*
X6102500Y9905000D02*
X6200112Y9807389D01*
X5817500Y9477500D02*
X6016662D01*
X6034162Y9495000D02*
X6222500D01*
X6016662Y9477500D02*
X6034162Y9495000D01*
X5926428Y9606428D02*
X6942500D01*
X5887500Y9567500D02*
X5926428Y9606428D01*
X5700000Y9507500D02*
X5849643Y9657142D01*
X6357500Y9360000D02*
X6495000D01*
X6222500Y9495000D02*
X6357500Y9360000D01*
X6495000D02*
X6640000Y9505000D01*
X6417500Y9437500D02*
X6535714Y9555714D01*
X6929396D01*
X7057500Y9762500D02*
X7102500D01*
X7012611Y9807389D02*
X7057500Y9762500D01*
X6677500Y10062500D02*
Y10620000D01*
X7042720Y9712500D02*
X7102500D01*
X6996649Y9758571D02*
X7042720Y9712500D01*
X5849643Y9657142D02*
X6960799D01*
X6640000Y9505000D02*
X6900000D01*
X6537500Y8745000D02*
X6540000Y8747500D01*
Y9240000D01*
X6542500Y9242500D01*
X5707500Y10737500D02*
Y10892500D01*
X6505000Y10662500D02*
X6635000D01*
X6677500Y10620000D01*
X6942500Y9606428D02*
X6986250Y9562679D01*
X6960799Y9657142D02*
X7005441Y9612500D01*
X6986250Y9562500D02*
Y9562679D01*
Y9562500D02*
X7102500D01*
X7005441Y9612500D02*
X7102500D01*
X6929396Y9555714D02*
X6972610Y9512500D01*
X6900000Y9505000D02*
X6942500Y9462500D01*
X6972610Y9512500D02*
X7102500D01*
X6942500Y9462500D02*
X7102500D01*
X7025331Y9662500D02*
X7102500D01*
X5707500Y10892500D02*
Y11307500D01*
X7782500Y9762500D02*
X7860000D01*
X7860000Y9762500D01*
X7367500Y8850000D02*
X7441835Y8775665D01*
X7464673D02*
X7480841Y8759497D01*
X7441835Y8775665D02*
X7464673D01*
X7470253Y8879747D02*
X7530698D01*
X7546604Y8863842D01*
X7592570Y8708442D02*
X7621801Y8643670D01*
X7480841Y8759497D02*
X7499813Y8733708D01*
X7592570Y8708442D01*
X7730887Y8807016D02*
X7749804Y8800341D01*
X7643196Y8837960D02*
X7660653Y8825835D01*
X7730887Y8807016D01*
X7685716Y8500636D02*
X7716567Y8437104D01*
X7684389Y8514549D02*
X7753749Y8773402D01*
X7716567Y8437104D02*
X7745799Y8372331D01*
X7749804Y8800341D02*
X7753749Y8773402D01*
X7317500Y8847411D02*
Y9247500D01*
X7242045Y8771956D02*
X7317500Y8847411D01*
X7167500Y9187500D02*
Y9247500D01*
X7037500Y9362500D02*
X7037500Y9362500D01*
X7102500D01*
X7065000Y9270000D02*
X7074043Y9279043D01*
Y9310191D02*
X7076353Y9312500D01*
X7074043Y9279043D02*
Y9310191D01*
X7076353Y9312500D02*
X7102500D01*
X6790601Y10479000D02*
Y10745784D01*
X6802316Y10757500D02*
X6817500D01*
X6790601Y10745784D02*
X6802316Y10757500D01*
X6837500Y10777500D02*
Y10782500D01*
X6817500Y10757500D02*
X6837500Y10777500D01*
X6978601Y10479000D02*
Y10745784D01*
X6957500Y10757500D02*
X6966885D01*
X6937500Y10777500D02*
Y10782500D01*
Y10777500D02*
X6957500Y10757500D01*
X6966885D02*
X6978601Y10745784D01*
X7165190Y9925000D02*
X7167500Y9927310D01*
X7140000Y9925000D02*
X7165190D01*
X7167500Y9927310D02*
Y9927500D01*
D11*
X7544559Y9019204D02*
D03*
X7570441Y9115797D02*
D03*
X7454959Y8662904D02*
D03*
X7480841Y8759497D02*
D03*
D12*
X8007500Y7117500D02*
D03*
X7592500D02*
D03*
X8007500Y7332499D02*
D03*
X7592500D02*
D03*
X7107500Y7117500D02*
D03*
X6692500D02*
D03*
X7107500Y7332499D02*
D03*
X6692500D02*
D03*
X6207500Y7117500D02*
D03*
X5792500D02*
D03*
X6207500Y7332499D02*
D03*
X5792500D02*
D03*
D13*
X5742500Y8805000D02*
D03*
D14*
X5942500Y8680000D02*
D03*
Y8730000D02*
D03*
Y8780000D02*
D03*
Y8830000D02*
D03*
Y8880000D02*
D03*
Y8930000D02*
D03*
X5542500Y8680000D02*
D03*
Y8730000D02*
D03*
Y8780000D02*
D03*
Y8830000D02*
D03*
Y8880000D02*
D03*
Y8930000D02*
D03*
D15*
X5867500Y9002500D02*
D03*
X5817500D02*
D03*
X5767500D02*
D03*
X5717500D02*
D03*
X5667500D02*
D03*
X5617500D02*
D03*
X5867500Y8607500D02*
D03*
X5817500D02*
D03*
X5767500D02*
D03*
X5717500D02*
D03*
X5667500D02*
D03*
X5617500D02*
D03*
D16*
X5590000Y9335000D02*
D03*
X5490000D02*
D03*
X5700000D02*
D03*
X5800000D02*
D03*
X5477500Y8457500D02*
D03*
X5577500D02*
D03*
X5882501Y8397500D02*
D03*
X5782501D02*
D03*
X7955000Y10640000D02*
D03*
X7855000D02*
D03*
X6845000Y10072500D02*
D03*
X6945000D02*
D03*
X7897500Y9942500D02*
D03*
X7997500D02*
D03*
X6837500Y10782500D02*
D03*
X6937500D02*
D03*
X8245000Y11147500D02*
D03*
X8345000D02*
D03*
X8245000Y11032500D02*
D03*
X8345000D02*
D03*
D17*
X6065000Y8865001D02*
D03*
Y8765001D02*
D03*
X5995000Y10752500D02*
D03*
Y10652500D02*
D03*
X6902500Y7879999D02*
D03*
Y7979999D02*
D03*
Y7730000D02*
D03*
Y7629999D02*
D03*
X8200000Y7050000D02*
D03*
Y7150000D02*
D03*
X5650000Y7325000D02*
D03*
Y7225000D02*
D03*
X6400000Y7050000D02*
D03*
Y7150000D02*
D03*
X6550000Y7325000D02*
D03*
Y7225000D02*
D03*
X7300000Y7050000D02*
D03*
Y7150000D02*
D03*
X7450000Y7325000D02*
D03*
Y7225000D02*
D03*
X7175800Y9029500D02*
D03*
Y9129500D02*
D03*
X7125000Y10072500D02*
D03*
Y10172500D02*
D03*
X6972600Y9270800D02*
D03*
Y9370800D02*
D03*
X7130000Y10485000D02*
D03*
Y10585000D02*
D03*
X6903750Y11096250D02*
D03*
Y11196250D02*
D03*
X6738750D02*
D03*
Y11096250D02*
D03*
D18*
X5812500Y9172500D02*
D03*
X5962500D02*
D03*
X8132500Y10477501D02*
D03*
X7982500D02*
D03*
X7950000Y9742500D02*
D03*
X8100000D02*
D03*
X7982500Y10310001D02*
D03*
X8132500D02*
D03*
D19*
X7167500Y9247500D02*
D03*
X7217500D02*
D03*
X7267500D02*
D03*
X7317500D02*
D03*
X7367500D02*
D03*
X7417500D02*
D03*
X7467500D02*
D03*
X7517500D02*
D03*
X7567500D02*
D03*
X7617500D02*
D03*
X7667500D02*
D03*
X7717500D02*
D03*
Y9927500D02*
D03*
X7667500D02*
D03*
X7617500D02*
D03*
X7567500D02*
D03*
X7517500D02*
D03*
X7467500D02*
D03*
X7417500D02*
D03*
X7367500D02*
D03*
X7317500D02*
D03*
X7267500D02*
D03*
X7217500D02*
D03*
X7167500D02*
D03*
D20*
X7782500Y9312500D02*
D03*
Y9362500D02*
D03*
Y9412500D02*
D03*
Y9462500D02*
D03*
Y9512500D02*
D03*
Y9562500D02*
D03*
Y9612500D02*
D03*
Y9662500D02*
D03*
Y9712500D02*
D03*
Y9762500D02*
D03*
Y9812500D02*
D03*
Y9862500D02*
D03*
X7102500D02*
D03*
Y9812500D02*
D03*
Y9762500D02*
D03*
Y9712500D02*
D03*
Y9662500D02*
D03*
Y9612500D02*
D03*
Y9562500D02*
D03*
Y9512500D02*
D03*
Y9462500D02*
D03*
Y9412500D02*
D03*
Y9362500D02*
D03*
Y9312500D02*
D03*
D21*
X7442500Y9587500D02*
D03*
D22*
X8062856Y8537855D02*
D03*
X7992146Y8608567D02*
D03*
X7242045Y8771956D02*
D03*
X7312756Y8701245D02*
D03*
X7089645Y8924356D02*
D03*
X7160356Y8853645D02*
D03*
D23*
X7642500Y10804751D02*
D03*
X7592500D02*
D03*
X7542500D02*
D03*
X7692500D02*
D03*
X7742500D02*
D03*
X7792500D02*
D03*
X7492500D02*
D03*
X7442500D02*
D03*
D24*
X7857500D02*
D03*
X7937500D02*
D03*
X7377500D02*
D03*
X7297500D02*
D03*
D25*
X6207500Y11307500D02*
D03*
Y10892500D02*
D03*
X5992500Y11307500D02*
D03*
Y10892500D02*
D03*
X5707500Y11307500D02*
D03*
Y10892500D02*
D03*
X5492500Y11307500D02*
D03*
Y10892500D02*
D03*
D26*
X7153145Y8498045D02*
D03*
X7223856Y8568756D02*
D03*
D27*
X6947712Y8837689D02*
D03*
X7124488Y8660912D02*
D03*
D28*
X7805327Y8594494D02*
D03*
X7621801Y8643670D02*
D03*
X7745799Y8372331D02*
D03*
X7562273Y8421506D02*
D03*
D29*
X6832900Y9270000D02*
D03*
Y9420000D02*
D03*
X7852500Y10467501D02*
D03*
Y10317501D02*
D03*
D30*
X6978601Y10229000D02*
D03*
X6790601D02*
D03*
Y10479000D02*
D03*
X6884601D02*
D03*
X6978601D02*
D03*
D31*
X7546604Y8863842D02*
D03*
X7643196Y8837960D02*
D03*
X7846396Y8774459D02*
D03*
X7749804Y8800341D02*
D03*
D32*
X6692500Y9090000D02*
Y9172500D01*
X6450000Y7750000D02*
X6679999Y7979999D01*
X5492500Y10770000D02*
Y10892500D01*
X5397500Y7048578D02*
X5496079Y6950000D01*
X5397500Y7459500D02*
X5688000Y7750000D01*
X5397500Y7048578D02*
Y7459500D01*
X5496079Y6950000D02*
X5517500D01*
X5962500Y9172500D02*
X6082500Y9052500D01*
Y8892500D02*
Y9052500D01*
X6065000Y8875001D02*
X6082500Y8892500D01*
X5385000Y8495000D02*
Y8845000D01*
Y8495000D02*
X5427500Y8452500D01*
X6738206Y9129500D02*
X7172500D01*
X6665000Y8545000D02*
X7330866Y7879134D01*
X6665000Y9062500D02*
X6692500Y9090000D01*
X6665000Y8545000D02*
Y9062500D01*
X6695206Y9172500D02*
X6738206Y9129500D01*
X7330866Y7769134D02*
X7350000Y7750000D01*
X7330866Y7769134D02*
Y7879134D01*
X6712500Y9420000D02*
X6832900D01*
X6662500Y9370000D02*
X6712500Y9420000D01*
X7782499Y10317501D02*
X7975000D01*
X7687500Y10412500D02*
X7782499Y10317501D01*
X7022500Y10485000D02*
X7210000D01*
X7282500Y10412500D01*
X6945000Y10072500D02*
X6945000Y10072500D01*
X7125000D01*
X7125000Y10072500D01*
X6945000Y10072500D02*
X6973601Y10101101D01*
X6692500Y9172500D02*
X6790000Y9270000D01*
X6832900D01*
X6833700Y9270800D02*
X6972600D01*
X6973601Y10101101D02*
Y10216500D01*
X6790601Y10111899D02*
X6812500Y10090000D01*
X6790601Y10111899D02*
Y10229000D01*
X7855000Y10470000D02*
Y10640000D01*
X7852500Y10467501D02*
X7855000Y10470000D01*
X7852500Y10467501D02*
X7972499D01*
X7982500Y10477501D01*
X7975000Y10317501D02*
X7982500Y10310001D01*
D33*
X6972600Y9370800D02*
X6980100Y9363300D01*
X7036700D01*
X7037500Y9362500D01*
D34*
X7570441Y9115797D02*
X7580396Y9105842D01*
X7612942D01*
X7637500Y9081284D01*
X7549491Y9019204D02*
X7573695Y8995000D01*
X7544559Y9019204D02*
X7549491D01*
X7573695Y8995000D02*
X7832500D01*
X5655000Y7225000D02*
X5660000Y7220000D01*
X5650000Y7225000D02*
X5655000D01*
X5660000Y7146789D02*
Y7220000D01*
Y7146789D02*
X5689289Y7117500D01*
X5792500D01*
X5660000Y7117500D02*
Y7146789D01*
X5625000Y7082500D02*
X5660000Y7117500D01*
X6555000Y7225000D02*
X6560000Y7220000D01*
X6550000Y7225000D02*
X6555000D01*
X6560000Y7146789D02*
Y7220000D01*
Y7146789D02*
X6589290Y7117500D01*
X6692500D01*
X6560000Y7117500D02*
Y7146789D01*
X6525000Y7082500D02*
X6560000Y7117500D01*
X7425000Y7082500D02*
X7460000Y7117500D01*
Y7146789D01*
X7489290Y7117500D02*
X7592500D01*
X7460000Y7146789D02*
X7489290Y7117500D01*
X7460000Y7146789D02*
Y7220000D01*
X7450000Y7225000D02*
X7455000D01*
X7460000Y7220000D01*
X8043180Y9850000D02*
X8100000Y9906820D01*
X6884601Y10341500D02*
X7091000D01*
X7125587Y10306913D01*
X6790601Y10259000D02*
X6837746Y10306145D01*
X6849245D01*
X6884601Y10341500D01*
X6790601Y10229000D02*
Y10259000D01*
X6884601Y10341500D02*
Y10479000D01*
X8345000Y10922500D02*
Y11147500D01*
X8140000Y10485001D02*
Y10587500D01*
X8132500Y10477501D02*
X8140000Y10485001D01*
X8087500Y10640000D02*
X8140000Y10587500D01*
X7955000Y10640000D02*
X8087500D01*
X7292500Y10740000D02*
Y10799751D01*
X7224413Y10671913D02*
X7292500Y10740000D01*
Y10799751D02*
X7297500Y10804751D01*
X7135000Y10585000D02*
X7220000Y10670000D01*
X7222500D01*
X7130000Y10585000D02*
X7135000D01*
X7937500Y10777250D02*
X7950000Y10764751D01*
X7937500Y10777250D02*
Y10804751D01*
X7950000Y10645000D02*
Y10764751D01*
Y10645000D02*
X7955000Y10640000D01*
X6903750Y11003750D02*
X6905000Y11002500D01*
X6903750Y11003750D02*
Y11096250D01*
X5817500Y9082500D02*
Y9107500D01*
X5815001Y9110000D02*
X5817500Y9107500D01*
X5787500Y8425000D02*
Y8496360D01*
X5860000Y8507500D02*
X5882501Y8485000D01*
X5787501Y8496361D02*
Y8500000D01*
X5787500Y8496360D02*
X5787501Y8496361D01*
X6030000Y8682500D02*
X6042500D01*
X6052500Y8692500D01*
X6020000Y8930000D02*
X6035711D01*
X5877501Y8392500D02*
X5882501Y8397500D01*
X5687500Y8324290D02*
Y8405000D01*
X5882501Y8397500D02*
Y8485000D01*
X5848211Y8295000D02*
X5877501Y8324290D01*
X5716790Y8295000D02*
X5848211D01*
X5687500Y8324290D02*
X5716790Y8295000D01*
X5877501Y8324290D02*
Y8392500D01*
X5392726Y8882500D02*
X5445226Y8935000D01*
X7200000Y6950000D02*
X7300000Y7050000D01*
X6295000Y6950000D02*
X6395000Y7050000D01*
X5517500Y6950000D02*
X6295000D01*
X8100000D02*
X8200000Y7050000D01*
X6295000Y6950000D02*
X7200000D01*
X8100000D01*
X6395000Y7050000D02*
X6400000D01*
X7172500Y9129500D02*
X7175800D01*
X7167500Y9134500D02*
Y9187500D01*
X6692500Y9172500D02*
X6695206D01*
X7167500Y9134500D02*
X7172500Y9129500D01*
X6738750Y11196250D02*
X6903750D01*
X6902500Y7730000D02*
Y7879999D01*
X7860000Y9762500D02*
X7877500D01*
X7882500Y9757500D01*
X7785000Y9900000D02*
X7797500Y9912500D01*
X7802500D01*
X7062500Y9267500D02*
X7065000Y9270000D01*
X7040000Y9267500D02*
X7062500D01*
X7122500Y9942500D02*
Y9957500D01*
Y9942500D02*
X7140000Y9925000D01*
D35*
X7567500Y9118737D02*
X7570441Y9115797D01*
X7567500Y9118737D02*
Y9247500D01*
X7498054Y9057700D02*
X7536550Y9019204D01*
X7498054Y9057700D02*
Y9149569D01*
X7536550Y9019204D02*
X7544559D01*
X7498054Y9149569D02*
X7517500Y9169014D01*
X7617500Y9183817D02*
Y9247500D01*
Y9183817D02*
X7711317Y9090000D01*
X7517500Y9169014D02*
Y9247500D01*
X7667500Y9197708D02*
X7717708Y9147500D01*
X7667500Y9197708D02*
Y9247500D01*
X7847500Y9362500D02*
X7865000Y9345000D01*
X8427500D02*
X8692000Y9080500D01*
X7865000Y9345000D02*
X8427500D01*
X7782500Y9362500D02*
X7847500D01*
X7997500Y9147500D02*
X8826500Y8318500D01*
X7717708Y9147500D02*
X7997500D01*
X8157500Y9202500D02*
X8787500Y8572500D01*
X7717500Y9220000D02*
X7735000Y9202500D01*
X8157500D01*
X7810000Y9309645D02*
X7842145Y9277500D01*
X8265000D01*
X8703645Y8838855D01*
X7810000Y9309645D02*
Y9312500D01*
X7782500D02*
X7810000D01*
X6400000Y7150000D02*
Y7300000D01*
X7295000Y7150000D02*
X7300000Y7155000D01*
Y7300000D01*
X8205000Y7150000D02*
X8303303Y7248302D01*
Y7260803D01*
X8310000Y7267500D01*
X8200000Y7150000D02*
X8205000D01*
X6903750Y7508750D02*
Y7628750D01*
Y7508750D02*
X6905000Y7507500D01*
X5817500Y9082500D02*
X5817500Y9082500D01*
X5767500Y8520001D02*
X5787501Y8500000D01*
X5767500Y8607500D02*
X5767500Y8607500D01*
X5767500Y8520001D02*
Y8607500D01*
X5817500Y9002500D02*
Y9082500D01*
X6290000Y8172500D02*
Y8430000D01*
X5975484Y7783485D02*
Y7857985D01*
X6290000Y8172500D01*
X5942000Y7750000D02*
X5975484Y7783485D01*
X6197500Y7900000D02*
X6420000Y8122500D01*
Y8430000D01*
X6197500Y7751500D02*
Y7900000D01*
X6272500Y9910000D02*
X6320000Y9862500D01*
X7102500D01*
X6560000Y10557500D02*
X6561250Y10556250D01*
Y10056250D02*
X6562500Y10055000D01*
X6561250Y10056250D02*
Y10556250D01*
X6196000Y7750000D02*
X6197500Y7751500D01*
X7357500Y8225000D02*
X7604000Y7978500D01*
X7357500Y8225000D02*
Y8287500D01*
X7352500Y8292500D02*
X7357500Y8287500D01*
X7858000Y7980500D02*
X7970000Y8092500D01*
Y8292500D01*
X7858000Y7750000D02*
Y7980500D01*
X7604000Y7750000D02*
Y7978500D01*
X7247500Y10100941D02*
X7267500Y10080941D01*
Y9927500D02*
Y10080941D01*
X7247500Y10100941D02*
Y10105000D01*
X6000000Y10747500D02*
X6105000D01*
X5993750Y10753750D02*
X6000000Y10747500D01*
X6207500Y10892500D02*
Y11307500D01*
X5492500Y10892500D02*
Y11307500D01*
X5993750Y10753750D02*
Y10891250D01*
X5992500Y10892500D02*
X5993750Y10891250D01*
X5992500Y10892500D02*
Y11307500D01*
X7277500Y7167500D02*
Y7182499D01*
Y7167500D02*
X7295000Y7150000D01*
X7107500Y7332499D02*
X7127500D01*
X7277500Y7182499D01*
X6692500Y7332499D02*
X7107500D01*
X7592500Y7117500D02*
X8007500D01*
X6692500D02*
X7107500D01*
X5792500D02*
X6207500D01*
X5792500Y7332499D02*
X6207500D01*
X7592500D02*
X8007500D01*
X8027500D02*
X8177500Y7182499D01*
Y7167500D02*
Y7182499D01*
X8007500Y7332499D02*
X8027500D01*
X8177500Y7167500D02*
X8195000Y7150000D01*
X8200000D01*
X7453750Y7328750D02*
X7588750D01*
X7450000Y7325000D02*
X7453750Y7328750D01*
X7588750D02*
X7592500Y7332499D01*
X6553750Y7328750D02*
X6688750D01*
X6692500Y7332499D01*
X6550000Y7325000D02*
X6553750Y7328750D01*
X6227500Y7332499D02*
X6377500Y7182499D01*
Y7167500D02*
X6395000Y7150000D01*
X6400000D01*
X6207500Y7332499D02*
X6227500D01*
X6377500Y7167500D02*
Y7182499D01*
X5788750Y7328750D02*
X5792500Y7332499D01*
X5650000Y7325000D02*
X5653750Y7328750D01*
X5788750D01*
X8188029Y9475000D02*
X8210529Y9497500D01*
X8220000D01*
X6902500Y7629999D02*
X6903750Y7628750D01*
X7941361Y9475000D02*
X8188029D01*
X7932765Y9625000D02*
X8027500D01*
X8103029Y9545000D02*
X8118029Y9560000D01*
X8127500D01*
X7935000Y9545000D02*
X8103029D01*
X7853861Y9562500D02*
X7941361Y9475000D01*
X7867500Y9612500D02*
X7935000Y9545000D01*
X7782500Y9562500D02*
X7853861D01*
X7782500Y9412500D02*
X8710046D01*
X8788046Y9334500D02*
X8826500D01*
X8710046Y9412500D02*
X8788046Y9334500D01*
X7895265Y9662500D02*
X7932765Y9625000D01*
X7782500Y9662500D02*
X7895265D01*
X7699630Y10084630D02*
X7702500Y10087500D01*
X7699630Y10040991D02*
Y10084630D01*
X7667500Y10008860D02*
X7699630Y10040991D01*
X7777500Y10017500D02*
Y10137500D01*
X7727500Y10187500D02*
X7777500Y10137500D01*
X7717500Y9927500D02*
Y9957500D01*
X7777500Y10017500D01*
X7630000Y10035000D02*
Y10260000D01*
X7667500Y9927500D02*
Y10008860D01*
X7617500Y9927500D02*
Y10022500D01*
X7630000Y10035000D01*
X7552500Y10030000D02*
Y10315000D01*
Y10030000D02*
X7567500Y10015000D01*
X7437500Y10265000D02*
X7490000Y10212500D01*
Y10020000D02*
Y10212500D01*
X7432500Y10027500D02*
Y10170000D01*
X7467500Y9927500D02*
Y9997500D01*
X7490000Y10020000D01*
X7417500Y10012500D02*
X7432500Y10027500D01*
X7417500Y9927500D02*
Y10012500D01*
X7567500Y9927500D02*
Y10015000D01*
X8692000Y9080500D02*
X8826500D01*
X7782500Y9612500D02*
X7867500D01*
X8814145Y8838855D02*
X8826500Y8826500D01*
X8703645Y8838855D02*
X8814145D01*
X8787500Y8572500D02*
X8826500D01*
X8453792Y8437208D02*
Y8546208D01*
X7910000Y9090000D02*
X8453792Y8546208D01*
X7711317Y9090000D02*
X7910000D01*
X8453792Y8437208D02*
X8826500Y8064500D01*
X7217500Y9927500D02*
Y10015941D01*
X7210000Y10023441D02*
X7217500Y10015941D01*
X7210000Y10023441D02*
Y10027500D01*
X7717500Y9220000D02*
Y9247500D01*
X7782500Y9812500D02*
X7828683D01*
X7891702Y9850000D01*
X7035000Y8770000D02*
X7076711D01*
X6967311Y8837689D02*
X7035000Y8770000D01*
X7076711D02*
X7160356Y8853645D01*
X7267500Y8960789D01*
X6947712Y8837689D02*
X6967311D01*
X7149237Y8685660D02*
X7202270D01*
X7249185Y8638745D01*
X7272724D01*
X7124488Y8660912D02*
X7149237Y8685660D01*
X7272724Y8638745D02*
X7312756Y8678776D01*
Y8701245D01*
X7272724Y8617625D02*
Y8638745D01*
X7223856Y8568756D02*
X7272724Y8617625D01*
X7267500Y8960789D02*
Y9247500D01*
X7745000Y10807250D02*
Y10975000D01*
X7802500Y11032500D02*
X8245000D01*
X7745000Y10975000D02*
X7802500Y11032500D01*
X7520000Y11147500D02*
X8245000D01*
X7445000Y11072500D02*
X7520000Y11147500D01*
X7445000Y10807250D02*
Y11072500D01*
X7442500Y10804751D02*
X7445000Y10807250D01*
X7742500Y10804751D02*
X7745000Y10807250D01*
D36*
X6679999Y7979999D02*
X6902500D01*
X7992146Y8608567D02*
Y8675354D01*
X7947500Y8720000D02*
X7992146Y8675354D01*
X7893041Y8774459D02*
X7947500Y8720000D01*
X7846396Y8774459D02*
X7893041D01*
X7805124Y8620430D02*
X7846396Y8774459D01*
X7805124Y8620430D02*
X7805327Y8594494D01*
X7562273Y8421506D02*
Y8429239D01*
X7454959Y8536553D02*
Y8662904D01*
Y8536553D02*
X7562273Y8429239D01*
X6987500Y8477500D02*
X7125528D01*
X6876710Y8588291D02*
X6987500Y8477500D01*
X6787500Y8677500D02*
X6876710Y8588291D01*
X8132500Y10310001D02*
Y10477501D01*
X5860000Y10652500D02*
X5860000Y10652500D01*
X5995000D01*
X5665039Y7772961D02*
Y7912461D01*
X5375637Y8201863D02*
X5665039Y7912461D01*
Y7772961D02*
X5688000Y7750000D01*
X6065000Y8245000D02*
Y8705000D01*
X5975000Y8155000D02*
X6065000Y8245000D01*
X5800000Y9335000D02*
X6110000D01*
X5815001Y9110000D02*
Y9185000D01*
X5810001D02*
X5815001D01*
X6052500Y8692500D02*
X6065000Y8705000D01*
Y8765001D01*
X6097500D01*
X5626863Y8155000D02*
X5975000D01*
X5580000Y8201863D02*
X5626863Y8155000D01*
X5255000Y8322500D02*
X5375637Y8201863D01*
X5580000D02*
Y8445000D01*
X5375637Y8201863D02*
X5580000D01*
Y8445000D02*
X5620000Y8485000D01*
X5255000Y8322500D02*
Y9100000D01*
X6110000Y9335000D02*
X6240000Y9205000D01*
X6097500Y8765001D02*
X6124363Y8738137D01*
X6190637D01*
X6240000Y8787500D01*
Y9205000D01*
X5255000Y9100000D02*
X5490000Y9335000D01*
X6280000Y10637500D02*
Y10825637D01*
Y10240000D02*
Y10637500D01*
X5576500Y10160000D02*
X6200000D01*
X4953000D02*
X5576500D01*
X5255000Y9838500D02*
X5576500Y10160000D01*
X5255000Y9100000D02*
Y9838500D01*
X6935000Y9942500D02*
Y10062500D01*
X6417500Y9942500D02*
X6935000D01*
X6200000Y10160000D02*
X6417500Y9942500D01*
X6935000Y10062500D02*
X6945000Y10072500D01*
X6280000Y10637500D02*
X6738750Y11096250D01*
X6215000Y10880000D02*
X6225637D01*
X6207500Y10892500D02*
X6215000Y10885000D01*
Y10880000D02*
Y10885000D01*
X6225637Y10880000D02*
X6280000Y10825637D01*
X6200000Y10160000D02*
X6280000Y10240000D01*
X7987500Y10160000D02*
X8826500D01*
X7857500Y10030000D02*
X7987500Y10160000D01*
X7122500Y9957500D02*
Y10070000D01*
X7897500Y9942500D02*
Y9990000D01*
X7857500Y10030000D02*
X7897500Y9990000D01*
X7832500Y9942500D02*
X7897500D01*
X6884601Y10479000D02*
Y10644601D01*
X6885000Y10645000D01*
X7882500Y9757500D02*
X7892500Y9747500D01*
X7950000Y9742500D02*
Y9747500D01*
X7892500D02*
X7950000D01*
X7802500Y9912500D02*
X7832500Y9942500D01*
X6972600Y9270800D02*
X7036700D01*
X7040000Y9267500D01*
X7710000Y10640000D02*
X7855000D01*
D37*
X7125528Y8477500D02*
X7149609Y8501581D01*
X7149609D01*
X7153145Y8498045D01*
X6787500Y8945000D02*
X6857500Y9015000D01*
X6787500Y8677500D02*
Y8945000D01*
X6857500Y9015000D02*
X6991929D01*
X7086109Y8920820D01*
X7086109D02*
X7170800Y9005511D01*
X7086109Y8920820D02*
X7086109D01*
X7170800Y9005511D02*
Y9029500D01*
X7175800D01*
X7997500Y9941967D02*
X8064853D01*
X7891702Y9850000D02*
X8043180D01*
X8100000Y9742500D02*
Y9906820D01*
X7997500Y9941967D02*
Y9942500D01*
X8064853Y9941967D02*
X8100000Y9906820D01*
X6892100Y9370800D02*
X6972600D01*
X6842900Y9420000D02*
X6892100Y9370800D01*
X6832900Y9420000D02*
X6842900D01*
X7125000Y10172500D02*
Y10302500D01*
X7127500Y10305000D01*
X7377500Y10700000D02*
X7377500Y10700000D01*
X7377500Y10700000D02*
Y10804751D01*
X7855000Y10640000D02*
Y10645000D01*
X7857500Y10647500D02*
Y10804751D01*
X7855000Y10645000D02*
X7857500Y10647500D01*
D38*
X5620000Y8485000D02*
X5667499Y8532499D01*
X5667500D01*
X7785000Y9865000D02*
Y9900000D01*
X7782500Y9862500D02*
X7785000Y9865000D01*
X7782500Y9862500D02*
X7782500D01*
D39*
X5688457Y8405957D02*
Y8445957D01*
X5717500Y8475000D01*
X5687500Y8405000D02*
X5688457Y8405957D01*
D40*
X7592500Y10542499D02*
X7592500Y10542499D01*
X7367500Y9927500D02*
Y10296790D01*
X7563210Y10492500D02*
X7592500Y10521789D01*
X7317500Y9927500D02*
Y10317500D01*
X7542500Y10542500D02*
Y10735364D01*
X7592500Y10521789D02*
Y10542499D01*
X7542500Y10542500D02*
X7542500D01*
X7367500Y10296790D02*
X7563210Y10492500D01*
X7563210D01*
X7592500Y10542499D02*
Y10735364D01*
X7317500Y10317500D02*
X7542500Y10542500D01*
X7542500Y10735364D02*
Y10804751D01*
X7593500Y10735364D02*
Y10803751D01*
X7592500Y10804751D02*
X7593500Y10803751D01*
X7691500D02*
X7692500Y10804751D01*
X7691500Y10735364D02*
Y10803751D01*
X7669386Y10713251D02*
X7691500Y10735364D01*
X7593500Y10735364D02*
X7615613Y10713251D01*
X7669386D01*
X7641500Y10805751D02*
X7642500Y10804751D01*
X7641500Y10805751D02*
Y10874137D01*
X7619386Y10896250D02*
X7641500Y10874137D01*
X7543500Y10874137D02*
X7565614Y10896250D01*
X7619386D01*
X7543500Y10805751D02*
Y10874137D01*
X7542500Y10804751D02*
X7543500Y10805751D01*
D41*
X4950000Y11100000D02*
D03*
Y7300000D02*
D03*
X8850000Y11100000D02*
D03*
Y7300000D02*
D03*
D42*
X4953000Y9334500D02*
D03*
Y9080500D02*
D03*
Y8826500D02*
D03*
Y8572500D02*
D03*
Y8064500D02*
D03*
Y8318500D02*
D03*
Y10668000D02*
D03*
Y10414000D02*
D03*
Y9906000D02*
D03*
Y10160000D02*
D03*
X8826500Y9334500D02*
D03*
Y9080500D02*
D03*
Y8826500D02*
D03*
Y8572500D02*
D03*
Y8064500D02*
D03*
Y8318500D02*
D03*
Y10668000D02*
D03*
Y10414000D02*
D03*
Y9906000D02*
D03*
Y10160000D02*
D03*
X7604000Y7750000D02*
D03*
X7350000D02*
D03*
X7858000D02*
D03*
X8112000D02*
D03*
X6450000D02*
D03*
X6196000D02*
D03*
X5688000D02*
D03*
X5942000D02*
D03*
D43*
X7185500Y10862251D02*
D03*
X8049500D02*
D03*
D44*
X7906500Y10912250D02*
D03*
X7328500D02*
D03*
D45*
X8049500Y11280250D02*
D03*
X7185500D02*
D03*
D46*
X9000005Y10600006D02*
D03*
Y10200006D02*
D03*
Y9800005D02*
D03*
Y9400005D02*
D03*
Y9000005D02*
D03*
Y8600005D02*
D03*
Y8200004D02*
D03*
Y7800004D02*
D03*
X8900005Y9600005D02*
D03*
X8800005Y7800004D02*
D03*
X8900005Y7600004D02*
D03*
X8800005Y7000004D02*
D03*
X8600005Y11000006D02*
D03*
X8700005Y10800006D02*
D03*
X8600005Y10600006D02*
D03*
X8700005Y9600005D02*
D03*
Y9200005D02*
D03*
Y7600004D02*
D03*
X8600005Y7000004D02*
D03*
X8500005Y11200006D02*
D03*
Y10800006D02*
D03*
X8400005Y10600006D02*
D03*
X8500005Y7200004D02*
D03*
X8400005Y7000004D02*
D03*
X8300004Y10800006D02*
D03*
X7600004Y11000006D02*
D03*
X7700004Y7600004D02*
D03*
X7500004D02*
D03*
X7300004Y11200006D02*
D03*
X7000004Y7800004D02*
D03*
X7100004Y7600004D02*
D03*
X6800004Y11000006D02*
D03*
Y7800004D02*
D03*
X6700004Y10800006D02*
D03*
Y7600004D02*
D03*
X6500004Y11200006D02*
D03*
X6400003Y11000006D02*
D03*
X6300003Y11200006D02*
D03*
X6200003Y8600005D02*
D03*
X6300003Y7600004D02*
D03*
X6100003Y11200006D02*
D03*
Y7600004D02*
D03*
X5900003Y11200006D02*
D03*
X5800003Y11000006D02*
D03*
X5600003D02*
D03*
Y10600006D02*
D03*
X5700003Y10000005D02*
D03*
X5400003Y11000006D02*
D03*
Y10600006D02*
D03*
Y7800004D02*
D03*
X5300003Y11200006D02*
D03*
X5200003Y11000006D02*
D03*
X5300003Y10800006D02*
D03*
X5200003Y10600006D02*
D03*
Y8200004D02*
D03*
Y7800004D02*
D03*
X5300003Y7600004D02*
D03*
X5200003Y7400004D02*
D03*
Y7000004D02*
D03*
X5100003Y10800006D02*
D03*
Y10000005D02*
D03*
Y9600005D02*
D03*
Y9200005D02*
D03*
X5000003Y7800004D02*
D03*
X5100003Y7600004D02*
D03*
X5000003Y7000004D02*
D03*
X4800003Y9800005D02*
D03*
X4900003Y9600005D02*
D03*
X4800003Y9000005D02*
D03*
Y8200004D02*
D03*
Y7800004D02*
D03*
X4900003Y7600004D02*
D03*
X7637500Y9081284D02*
D03*
X5625000Y7082500D02*
D03*
X7425000D02*
D03*
X6525000D02*
D03*
X5972500Y8397500D02*
D03*
X5435000Y9812500D02*
D03*
X5342500Y9710000D02*
D03*
X5540000Y9905000D02*
D03*
X5817500Y9477500D02*
D03*
X5600000Y9570000D02*
D03*
X5887500Y9567500D02*
D03*
X6417500Y9437500D02*
D03*
X6677500Y10062500D02*
D03*
X6272500Y9910000D02*
D03*
X6562500Y10055000D02*
D03*
X5782500Y8295000D02*
D03*
X6537500Y8745000D02*
D03*
X6542500Y9242500D02*
D03*
X6398839Y10557500D02*
D03*
X7247500Y10105000D02*
D03*
X6560000Y10557500D02*
D03*
X6105000Y10747500D02*
D03*
X7702500Y10087500D02*
D03*
X7727500Y10187500D02*
D03*
X7630000Y10260000D02*
D03*
X7552500Y10315000D02*
D03*
X7432500Y10170000D02*
D03*
X7437500Y10265000D02*
D03*
X7210000Y10027500D02*
D03*
D47*
X7947500Y8720000D02*
D03*
X7454959Y8536553D02*
D03*
X6876710Y8588291D02*
D03*
X8095000Y9870000D02*
D03*
X8345000Y10922500D02*
D03*
X8113750Y10613750D02*
D03*
X7222500Y10670000D02*
D03*
X6905000Y11002500D02*
D03*
X5860000Y10652500D02*
D03*
X5492500Y10770000D02*
D03*
X8310000Y7267500D02*
D03*
X7300000Y7300000D02*
D03*
X6400000D02*
D03*
X6905000Y7507500D02*
D03*
X5687500Y8860000D02*
D03*
X5797500D02*
D03*
Y8750000D02*
D03*
X5687500D02*
D03*
X6935000Y9942500D02*
D03*
X5385000Y8670000D02*
D03*
X6052500Y9067500D02*
D03*
X6420000Y8430000D02*
D03*
X6290000D02*
D03*
X7225000Y8292500D02*
D03*
X7352500D02*
D03*
X7970000D02*
D03*
X5707500Y10737500D02*
D03*
X6662500Y9370000D02*
D03*
X7127500Y10305000D02*
D03*
X8220000Y9497500D02*
D03*
X8027500Y9625000D02*
D03*
X7832500Y8995000D02*
D03*
X8127500Y9560000D02*
D03*
X7282500Y10412500D02*
D03*
X7687500D02*
D03*
X7857500Y10030000D02*
D03*
X6692500Y9172500D02*
D03*
X6885000Y10645000D02*
D03*
X7710000Y10640000D02*
D03*
X7377500Y10700000D02*
D03*
X7222500Y9367500D02*
D03*
Y9477500D02*
D03*
Y9587500D02*
D03*
Y9697500D02*
D03*
Y9807500D02*
D03*
X7332500Y9367500D02*
D03*
Y9477500D02*
D03*
Y9587500D02*
D03*
Y9697500D02*
D03*
Y9807500D02*
D03*
X7442500Y9367500D02*
D03*
Y9477500D02*
D03*
Y9587500D02*
D03*
Y9697500D02*
D03*
Y9807500D02*
D03*
X7552500Y9367500D02*
D03*
Y9477500D02*
D03*
Y9587500D02*
D03*
Y9697500D02*
D03*
Y9807500D02*
D03*
X7662500Y9367500D02*
D03*
Y9477500D02*
D03*
Y9587500D02*
D03*
Y9697500D02*
D03*
Y9807500D02*
D03*
%TF.MD5,5f336d0ec16cbb253ec213e899f0eb65*%
M02*
