%TF.GenerationSoftware,Altium Limited,Altium Designer,24.5.2 (23)*%
G04 Layer_Color=32896*
%FSLAX45Y45*%
%MOMM*%
%TF.SameCoordinates,5BA462C2-C504-45FF-B61C-4F2A3F915A71*%
%TF.FilePolarity,Positive*%
%TF.FileFunction,Legend,Bot*%
%TF.Part,Single*%
G01*
G75*
%TA.AperFunction,NonConductor*%
%ADD56C,0.50000*%
%ADD57C,0.18000*%
G36*
X5232500Y8615000D02*
Y8615417D01*
X5232083D01*
Y8616250D01*
X5231666D01*
Y8616667D01*
X5231250D01*
Y8617083D01*
X5230833D01*
Y8617500D01*
X5230417D01*
Y8617917D01*
X5230000D01*
Y8618750D01*
X5229583D01*
Y8619167D01*
X5229167D01*
Y8619583D01*
X5228750D01*
Y8620000D01*
X5228333D01*
Y8620417D01*
X5227917D01*
Y8621250D01*
X5227500D01*
Y8621667D01*
X5227083D01*
Y8622083D01*
X5226666D01*
Y8622500D01*
X5226250D01*
Y8623333D01*
X5225833D01*
Y8623750D01*
X5225417D01*
Y8624167D01*
X5225000D01*
Y8625000D01*
X5224583D01*
Y8625417D01*
X5224167D01*
Y8626250D01*
X5223750D01*
Y8626667D01*
X5223333D01*
Y8627500D01*
X5222916D01*
Y8627917D01*
X5222500D01*
Y8628750D01*
X5222083D01*
Y8629167D01*
X5221666D01*
Y8630000D01*
X5221250D01*
Y8630417D01*
X5220833D01*
Y8631250D01*
X5220417D01*
Y8631667D01*
X5220000D01*
Y8632500D01*
X5219583D01*
Y8633334D01*
X5219167D01*
Y8633750D01*
X5218750D01*
Y8634583D01*
X5218333D01*
Y8635417D01*
X5217916D01*
Y8636250D01*
X5217500D01*
Y8637083D01*
X5217083D01*
Y8637917D01*
X5216666D01*
Y8638750D01*
X5216250D01*
Y8639583D01*
X5215833D01*
Y8640417D01*
X5215417D01*
Y8641667D01*
X5215000D01*
Y8642500D01*
X5214583D01*
Y8643750D01*
X5214167D01*
Y8645000D01*
X5213750D01*
Y8646250D01*
X5213333D01*
Y8647917D01*
X5212916D01*
Y8649583D01*
X5212500D01*
Y8652083D01*
X5212083D01*
Y8660833D01*
X5212500D01*
Y8662917D01*
X5212916D01*
Y8664583D01*
X5213333D01*
Y8665833D01*
X5213750D01*
Y8666667D01*
X5214167D01*
Y8667500D01*
X5214583D01*
Y8668333D01*
X5215000D01*
Y8669167D01*
X5215417D01*
Y8669583D01*
X5215833D01*
Y8670417D01*
X5216250D01*
Y8670833D01*
X5216666D01*
Y8671250D01*
X5217083D01*
Y8672083D01*
X5217500D01*
Y8672500D01*
X5217916D01*
Y8672917D01*
X5218333D01*
Y8673333D01*
X5218750D01*
Y8673750D01*
X5219167D01*
Y8674167D01*
X5219583D01*
Y8674583D01*
X5220000D01*
Y8675000D01*
X5220417D01*
Y8675417D01*
X5221250D01*
Y8675833D01*
X5221666D01*
Y8676250D01*
X5222083D01*
Y8676667D01*
X5222916D01*
Y8677083D01*
X5223333D01*
Y8677500D01*
X5224167D01*
Y8677917D01*
X5225000D01*
Y8678333D01*
X5225833D01*
Y8678750D01*
X5226666D01*
Y8679167D01*
X5227917D01*
Y8679583D01*
X5229167D01*
Y8680000D01*
X5230417D01*
Y8680417D01*
X5232500D01*
Y8680833D01*
X5241666D01*
Y8680417D01*
X5243750D01*
Y8680000D01*
X5245416D01*
Y8679583D01*
X5246666D01*
Y8679167D01*
X5247500D01*
Y8678750D01*
X5248333D01*
Y8678333D01*
X5249167D01*
Y8677917D01*
X5250000D01*
Y8677500D01*
X5250416D01*
Y8677083D01*
X5251250D01*
Y8676667D01*
X5251666D01*
Y8676250D01*
X5252083D01*
Y8675833D01*
X5252917D01*
Y8675417D01*
X5253333D01*
Y8675000D01*
X5253750D01*
Y8674583D01*
X5254167D01*
Y8674167D01*
X5254583D01*
Y8673750D01*
X5255000D01*
Y8673333D01*
X5255416D01*
Y8672500D01*
X5255833D01*
Y8672083D01*
X5256250D01*
Y8671667D01*
X5256666D01*
Y8671250D01*
X5257083D01*
Y8670417D01*
X5257500D01*
Y8670000D01*
X5257917D01*
Y8669167D01*
X5258333D01*
Y8668333D01*
X5258750D01*
Y8667917D01*
X5259167D01*
Y8667083D01*
X5259583D01*
Y8666250D01*
X5260000D01*
Y8665833D01*
X5260416D01*
Y8665000D01*
X5260833D01*
Y8664167D01*
X5261250D01*
Y8663750D01*
X5262083D01*
Y8664583D01*
X5262500D01*
Y8665000D01*
X5262917D01*
Y8665833D01*
X5263333D01*
Y8666667D01*
X5263750D01*
Y8667083D01*
X5264167D01*
Y8667917D01*
X5264583D01*
Y8668750D01*
X5265000D01*
Y8669167D01*
X5265416D01*
Y8670000D01*
X5265833D01*
Y8670417D01*
X5266250D01*
Y8670833D01*
X5266667D01*
Y8671667D01*
X5267083D01*
Y8672083D01*
X5267500D01*
Y8672500D01*
X5267917D01*
Y8672917D01*
X5268333D01*
Y8673750D01*
X5268750D01*
Y8674167D01*
X5269167D01*
Y8674583D01*
X5269583D01*
Y8675000D01*
X5270416D01*
Y8675417D01*
X5270833D01*
Y8675833D01*
X5271250D01*
Y8676250D01*
X5271667D01*
Y8676667D01*
X5272083D01*
Y8677083D01*
X5272917D01*
Y8677500D01*
X5273333D01*
Y8677917D01*
X5274166D01*
Y8678333D01*
X5275000D01*
Y8678750D01*
X5275833D01*
Y8679167D01*
X5276667D01*
Y8679583D01*
X5277917D01*
Y8680000D01*
X5279583D01*
Y8680417D01*
X5281667D01*
Y8680833D01*
X5290833D01*
Y8680417D01*
X5292917D01*
Y8680000D01*
X5294166D01*
Y8679583D01*
X5295416D01*
Y8679167D01*
X5296667D01*
Y8678750D01*
X5297500D01*
Y8678333D01*
X5298333D01*
Y8677917D01*
X5299166D01*
Y8677500D01*
X5300000D01*
Y8677083D01*
X5300417D01*
Y8676667D01*
X5301250D01*
Y8676250D01*
X5301667D01*
Y8675833D01*
X5302083D01*
Y8675417D01*
X5302916D01*
Y8675000D01*
X5303333D01*
Y8674583D01*
X5303750D01*
Y8674167D01*
X5304166D01*
Y8673750D01*
X5304583D01*
Y8673333D01*
X5305000D01*
Y8672917D01*
X5305417D01*
Y8672500D01*
X5305833D01*
Y8672083D01*
X5306250D01*
Y8671667D01*
X5306667D01*
Y8670833D01*
X5307083D01*
Y8670417D01*
X5307500D01*
Y8669583D01*
X5307916D01*
Y8669167D01*
X5308333D01*
Y8668333D01*
X5308750D01*
Y8667500D01*
X5309166D01*
Y8666667D01*
X5309583D01*
Y8665833D01*
X5310000D01*
Y8664583D01*
X5310417D01*
Y8663333D01*
X5310833D01*
Y8661250D01*
X5311250D01*
Y8657500D01*
X5311667D01*
Y8656250D01*
X5311250D01*
Y8651667D01*
X5310833D01*
Y8649583D01*
X5310417D01*
Y8647500D01*
X5310000D01*
Y8646250D01*
X5309583D01*
Y8645000D01*
X5309166D01*
Y8643750D01*
X5308750D01*
Y8642500D01*
X5308333D01*
Y8641667D01*
X5307916D01*
Y8640417D01*
X5307500D01*
Y8639583D01*
X5307083D01*
Y8638750D01*
X5306667D01*
Y8637917D01*
X5306250D01*
Y8637083D01*
X5305833D01*
Y8636250D01*
X5305417D01*
Y8635417D01*
X5305000D01*
Y8634583D01*
X5304583D01*
Y8633750D01*
X5304166D01*
Y8632917D01*
X5303750D01*
Y8632500D01*
X5303333D01*
Y8631667D01*
X5302916D01*
Y8631250D01*
X5302500D01*
Y8630417D01*
X5302083D01*
Y8630000D01*
X5301667D01*
Y8629167D01*
X5301250D01*
Y8628333D01*
X5300833D01*
Y8627917D01*
X5300417D01*
Y8627083D01*
X5300000D01*
Y8626667D01*
X5299583D01*
Y8626250D01*
X5299166D01*
Y8625417D01*
X5298750D01*
Y8625000D01*
X5298333D01*
Y8624583D01*
X5297917D01*
Y8623750D01*
X5297500D01*
Y8623333D01*
X5297083D01*
Y8622917D01*
X5296667D01*
Y8622083D01*
X5296250D01*
Y8621667D01*
X5295833D01*
Y8621250D01*
X5295416D01*
Y8620417D01*
X5295000D01*
Y8620000D01*
X5294583D01*
Y8619583D01*
X5294166D01*
Y8619167D01*
X5293750D01*
Y8618333D01*
X5293333D01*
Y8617917D01*
X5292917D01*
Y8617500D01*
X5292500D01*
Y8617083D01*
X5292083D01*
Y8616250D01*
X5291667D01*
Y8615833D01*
X5291250D01*
Y8615417D01*
X5290833D01*
Y8615000D01*
X5290416D01*
Y8614583D01*
X5290000D01*
Y8614167D01*
X5289583D01*
Y8613750D01*
X5289166D01*
Y8612917D01*
X5288750D01*
Y8612500D01*
X5288333D01*
Y8612083D01*
X5287917D01*
Y8611667D01*
X5287500D01*
Y8611250D01*
X5287083D01*
Y8610833D01*
X5286667D01*
Y8610417D01*
X5286250D01*
Y8610000D01*
X5285833D01*
Y8609583D01*
X5285416D01*
Y8609167D01*
X5285000D01*
Y8608750D01*
X5284583D01*
Y8607917D01*
X5284166D01*
Y8607500D01*
X5283750D01*
Y8607083D01*
X5283333D01*
Y8606667D01*
X5282917D01*
Y8606250D01*
X5282500D01*
Y8605833D01*
X5282083D01*
Y8605417D01*
X5281667D01*
Y8605000D01*
X5281250D01*
Y8604584D01*
X5280833D01*
Y8604167D01*
X5280416D01*
Y8603750D01*
X5280000D01*
Y8603333D01*
X5279583D01*
Y8602917D01*
X5279166D01*
Y8602500D01*
X5278750D01*
Y8602083D01*
X5278333D01*
Y8601667D01*
X5277917D01*
Y8601250D01*
X5277500D01*
Y8600833D01*
X5277083D01*
Y8600417D01*
X5276667D01*
Y8600000D01*
X5276250D01*
Y8599584D01*
X5275833D01*
Y8599167D01*
X5275416D01*
Y8598750D01*
X5275000D01*
Y8598333D01*
X5274583D01*
Y8597917D01*
X5274166D01*
Y8597500D01*
X5273750D01*
Y8597083D01*
X5273333D01*
Y8596667D01*
X5272917D01*
Y8596250D01*
X5272500D01*
Y8595833D01*
X5272083D01*
Y8595417D01*
X5271667D01*
Y8595000D01*
X5271250D01*
Y8594583D01*
X5270833D01*
Y8594167D01*
X5270416D01*
Y8593750D01*
X5270000D01*
Y8593333D01*
X5269583D01*
Y8592917D01*
X5269167D01*
Y8592500D01*
X5268750D01*
Y8592083D01*
X5267917D01*
Y8591667D01*
X5267500D01*
Y8591250D01*
X5267083D01*
Y8590833D01*
X5266667D01*
Y8590417D01*
X5266250D01*
Y8590000D01*
X5265833D01*
Y8589583D01*
X5265416D01*
Y8589167D01*
X5265000D01*
Y8588750D01*
X5264583D01*
Y8588333D01*
X5264167D01*
Y8587917D01*
X5263750D01*
Y8587500D01*
X5263333D01*
Y8587083D01*
X5262917D01*
Y8586667D01*
X5262500D01*
Y8586250D01*
X5262083D01*
Y8585833D01*
X5261250D01*
Y8586250D01*
X5260833D01*
Y8586667D01*
X5260416D01*
Y8587083D01*
X5260000D01*
Y8587500D01*
X5259583D01*
Y8587917D01*
X5259167D01*
Y8588333D01*
X5258750D01*
Y8588750D01*
X5258333D01*
Y8589167D01*
X5257917D01*
Y8589583D01*
X5257500D01*
Y8590000D01*
X5257083D01*
Y8590417D01*
X5256666D01*
Y8590833D01*
X5256250D01*
Y8591250D01*
X5255833D01*
Y8591667D01*
X5255000D01*
Y8592083D01*
X5254583D01*
Y8592500D01*
X5254167D01*
Y8592917D01*
X5253750D01*
Y8593333D01*
X5253333D01*
Y8593750D01*
X5252917D01*
Y8594167D01*
X5252500D01*
Y8594583D01*
X5252083D01*
Y8595000D01*
X5251666D01*
Y8595417D01*
X5251250D01*
Y8595833D01*
X5250833D01*
Y8596250D01*
X5250416D01*
Y8596667D01*
X5250000D01*
Y8597083D01*
X5249583D01*
Y8597500D01*
X5249167D01*
Y8597917D01*
X5248750D01*
Y8598333D01*
X5248333D01*
Y8598750D01*
X5247917D01*
Y8599167D01*
X5247500D01*
Y8599584D01*
X5247083D01*
Y8600000D01*
X5246666D01*
Y8600417D01*
X5246250D01*
Y8600833D01*
X5245833D01*
Y8601250D01*
X5245416D01*
Y8601667D01*
X5245000D01*
Y8602083D01*
X5244583D01*
Y8602500D01*
X5244167D01*
Y8602917D01*
X5243750D01*
Y8603333D01*
X5243333D01*
Y8603750D01*
X5242917D01*
Y8604167D01*
X5242500D01*
Y8604584D01*
X5242083D01*
Y8605000D01*
X5241666D01*
Y8605417D01*
X5241250D01*
Y8605833D01*
X5240833D01*
Y8606250D01*
X5240416D01*
Y8607083D01*
X5240000D01*
Y8607500D01*
X5239583D01*
Y8607917D01*
X5239167D01*
Y8608333D01*
X5238750D01*
Y8608750D01*
X5238333D01*
Y8609167D01*
X5237917D01*
Y8609583D01*
X5237500D01*
Y8610000D01*
X5237083D01*
Y8610417D01*
X5236666D01*
Y8610833D01*
X5236250D01*
Y8611250D01*
X5235833D01*
Y8611667D01*
X5235417D01*
Y8612083D01*
X5235000D01*
Y8612917D01*
X5234583D01*
Y8613333D01*
X5234167D01*
Y8613750D01*
X5233750D01*
Y8614167D01*
X5233333D01*
Y8614583D01*
X5232917D01*
Y8615000D01*
X5232500D01*
D02*
G37*
G36*
X8450000Y8050000D02*
X8429839D01*
Y8325000D01*
X8450000D01*
Y8050000D01*
D02*
G37*
G36*
X8389516D02*
X8369355D01*
Y8325000D01*
X8389516D01*
Y8050000D01*
D02*
G37*
G36*
X8349194D02*
X8308871D01*
Y8325000D01*
X8349194D01*
Y8050000D01*
D02*
G37*
G36*
X8288710D02*
X8248388D01*
Y8325000D01*
X8288710D01*
Y8050000D01*
D02*
G37*
G36*
X8228226D02*
X8208065D01*
Y8325000D01*
X8228226D01*
Y8050000D01*
D02*
G37*
G36*
X8187904D02*
X8147581D01*
Y8325000D01*
X8187904D01*
Y8050000D01*
D02*
G37*
G36*
X8127420D02*
X8107259D01*
Y8325000D01*
X8127420D01*
Y8050000D01*
D02*
G37*
G36*
X8066936D02*
X8046775D01*
Y8325000D01*
X8066936D01*
Y8050000D01*
D02*
G37*
G36*
X8026614D02*
X8006453D01*
Y8325000D01*
X8026614D01*
Y8050000D01*
D02*
G37*
G36*
X7986291D02*
X7945969D01*
Y8325000D01*
X7986291D01*
Y8050000D01*
D02*
G37*
G36*
X7925808D02*
X7885485D01*
Y8325000D01*
X7925808D01*
Y8050000D01*
D02*
G37*
G36*
X7865324D02*
X7845163D01*
Y8325000D01*
X7865324D01*
Y8050000D01*
D02*
G37*
G36*
X7804840D02*
X7764518D01*
Y8325000D01*
X7804840D01*
Y8050000D01*
D02*
G37*
G36*
X7744356D02*
X7724195D01*
Y8325000D01*
X7744356D01*
Y8050000D01*
D02*
G37*
G36*
X7704034D02*
X7683873D01*
Y8325000D01*
X7704034D01*
Y8050000D01*
D02*
G37*
G36*
X7663711D02*
X7643550D01*
Y8325000D01*
X7663711D01*
Y8050000D01*
D02*
G37*
G36*
X7603228D02*
X7583066D01*
Y8325000D01*
X7603228D01*
Y8050000D01*
D02*
G37*
G36*
X7542744D02*
X7522583D01*
Y8325000D01*
X7542744D01*
Y8050000D01*
D02*
G37*
G36*
X7502421D02*
X7482260D01*
Y8325000D01*
X7502421D01*
Y8050000D01*
D02*
G37*
G36*
X7441938D02*
X7421776D01*
Y8325000D01*
X7441938D01*
Y8050000D01*
D02*
G37*
G36*
X7401615D02*
X7361293D01*
Y8325000D01*
X7401615D01*
Y8050000D01*
D02*
G37*
G36*
X7341131D02*
X7320970D01*
Y8325000D01*
X7341131D01*
Y8050000D01*
D02*
G37*
G36*
X7300809D02*
X7260486D01*
Y8325000D01*
X7300809D01*
Y8050000D01*
D02*
G37*
G36*
X7240325D02*
X7220164D01*
Y8325000D01*
X7240325D01*
Y8050000D01*
D02*
G37*
G36*
X7179841D02*
X7159680D01*
Y8325000D01*
X7179841D01*
Y8050000D01*
D02*
G37*
G36*
X7139519D02*
X7099196D01*
Y8325000D01*
X7139519D01*
Y8050000D01*
D02*
G37*
G36*
X7079035D02*
X7058874D01*
Y8325000D01*
X7079035D01*
Y8050000D01*
D02*
G37*
G36*
X7018551D02*
X6998390D01*
Y8325000D01*
X7018551D01*
Y8050000D01*
D02*
G37*
G36*
X6978229D02*
X6958068D01*
Y8325000D01*
X6978229D01*
Y8050000D01*
D02*
G37*
G36*
X6937906D02*
X6897584D01*
Y8325000D01*
X6937906D01*
Y8050000D01*
D02*
G37*
G36*
X6877423D02*
X6857261D01*
Y8325000D01*
X6877423D01*
Y8050000D01*
D02*
G37*
G36*
X6837100D02*
X6796778D01*
Y8325000D01*
X6837100D01*
Y8050000D01*
D02*
G37*
G36*
X6756455D02*
X6736294D01*
Y8325000D01*
X6756455D01*
Y8050000D01*
D02*
G37*
G36*
X6716133D02*
X6695971D01*
Y8325000D01*
X6716133D01*
Y8050000D01*
D02*
G37*
G36*
X6675810D02*
X6635488D01*
Y8325000D01*
X6675810D01*
Y8050000D01*
D02*
G37*
G36*
X6615326D02*
X6595165D01*
Y8325000D01*
X6615326D01*
Y8050000D01*
D02*
G37*
G36*
X6554843D02*
X6534681D01*
Y8325000D01*
X6554843D01*
Y8050000D01*
D02*
G37*
G36*
X6494359D02*
X6474198D01*
Y8325000D01*
X6494359D01*
Y8050000D01*
D02*
G37*
G36*
X6454036D02*
X6433875D01*
Y8325000D01*
X6454036D01*
Y8050000D01*
D02*
G37*
G36*
X6393553D02*
X6373391D01*
Y8325000D01*
X6393553D01*
Y8050000D01*
D02*
G37*
G36*
X6353230D02*
X6312908D01*
Y8325000D01*
X6353230D01*
Y8050000D01*
D02*
G37*
G36*
X6292746D02*
X6272585D01*
Y8325000D01*
X6292746D01*
Y8050000D01*
D02*
G37*
G36*
X6252424D02*
X6212101D01*
Y8325000D01*
X6252424D01*
Y8050000D01*
D02*
G37*
G36*
X6191940D02*
X6171779D01*
Y8325000D01*
X6191940D01*
Y8050000D01*
D02*
G37*
G36*
X6131456D02*
X6111295D01*
Y8325000D01*
X6131456D01*
Y8050000D01*
D02*
G37*
G36*
X6091134D02*
X6070973D01*
Y8325000D01*
X6091134D01*
Y8050000D01*
D02*
G37*
G36*
X6050811D02*
X6010489D01*
Y8325000D01*
X6050811D01*
Y8050000D01*
D02*
G37*
G36*
X5970166D02*
X5950005D01*
Y8325000D01*
X5970166D01*
Y8050000D01*
D02*
G37*
G36*
X5929844D02*
X5909683D01*
Y8325000D01*
X5929844D01*
Y8050000D01*
D02*
G37*
G36*
X5889521D02*
X5849199D01*
Y8325000D01*
X5889521D01*
Y8050000D01*
D02*
G37*
G36*
X5829038D02*
X5808876D01*
Y8325000D01*
X5829038D01*
Y8050000D01*
D02*
G37*
G36*
X5788715D02*
X5768554D01*
Y8325000D01*
X5788715D01*
Y8050000D01*
D02*
G37*
G36*
X5728231D02*
X5687909D01*
Y8325000D01*
X5728231D01*
Y8050000D01*
D02*
G37*
G36*
X5667748D02*
X5647586D01*
Y8325000D01*
X5667748D01*
Y8050000D01*
D02*
G37*
G36*
X5627425D02*
X5587103D01*
Y8325000D01*
X5627425D01*
Y8050000D01*
D02*
G37*
G36*
X5566941D02*
X5546780D01*
Y8325000D01*
X5566941D01*
Y8050000D01*
D02*
G37*
G36*
X5506458D02*
X5486296D01*
Y8325000D01*
X5506458D01*
Y8050000D01*
D02*
G37*
G36*
X5466135D02*
X5425813D01*
Y8325000D01*
X5466135D01*
Y8050000D01*
D02*
G37*
G36*
X5405651D02*
X5365329D01*
Y8325000D01*
X5405651D01*
Y8050000D01*
D02*
G37*
G36*
X5345168D02*
X5325006D01*
Y8325000D01*
X5345168D01*
Y8050000D01*
D02*
G37*
D56*
X6924450Y10589536D02*
X6974434Y10639520D01*
X7074401D01*
X7124385Y10589536D01*
Y10389601D01*
X7074401Y10339617D01*
X6974434D01*
X6924450Y10389601D01*
X6824482Y10639520D02*
Y10339617D01*
Y10489569D01*
X6774498Y10539552D01*
X6674531D01*
X6624547Y10489569D01*
Y10339617D01*
X6474595D02*
X6374628D01*
X6324644Y10389601D01*
Y10489569D01*
X6374628Y10539552D01*
X6474595D01*
X6524579Y10489569D01*
Y10389601D01*
X6474595Y10339617D01*
X6224676D02*
Y10539552D01*
X6074725D01*
X6024741Y10489569D01*
Y10339617D01*
X5824806Y10239650D02*
X5774822D01*
X5724838Y10289633D01*
Y10539552D01*
X5874790D01*
X5924774Y10489569D01*
Y10389601D01*
X5874790Y10339617D01*
X5724838D01*
X5574887Y10689504D02*
Y10589536D01*
X5624871Y10539552D01*
X5424935Y10339617D02*
X5274984D01*
X5225000Y10389601D01*
X5274984Y10439585D01*
X5374951D01*
X5424935Y10489569D01*
X5374951Y10539552D01*
X5225000D01*
X6024741Y10009686D02*
X6074725Y10059669D01*
X6174692D01*
X6224676Y10009686D01*
Y9809750D01*
X6174692Y9759766D01*
X6074725D01*
X6024741Y9809750D01*
X5874789Y9759766D02*
X5774822D01*
X5724838Y9809750D01*
Y9909718D01*
X5774822Y9959702D01*
X5874789D01*
X5924773Y9909718D01*
Y9809750D01*
X5874789Y9759766D01*
X5574886D02*
X5474919D01*
X5424935Y9809750D01*
Y9909718D01*
X5474919Y9959702D01*
X5574886D01*
X5624870Y9909718D01*
Y9809750D01*
X5574886Y9759766D01*
X5324968D02*
X5225000D01*
X5274984D01*
Y10059669D01*
X5324968D01*
X6424611Y9529802D02*
X6474595Y9579786D01*
X6574563D01*
X6624547Y9529802D01*
Y9479818D01*
X6574563Y9429835D01*
X6474595D01*
X6424611Y9379851D01*
Y9329867D01*
X6474595Y9279883D01*
X6574563D01*
X6624547Y9329867D01*
X6324644Y9579786D02*
X6124709D01*
X6224676D01*
Y9279883D01*
X6024741D02*
Y9579786D01*
X5924774Y9479818D01*
X5824806Y9579786D01*
Y9279883D01*
X5724838Y9529802D02*
X5674854Y9579786D01*
X5574887D01*
X5524903Y9529802D01*
Y9479818D01*
X5574887Y9429835D01*
X5624871D01*
X5574887D01*
X5524903Y9379851D01*
Y9329867D01*
X5574887Y9279883D01*
X5674854D01*
X5724838Y9329867D01*
X5225000Y9279883D02*
X5424935D01*
X5225000Y9479818D01*
Y9529802D01*
X5274984Y9579786D01*
X5374951D01*
X5424935Y9529802D01*
X6624547Y9099903D02*
Y8800000D01*
X6474595D01*
X6424611Y8849984D01*
Y8899967D01*
X6474595Y8949951D01*
X6624547D01*
X6474595D01*
X6424611Y8999935D01*
Y9049919D01*
X6474595Y9099903D01*
X6624547D01*
X6274660Y8800000D02*
X6174693D01*
X6124709Y8849984D01*
Y8949951D01*
X6174693Y8999935D01*
X6274660D01*
X6324644Y8949951D01*
Y8849984D01*
X6274660Y8800000D01*
X5974757Y8999935D02*
X5874790D01*
X5824806Y8949951D01*
Y8800000D01*
X5974757D01*
X6024741Y8849984D01*
X5974757Y8899967D01*
X5824806D01*
X5724838Y8999935D02*
Y8800000D01*
Y8899967D01*
X5674854Y8949951D01*
X5624871Y8999935D01*
X5574887D01*
X5225000Y9099903D02*
Y8800000D01*
X5374951D01*
X5424935Y8849984D01*
Y8949951D01*
X5374951Y8999935D01*
X5225000D01*
D57*
X6434323Y8593000D02*
Y8672974D01*
X6407665Y8646316D01*
X6381007Y8672974D01*
Y8593000D01*
X6341019Y8646316D02*
X6314361D01*
X6301032Y8632987D01*
Y8593000D01*
X6341019D01*
X6354348Y8606329D01*
X6341019Y8619658D01*
X6301032D01*
X6221058Y8672974D02*
Y8593000D01*
X6261045D01*
X6274374Y8606329D01*
Y8632987D01*
X6261045Y8646316D01*
X6221058D01*
X6154413Y8593000D02*
X6181071D01*
X6194400Y8606329D01*
Y8632987D01*
X6181071Y8646316D01*
X6154413D01*
X6141084Y8632987D01*
Y8619658D01*
X6194400D01*
X6034452Y8672974D02*
Y8593000D01*
X6007794Y8619658D01*
X5981136Y8593000D01*
Y8672974D01*
X5954478Y8593000D02*
X5927819D01*
X5941148D01*
Y8646316D01*
X5954478D01*
X5874503Y8659645D02*
Y8646316D01*
X5887832D01*
X5861174D01*
X5874503D01*
Y8606329D01*
X5861174Y8593000D01*
X5821187Y8672974D02*
Y8593000D01*
Y8632987D01*
X5807858Y8646316D01*
X5781200D01*
X5767871Y8632987D01*
Y8593000D01*
X5661239Y8672974D02*
Y8593000D01*
X5607922D01*
X5567935D02*
X5541277D01*
X5527948Y8606329D01*
Y8632987D01*
X5541277Y8646316D01*
X5567935D01*
X5581264Y8632987D01*
Y8606329D01*
X5567935Y8593000D01*
X5501290Y8646316D02*
X5474632Y8593000D01*
X5447974Y8646316D01*
X5381329Y8593000D02*
X5407987D01*
X5421316Y8606329D01*
Y8632987D01*
X5407987Y8646316D01*
X5381329D01*
X5368000Y8632987D01*
Y8619658D01*
X5421316D01*
%TF.MD5,5c367f0b2dbb876a4dc21d2043a18172*%
M02*
